<svg xmlns="http://www.w3.org/2000/svg" xmlns:xlink="http://www.w3.org/1999/xlink" width="181" height="178" viewBox="0 0 181 178"><defs><path id="rsjla" d="M243.9 2578.7v-3h155.5v3z"/><path id="rsjlc" d="M243.9 2434.8v-3h155.5v3z"/><path id="rsjle" d="M404.4 2570.2v-130.5h3v130.5z"/><path id="rsjlg" d="M236 2570.2v-130.5h3v130.5z"/><path id="rsjli" d="M351 2529c-19.9 0-36-16.1-36-36 0-14.7 8.8-27.3 21.3-32.9-8.2-4.6-17.7-7.3-27.8-7.3-31.4 0-56.9 25.5-56.9 56.9s25.5 56.9 56.9 56.9c25.4 0 46.9-16.7 54.2-39.7a32 32 0 0 1-11.7 2.1z"/><path id="rsjlk" d="M347.6 2529.8c-.1 0-.1 0 0 0-3.5-.3-6.9-1.1-10.1-2.4-.5-.2-.8-.8-.6-1.3.2-.5.8-.8 1.3-.6 3 1.2 6.2 1.9 9.4 2.3.5.1 1 .5.9 1.1 0 .5-.4.9-.9.9zm9.9-.4c-.5 0-.9-.3-1-.8-.1-.5.3-1.1.8-1.2 3.2-.6 6.3-1.6 9.2-3 .5-.2 1.1 0 1.3.5.2.5 0 1.1-.5 1.3-3.1 1.5-6.3 2.6-9.7 3.2h-.1zm-28.3-6.8c-.2 0-.4-.1-.6-.2-2.7-2.1-5.1-4.5-7.2-7.3-.3-.4-.2-1.1.2-1.4.4-.3 1.1-.2 1.4.2 1.9 2.6 4.2 4.9 6.8 6.9.4.3.5 1 .2 1.4-.2.3-.5.4-.8.4zm46-2a.9.9 0 0 1-.7-.3c-.4-.4-.3-1 .1-1.4 2.4-2.2 4.5-4.7 6.2-7.4.3-.5.9-.6 1.4-.3.5.3.6.9.3 1.4-1.8 2.9-4 5.6-6.6 7.9-.2 0-.5.1-.7.1zm-57.8-13.8c-.4 0-.8-.2-.9-.6-1.2-3.2-2-6.6-2.3-10 0-.6.4-1 .9-1.1.6 0 1 .4 1.1.9.3 3.2 1 6.4 2.1 9.4.2.5-.1 1.1-.6 1.3-.1.1-.2.1-.3.1zm68.2-2.9h-.3c-.5-.2-.8-.7-.7-1.2.9-3.1 1.3-6.3 1.3-9.6 0-2-.2-4-.5-5.9-.1-.5.3-1.1.8-1.2.5-.1 1.1.3 1.2.8.4 2.1.5 4.2.5 6.3 0 3.4-.5 6.9-1.4 10.1 0 .4-.4.7-.9.7zm-69.9-16.8h-.2c-.5-.1-.9-.6-.8-1.2.7-3.4 1.8-6.6 3.3-9.7.3-.5.9-.7 1.3-.4.5.3.7.9.4 1.3-1.5 2.9-2.5 6-3.2 9.2.1.5-.3.8-.8.8zm67.8-8.7c-.4 0-.7-.2-.9-.6-1.4-2.9-3.2-5.6-5.4-8.1-.4-.4-.3-1 .1-1.4.4-.4 1-.3 1.4.1 2.3 2.6 4.2 5.4 5.7 8.5.2.5 0 1.1-.5 1.3-.2.2-.3.2-.4.2zm-58.8-8.9c-.2 0-.5-.1-.7-.3-.4-.4-.4-1-.1-1.4 2.3-2.5 5-4.7 7.9-6.5.5-.3 1.1-.1 1.4.3.3.5.1 1.1-.3 1.4-2.8 1.7-5.3 3.7-7.5 6.1-.2.3-.5.4-.7.4zm45.6-5.8c-.2 0-.4-.1-.5-.2-2.7-1.7-5.7-3.1-8.8-4-.5-.2-.8-.7-.7-1.2.2-.5.7-.8 1.2-.7 3.3 1 6.4 2.4 9.3 4.3.5.3.6.9.3 1.4-.1.2-.4.4-.8.4zm-28.8-4.4c-.4 0-.8-.3-1-.7-.1-.5.2-1.1.7-1.2 3.2-.9 6.4-1.3 9.7-1.3h.4c.6 0 1 .5 1 1s-.5 1-1 1h-.4c-3.1 0-6.2.4-9.2 1.2h-.2z"/><path id="rsjlm" d="M410 2580.8h-8.6v-8.6h8.6zm-10.6-10.6v12.6H412v-12.6z"/><path id="rsjlo" d="M410 2437.7h-8.6v-8.6h8.6zm-10.6-10.6v12.6H412v-12.6z"/><path id="rsjlq" d="M241.9 2437.7h-8.6v-8.6h8.6zm-10.6-10.6v12.6h12.6v-12.6z"/><path id="rsjls" d="M241.9 2580.8h-8.6v-8.6h8.6zm-10.6-10.6v12.6h12.6v-12.6z"/><radialGradient id="rsjlb" cx="321.69" cy="2505.25" r="80.81" gradientUnits="userSpaceOnUse"><stop offset="0" stop-color="#0a6972"/><stop offset="1" stop-color="#16193f"/></radialGradient><radialGradient id="rsjld" cx="321.69" cy="2505.25" r="80.81" gradientUnits="userSpaceOnUse"><stop offset="0" stop-color="#0a6972"/><stop offset="1" stop-color="#16193f"/></radialGradient><radialGradient id="rsjlf" cx="321.75" cy="2505.25" r="80.77" gradientUnits="userSpaceOnUse"><stop offset="0" stop-color="#0a6972"/><stop offset="1" stop-color="#16193f"/></radialGradient><radialGradient id="rsjlh" cx="321.75" cy="2505.25" r="80.77" gradientUnits="userSpaceOnUse"><stop offset="0" stop-color="#0a6972"/><stop offset="1" stop-color="#16193f"/></radialGradient><radialGradient id="rsjlj" cx="307.24" cy="2509.77" r="56.24" gradientUnits="userSpaceOnUse"><stop offset="0" stop-color="#0a6972"/><stop offset="1" stop-color="#16193f"/></radialGradient><linearGradient id="rsjll" x1="314.18" x2="388" y1="2492.92" y2="2492.92" gradientUnits="userSpaceOnUse"><stop offset="0" stop-color="#16193f"/><stop offset="1" stop-color="#0a6972"/></linearGradient><linearGradient id="rsjln" x1="411.99" x2="399.44" y1="2576.51" y2="2576.51" gradientUnits="userSpaceOnUse"><stop offset="0" stop-color="#0a6972"/><stop offset="1" stop-color="#16193f"/></linearGradient><linearGradient id="rsjlp" x1="411.99" x2="399.44" y1="2433.42" y2="2433.42" gradientUnits="userSpaceOnUse"><stop offset="0" stop-color="#0a6972"/><stop offset="1" stop-color="#16193f"/></linearGradient><linearGradient id="rsjlr" x1="243.89" x2="231.34" y1="2433.42" y2="2433.42" gradientUnits="userSpaceOnUse"><stop offset="0" stop-color="#0a6972"/><stop offset="1" stop-color="#16193f"/></linearGradient><linearGradient id="rsjlt" x1="243.89" x2="231.34" y1="2576.51" y2="2576.51" gradientUnits="userSpaceOnUse"><stop offset="0" stop-color="#0a6972"/><stop offset="1" stop-color="#16193f"/></linearGradient></defs><g><g transform="translate(-231 -2405)"><g><g><g/><g><use fill="url(#rsjlb)" xlink:href="#rsjla"/></g><g><use fill="url(#rsjld)" xlink:href="#rsjlc"/></g><g><use fill="url(#rsjlf)" xlink:href="#rsjle"/></g><g><use fill="url(#rsjlh)" xlink:href="#rsjlg"/></g></g><g><use fill="url(#rsjlj)" xlink:href="#rsjli"/></g><g><use fill="url(#rsjll)" xlink:href="#rsjlk"/></g><g><use fill="url(#rsjln)" xlink:href="#rsjlm"/></g><g><use fill="url(#rsjlp)" xlink:href="#rsjlo"/></g><g><use fill="url(#rsjlr)" xlink:href="#rsjlq"/></g><g><use fill="url(#rsjlt)" xlink:href="#rsjls"/></g></g></g></g></svg>