<svg xmlns="http://www.w3.org/2000/svg" xmlns:xlink="http://www.w3.org/1999/xlink" width="182" height="178" viewBox="0 0 182 178"><defs><path id="b" d="M689.4 2497.8c-5.2 0-7.9-2.3-10.3-4.4-2.3-2-4.3-3.6-8.4-3.6-4.1 0-6.1 1.7-8.4 3.6-2.4 2-5.1 4.4-10.3 4.4-5.2 0-7.9-2.3-10.3-4.4-2.3-2-4.3-3.6-8.4-3.6-.8 0-1.5-.7-1.5-1.5s.7-1.5 1.5-1.5c5.2 0 7.9 2.3 10.3 4.4 2.3 2 4.3 3.6 8.4 3.6 4.1 0 6.1-1.7 8.4-3.6 2.4-2 5.1-4.4 10.3-4.4 5.2 0 7.9 2.3 10.3 4.4 2.3 2 4.3 3.6 8.4 3.6 4.1 0 6.1-1.7 8.4-3.6 2.4-2 5.1-4.4 10.3-4.4.8 0 1.5.7 1.5 1.5s-.7 1.5-1.5 1.5c-4.1 0-6.1 1.7-8.4 3.6-2.3 2.1-5 4.4-10.3 4.4z"/><path id="d" d="M689.4 2516.3c-5.2 0-7.9-2.3-10.3-4.4-2.3-2-4.3-3.6-8.4-3.6-4.1 0-6.1 1.7-8.4 3.6-2.4 2-5.1 4.4-10.3 4.4-5.2 0-7.9-2.3-10.3-4.4-2.3-2-4.3-3.6-8.4-3.6-.8 0-1.5-.7-1.5-1.5s.7-1.5 1.5-1.5c5.2 0 7.9 2.3 10.3 4.4 2.3 2 4.3 3.6 8.4 3.6 4.1 0 6.1-1.7 8.4-3.6 2.4-2 5.1-4.4 10.3-4.4 5.2 0 7.9 2.3 10.3 4.4 2.3 2 4.3 3.6 8.4 3.6 4.1 0 6.1-1.7 8.4-3.6 2.4-2 5.1-4.4 10.3-4.4.8 0 1.5.7 1.5 1.5s-.7 1.5-1.5 1.5c-4.1 0-6.1 1.7-8.4 3.6-2.3 2.1-5 4.4-10.3 4.4z"/><path id="f" d="M689.4 2534.8c-5.2 0-7.9-2.3-10.3-4.4-2.3-2-4.3-3.6-8.4-3.6-4.1 0-6.1 1.7-8.4 3.6-2.4 2-5.1 4.4-10.3 4.4-5.2 0-7.9-2.3-10.3-4.4-2.3-2-4.3-3.6-8.4-3.6-.8 0-1.5-.7-1.5-1.5s.7-1.5 1.5-1.5c5.2 0 7.9 2.3 10.3 4.4 2.3 2 4.3 3.6 8.4 3.6 4.1 0 6.1-1.7 8.4-3.6 2.4-2 5.1-4.4 10.3-4.4 5.2 0 7.9 2.3 10.3 4.4 2.3 2 4.3 3.6 8.4 3.6 4.1 0 6.1-1.7 8.4-3.6 2.4-2 5.1-4.4 10.3-4.4.8 0 1.5.7 1.5 1.5s-.7 1.5-1.5 1.5c-4.1 0-6.1 1.7-8.4 3.6-2.3 2.1-5 4.4-10.3 4.4z"/><path id="h" d="M770.9 2527.1c-11 1.1-22.4-1.7-32-8.9a45.15 45.15 0 0 1-18-30.2 45.57 45.57 0 0 1 8.6-34.1c7.3-9.9 18.1-16.3 30.2-18 12.2-1.8 24.3 1.3 34.1 8.6 20.3 15.1 24.6 44 9.4 64.4-8 10.7-19.9 17-32.3 18.2zm-8.8-88.5c-11.6 1.2-22.7 7-30.2 17.1-6.9 9.2-9.7 20.5-8 31.9 1.7 11.4 7.7 21.4 16.9 28.3 9.2 6.9 20.5 9.7 31.9 8a43.05 43.05 0 0 0 19.5-77.1c-9.1-6.6-19.8-9.2-30.1-8.2z"/><path id="j" d="M765.6 2514.3h-.2c-2.8-.1-5.6-.5-8.3-1.3-.8-.2-1.3-1.1-1-1.9.2-.8 1.1-1.3 1.9-1 2.4.7 5 1.1 7.5 1.2.8 0 1.5.7 1.5 1.5-.1.8-.7 1.4-1.4 1.5zm11.7-1.9c-.7.1-1.3-.3-1.6-1-.3-.8.1-1.6.9-1.9 2.4-.9 4.7-2.1 6.7-3.5.7-.5 1.6-.3 2.1.4s.3 1.6-.4 2.1a34.9 34.9 0 0 1-7.4 3.9c0-.1-.1 0-.3 0zm-30.2-4.8c-.4 0-.8-.1-1.1-.3-2.2-1.7-4.2-3.7-5.9-5.9-.5-.7-.4-1.6.3-2.1s1.6-.4 2.1.3c1.5 2 3.3 3.8 5.3 5.4.7.5.8 1.5.3 2.1-.3.3-.6.5-1 .5zm45.6-7.5c-.3 0-.7 0-1-.2-.7-.5-.9-1.4-.4-2.1 1.4-2.1 2.5-4.4 3.3-6.8.3-.8 1.1-1.2 1.9-.9.8.3 1.2 1.1.9 1.9-.9 2.6-2.1 5.2-3.7 7.5-.1.4-.5.6-1 .6zm-56.5-8.9c-.7.1-1.4-.4-1.6-1.1-.5-1.8-.9-3.7-1-5.5-.1-.9-.1-1.8-.2-2.7 0-.8.6-1.5 1.5-1.5.8 0 1.5.6 1.5 1.5 0 .8.1 1.7.1 2.5.2 1.7.5 3.4.9 5 .2.8-.2 1.6-1 1.8h-.2zm61.7-10c-.1 0-.1 0 0 0-.9.1-1.6-.6-1.6-1.4 0-.4-.1-.9-.1-1.3-.2-2.1-.6-4.1-1.3-6.1-.3-.8.2-1.6 1-1.9.8-.3 1.6.2 1.9 1 .7 2.2 1.2 4.5 1.4 6.8 0 .5.1 1 .1 1.5 0 .6-.6 1.3-1.4 1.4zm-60.8-9.6c-.2 0-.5 0-.7-.1-.8-.3-1.2-1.2-.9-1.9 1-2.6 2.3-5.1 4-7.4.5-.7 1.4-.8 2.1-.3.7.5.8 1.4.3 2.1-1.5 2.1-2.7 4.3-3.6 6.7-.1.5-.6.8-1.2.9zm55.1-6.8c-.5.1-1.1-.2-1.4-.6-1.5-2.1-3.2-4-5.1-5.6-.6-.5-.7-1.5-.2-2.1.5-.6 1.5-.7 2.1-.2 2.1 1.8 4 3.9 5.6 6.2.5.7.3 1.6-.4 2.1-.1.1-.4.2-.6.2zm-42.6-8.4c-.5.1-1.1-.2-1.4-.7-.4-.7-.2-1.6.5-2.1 2.3-1.5 4.9-2.7 7.6-3.6.8-.3 1.6.2 1.9 1 .3.8-.2 1.6-1 1.9-2.4.8-4.7 1.9-6.9 3.2-.3.2-.5.2-.7.3zm26.8-3.4c-.2 0-.4 0-.6-.1-2.4-.8-4.9-1.3-7.5-1.5-.8-.1-1.5-.8-1.4-1.6.1-.8.8-1.5 1.6-1.4 2.8.2 5.5.7 8.2 1.6.8.3 1.2 1.1.9 1.9-.1.7-.6 1.1-1.2 1.1z"/><path id="l" d="M779.6 2498.2c-.4 0-.7 0-1.1-.2l-10.1-4.1-9.1 6c-.7.5-1.7.5-2.4.1-.8-.4-1.2-1.3-1.1-2.1l.8-10.8-8.5-6.8c-.7-.5-1-1.4-.8-2.3.2-.9.8-1.5 1.7-1.7l10.5-2.6 3.8-10.2c.3-.8 1-1.4 1.9-1.5.9-.1 1.7.3 2.2 1.1l5.7 9.2 10.8.5c.9 0 1.6.6 2 1.4.4.8.2 1.7-.3 2.4l-7 8.3 2.9 10.5c.2.8 0 1.7-.7 2.3-.3.3-.8.5-1.2.5zm-28.5-19.4l7.7 6.1c.6.5.9 1.2.9 2l-.7 9.8 8.2-5.4c.6-.4 1.4-.5 2.1-.2l9.1 3.7-2.6-9.4c-.2-.7 0-1.5.5-2.1l6.3-7.5-9.8-.4a2 2 0 0 1-1.8-1.1l-5.2-8.3-3.4 9.2c-.3.7-.9 1.2-1.6 1.4z"/><path id="n" d="M776.3 2549.8v15.9c0 3-2.3 5.5-5.1 5.5h-90.3c-2.8 0-5.1-2.5-5.1-5.5v-16c0-3 2.3-5.5 5.1-5.5h28.8c1.4 0 2.1-.4 2-2-.1-2.9.1-5.9-.3-8.8-1.4-10.5-5-20.3-9-29.9-2.9-6.8-4.1-13.9-3.1-21.2 1.3-10.1 5.6-18.5 13.8-23.8 3-2 6.6-2.8 10-4.1h5.7c.2.1.4.3.6.3 7.2 1.2 12.9 5.1 16.9 11.5 7.6 11.7 8.3 24.1 3.2 37.2-2.7 6.9-5.1 13.8-7.3 20.9-1.7 5.5-2.7 11.2-2.4 17.1.2 2.8.3 2.8 2.7 2.8 7.6 0 21.3.1 28.8.1 2.7 0 5 2.5 5 5.5z"/><path id="p" d="M766.5 2582.3h-80.9c-1.9 0-3.5-1.6-3.5-3.5v-2.1c0-1.9 1.6-3.5 3.5-3.5h80.9c1.9 0 3.5 1.6 3.5 3.5v2.1c0 2-1.6 3.5-3.5 3.5z"/><path id="r" d="M741.1 2546.1h-30c-1.3 0-2.3-1-2.3-2.3v-1.4c0-1.3 1-2.3 2.3-2.3h30c1.3 0 2.3 1 2.3 2.3v1.4c-.1 1.2-1.1 2.3-2.3 2.3z"/><radialGradient id="a" cx="670.73" cy="2492.31" r="27.79" gradientUnits="userSpaceOnUse"><stop offset="0" stop-color="#0a6972"/><stop offset="1" stop-color="#16193f"/></radialGradient><radialGradient id="c" cx="670.73" cy="2510.81" r="27.79" gradientUnits="userSpaceOnUse"><stop offset="0" stop-color="#0a6972"/><stop offset="1" stop-color="#16193f"/></radialGradient><radialGradient id="e" cx="670.73" cy="2529.31" r="27.79" gradientUnits="userSpaceOnUse"><stop offset="0" stop-color="#0a6972"/><stop offset="1" stop-color="#16193f"/></radialGradient><radialGradient id="g" cx="766.42" cy="2481.3" r="45.99" gradientUnits="userSpaceOnUse"><stop offset="0" stop-color="#0a6972"/><stop offset="1" stop-color="#16193f"/></radialGradient><linearGradient id="i" x1="735" x2="797.73" y1="2491.35" y2="2471.36" gradientUnits="userSpaceOnUse"><stop offset="0" stop-color="#0a6972"/><stop offset="1" stop-color="#16193f"/></linearGradient><linearGradient id="k" x1="747.63" x2="786.56" y1="2482.6" y2="2478.73" gradientUnits="userSpaceOnUse"><stop offset="0" stop-color="#0a6972"/><stop offset="1" stop-color="#16193f"/></linearGradient><radialGradient id="m" cx="726.05" cy="2512.75" r="52.19" gradientUnits="userSpaceOnUse"><stop offset="0" stop-color="#0a6972"/><stop offset="1" stop-color="#16193f"/></radialGradient><radialGradient id="o" cx="726.05" cy="2577.81" r="31.22" gradientUnits="userSpaceOnUse"><stop offset="0" stop-color="#0a6972"/><stop offset="1" stop-color="#16193f"/></radialGradient><radialGradient id="q" cx="725.49" cy="2545.39" r="24.84" gradientUnits="userSpaceOnUse"><stop offset="0" stop-color="#0a6972"/><stop offset="1" stop-color="#16193f"/></radialGradient></defs><use fill="url(#a)" xlink:href="#b" transform="translate(-631 -2409)"/><use fill="url(#c)" xlink:href="#d" transform="translate(-631 -2409)"/><use fill="url(#e)" xlink:href="#f" transform="translate(-631 -2409)"/><use fill="url(#g)" xlink:href="#h" transform="translate(-631 -2409)"/><use fill="url(#i)" xlink:href="#j" transform="translate(-631 -2409)"/><use fill="url(#k)" xlink:href="#l" transform="translate(-631 -2409)"/><g transform="translate(-631 -2409)"><use fill="url(#m)" xlink:href="#n"/><use fill="url(#o)" xlink:href="#p"/><use fill="url(#q)" xlink:href="#r"/></g></svg>