<svg width="86" height="18" viewBox="0 0 86 18" xmlns="http://www.w3.org/2000/svg"><title>Shape</title><path d="M30.452 18c5.055 0 9.152-3.921 9.152-9 0-5.079-4.097-9-9.152-9-5.054 0-9.151 3.921-9.151 9 0 5.079 4.097 9 9.151 9zM61.954.544v8.688c0 4.842-3.907 8.768-8.726 8.768-4.82 0-8.727-3.926-8.727-8.768V.544h5.29V9.42c0 1.907 1.539 3.379 3.437 3.379s3.437-1.471 3.437-3.379V.544h5.29zm14.208 4.154L79.376.524H86L79.474 9 86 17.476h-6.624l-3.214-4.174-3.214 4.174h-6.624L72.85 9 66.324.524h6.624l3.214 4.174zM16.19.527v5.574l-8.92 6.782h8.92v4.59H0V11.9l9.122-6.781H0V.527h16.19zm14.262 12.27c2.117 0 3.907-1.67 3.907-3.797 0-2.127-1.79-3.796-3.907-3.796-2.116 0-3.907 1.67-3.907 3.796 0 2.127 1.79 3.796 3.907 3.796z" fill="#FFF" fill-rule="evenodd"/></svg>