<svg width="170" height="36" viewBox="0 0 170 36" xmlns="http://www.w3.org/2000/svg"><title>Shape</title><path d="M60.259 35.382c9.982 0 18.075-7.708 18.075-17.69C78.334 7.707 70.24 0 60.259 0c-9.983 0-18.076 7.708-18.076 17.691 0 9.983 8.093 17.691 18.076 17.691zM122.478 1.07v17.076c0 9.519-7.717 17.236-17.236 17.236-9.519 0-17.235-7.717-17.235-17.236V1.07h10.447v17.445c0 3.748 3.04 6.641 6.788 6.641 3.75 0 6.789-2.892 6.789-6.64V1.07h10.447zm28.062 8.165l6.347-8.205h13.084l-12.89 16.661 12.89 16.661h-13.084l-6.347-8.205-6.347 8.205h-13.084L144 17.691 131.108 1.03h13.084l6.347 8.205zm-118.452-8.2v10.958l-17.617 13.33h17.617v9.023H.112V23.39l18.017-13.33H.112V1.036h31.976zm28.17 24.118c4.18 0 7.717-3.281 7.717-7.462 0-4.18-3.536-7.462-7.717-7.462-4.18 0-7.717 3.282-7.717 7.462s3.537 7.462 7.717 7.462z" fill-rule="evenodd"/></svg>