<svg width="1383" height="288" viewBox="0 0 1383 288" xmlns="http://www.w3.org/2000/svg"><title>Shape</title><path d="M489.719 288c81.28 0 147.169-62.743 147.169-144 0-81.256-65.89-144-147.17-144-81.28 0-147.17 62.744-147.17 144 0 81.257 65.89 144 147.17 144zM996.309 8.707v139C996.308 225.182 933.48 288 855.975 288c-77.504 0-140.333-62.811-140.333-140.293v-139h85.062v142.002c0 30.504 24.746 54.054 55.271 54.054 30.526 0 55.272-23.538 55.272-54.054l-.001-142.002h85.061zm228.484 66.46l51.68-66.787H1383L1278.056 144 1383 279.619h-106.528l-51.68-66.788-51.68 66.788h-106.527l104.944-135.62L1066.584 8.38h106.528l51.68 66.788zM260.353 8.432v89.187L116.917 206.12h143.436v73.448H0v-89.187l146.702-108.5H0V8.432h260.353zM489.717 204.74c34.037 0 62.831-26.711 62.831-60.74 0-34.027-28.794-60.74-62.831-60.74-34.038 0-62.832 26.713-62.832 60.74 0 34.029 28.794 60.74 62.832 60.74z" fill-rule="evenodd" opacity=".02"/></svg>