<svg width="14" height="13" viewBox="0 0 14 13" xmlns="http://www.w3.org/2000/svg"><title>Shape</title><defs><radialGradient cy="100%" fx="50%" fy="100%" r="142.05%" gradientTransform="scale(.92857 1) rotate(63.626 .52 1.031)" id="a"><stop stop-color="#0A6972" offset="0%"/><stop stop-color="#16193F" offset="100%"/></radialGradient></defs><path d="M60.983 39.94c-.046-.14-.198-.268-.448-.283l-4.46-.29-1.66-4.04C54.322 35.1 54.15 35 54 35c-.15 0-.323.1-.414.328l-1.662 4.039-4.46.29c-.25.015-.4.144-.447.283-.047.139-.002.33.192.485l3.432 2.786-1.094 4.22c-.063.235.016.415.137.501.122.086.322.104.533-.028L54 45.587l3.783 2.318c.211.13.411.113.533.027.121-.086.2-.266.137-.502l-1.094-4.218 3.432-2.787c.194-.155.239-.346.192-.485z" transform="translate(-47 -35)" fill="url(#a)"/></svg>