<svg xmlns="http://www.w3.org/2000/svg" xmlns:xlink="http://www.w3.org/1999/xlink" width="62" height="62" viewBox="0 0 62 62"><defs><path id="b" d="M289 777a31 31 0 1 1 62 0 31 31 0 0 1-62 0z"/><path id="c" d="M340.72 774.15a.83.83 0 0 0-.46-1.42l-11.67-1.7a.83.83 0 0 1-.63-.45L322.74 760a.83.83 0 0 0-1.49 0l-5.22 10.58a.83.83 0 0 1-.63.45l-11.67 1.7a.83.83 0 0 0-.46 1.42l8.45 8.23c.2.2.28.47.24.74l-2 11.62a.83.83 0 0 0 1.21.88l10.44-5.49a.84.84 0 0 1 .78 0l10.43 5.5a.83.83 0 0 0 1.21-.89l-2-11.62a.83.83 0 0 1 .25-.74z"/><path id="d" d="M338.56 772.1a.82.82 0 0 0-.45-1.4l-11.46-1.66a.82.82 0 0 1-.62-.45l-5.12-10.38a.82.82 0 0 0-1.47 0l-5.12 10.38a.82.82 0 0 1-.62.45l-11.46 1.66a.82.82 0 0 0-.45 1.4l8.29 8.08c.2.19.28.46.24.72l-1.96 11.42a.82.82 0 0 0 1.19.86l10.24-5.39a.82.82 0 0 1 .77 0l10.24 5.39c.6.32 1.3-.2 1.2-.86l-1.97-11.42a.82.82 0 0 1 .24-.72z"/><radialGradient id="a" cx="326.99" cy="765.22" r="40.96" gradientUnits="userSpaceOnUse"><stop offset="0" stop-color="#0a6972"/><stop offset="1" stop-color="#16193f"/></radialGradient></defs><use fill="url(#a)" xlink:href="#b" transform="translate(-289 -746)"/><use fill="#003" xlink:href="#c" transform="translate(-289 -746)"/><use fill="#fff" xlink:href="#d" transform="translate(-289 -746)"/></svg>