<svg xmlns="http://www.w3.org/2000/svg" xmlns:xlink="http://www.w3.org/1999/xlink" width="62" height="62" viewBox="0 0 62 62"><defs><path id="b" d="M1089 777a31 31 0 1 1 62 0 31 31 0 0 1-62 0z"/><path id="c" d="M1139.63 761.36l-6.35 5.5-.34-.08-11.1-1.85c-.85-.14-1.71.1-2.37.66l-17.45 14.75a2.91 2.91 0 0 0-.32 4.11l11.07 13a2.91 2.91 0 0 0 4.1.33l17.46-14.77a2.91 2.91 0 0 0 1.03-2.21l.02-11.14c0-.24-.04-.46-.1-.68l6.26-5.42a1.46 1.46 0 1 0-1.9-2.2z"/><path id="d" d="M1123.04 773.89a3.74 3.74 0 0 1 4.49-5.78l-2.07 1.8a1.46 1.46 0 1 0 1.91 2.2l2.07-1.8a3.74 3.74 0 0 1-6.4 3.58zm14.6-14.53l-6.36 5.5-.34-.08-11.1-1.85c-.85-.14-1.71.1-2.37.66l-17.45 14.75a2.91 2.91 0 0 0-.32 4.11l11.07 13a2.91 2.91 0 0 0 4.1.33l17.46-14.77a2.91 2.91 0 0 0 1.03-2.21l.02-11.14c0-.24-.04-.46-.1-.68l6.26-5.42a1.46 1.46 0 1 0-1.9-2.2z"/><radialGradient id="a" cx="1126.99" cy="765.22" r="40.96" gradientUnits="userSpaceOnUse"><stop offset="0" stop-color="#0a6972"/><stop offset="1" stop-color="#16193f"/></radialGradient></defs><use fill="url(#a)" xlink:href="#b" transform="translate(-1089 -746)"/><use fill="#003" xlink:href="#c" transform="translate(-1089 -746)"/><use fill="#fff" xlink:href="#d" transform="translate(-1089 -746)"/></svg>