<svg width="311" height="125" viewBox="0 0 311 125" xmlns="http://www.w3.org/2000/svg" xmlns:xlink="http://www.w3.org/1999/xlink"><title>Group 6</title><defs><circle id="b" cx="45" cy="45" r="45"/><filter x="-16.7%" y="-17.8%" width="140%" height="140%" filterUnits="objectBoundingBox" id="a"><feMorphology radius="1.5" operator="dilate" in="SourceAlpha" result="shadowSpreadOuter1"/><feOffset dx="3" dy="2" in="shadowSpreadOuter1" result="shadowOffsetOuter1"/><feGaussianBlur stdDeviation="4" in="shadowOffsetOuter1" result="shadowBlurOuter1"/><feColorMatrix values="0 0 0 0 0 0 0 0 0 0 0 0 0 0 0 0 0 0 0.03 0" in="shadowBlurOuter1"/></filter><circle id="d" cx="36" cy="36" r="36"/><filter x="-20.8%" y="-22.2%" width="150%" height="150%" filterUnits="objectBoundingBox" id="c"><feMorphology radius="1.5" operator="dilate" in="SourceAlpha" result="shadowSpreadOuter1"/><feOffset dx="3" dy="2" in="shadowSpreadOuter1" result="shadowOffsetOuter1"/><feGaussianBlur stdDeviation="4" in="shadowOffsetOuter1" result="shadowBlurOuter1"/><feColorMatrix values="0 0 0 0 0 0 0 0 0 0 0 0 0 0 0 0 0 0 0.03 0" in="shadowBlurOuter1"/></filter><circle id="f" cx="19.5" cy="19.5" r="19.5"/><filter x="-38.5%" y="-41%" width="192.3%" height="192.3%" filterUnits="objectBoundingBox" id="e"><feMorphology radius="1.5" operator="dilate" in="SourceAlpha" result="shadowSpreadOuter1"/><feOffset dx="3" dy="2" in="shadowSpreadOuter1" result="shadowOffsetOuter1"/><feGaussianBlur stdDeviation="4" in="shadowOffsetOuter1" result="shadowBlurOuter1"/><feColorMatrix values="0 0 0 0 0 0 0 0 0 0 0 0 0 0 0 0 0 0 0.03 0" in="shadowBlurOuter1"/></filter><circle id="h" cx="14.5" cy="14.5" r="14.5"/><filter x="-51.7%" y="-55.2%" width="224.1%" height="224.1%" filterUnits="objectBoundingBox" id="g"><feMorphology radius="1.5" operator="dilate" in="SourceAlpha" result="shadowSpreadOuter1"/><feOffset dx="3" dy="2" in="shadowSpreadOuter1" result="shadowOffsetOuter1"/><feGaussianBlur stdDeviation="4" in="shadowOffsetOuter1" result="shadowBlurOuter1"/><feColorMatrix values="0 0 0 0 0 0 0 0 0 0 0 0 0 0 0 0 0 0 0.03 0" in="shadowBlurOuter1"/></filter><circle id="j" cx="8.5" cy="8.5" r="8.5"/><filter x="-88.2%" y="-94.1%" width="311.8%" height="311.8%" filterUnits="objectBoundingBox" id="i"><feMorphology radius="1.5" operator="dilate" in="SourceAlpha" result="shadowSpreadOuter1"/><feOffset dx="3" dy="2" in="shadowSpreadOuter1" result="shadowOffsetOuter1"/><feGaussianBlur stdDeviation="4" in="shadowOffsetOuter1" result="shadowBlurOuter1"/><feColorMatrix values="0 0 0 0 0 0 0 0 0 0 0 0 0 0 0 0 0 0 0.03 0" in="shadowBlurOuter1"/></filter></defs><g fill="none" fill-rule="evenodd"><g transform="translate(207 19)"><use fill="#000" filter="url(#a)" xlink:href="#b"/><use fill="#F45264" xlink:href="#b"/></g><path d="M252.225 90.47c18.38-10.84 27.57-21.828 27.57-32.962-.876-12.306-10.91-16.992-20.13-13.624-3.21 1.172-5.69 3.955-7.44 8.35-2.334-4.688-4.96-7.471-7.877-8.35-9.627-3.516-20.567 3.516-20.13 13.624.521 12.028 9.857 23.016 28.007 32.963z" fill="#FFF"/><g transform="translate(116 40)"><use fill="#000" filter="url(#c)" xlink:href="#d"/><use fill="#F45264" xlink:href="#d"/></g><path d="M152.186 97.393c14.751-8.663 22.127-17.443 22.127-26.341-.703-9.834-8.756-13.579-16.156-10.888-2.576.937-4.566 3.161-5.971 6.673-1.873-3.746-3.98-5.97-6.322-6.673-7.727-2.81-16.507 2.81-16.156 10.888.418 9.612 7.91 18.393 22.478 26.341z" fill="#FFF"/><g transform="translate(88 9)"><use fill="#000" filter="url(#e)" xlink:href="#f"/><use fill="#F45264" xlink:href="#f"/></g><path d="M107.6 40.088c7.99-4.693 11.986-9.449 11.986-14.268-.38-5.327-4.743-7.355-8.751-5.898-1.395.508-2.473 1.712-3.234 3.615-1.015-2.03-2.156-3.234-3.425-3.615-4.185-1.522-8.941 1.522-8.751 5.898.226 5.206 4.285 9.962 12.176 14.268z" fill="#FFF"/><g transform="translate(49 61)"><use fill="#000" filter="url(#g)" xlink:href="#h"/><use fill="#F45264" xlink:href="#h"/></g><path d="M63.575 84.117c5.941-3.49 8.912-7.026 8.912-10.61-.283-3.96-3.527-5.47-6.507-4.385-1.038.377-1.84 1.273-2.405 2.687-.755-1.508-1.603-2.404-2.546-2.687-3.113-1.132-6.65 1.131-6.508 4.385.169 3.872 3.186 7.408 9.054 10.61z" fill="#FFF"/><g transform="translate(8 40)"><use fill="#000" filter="url(#i)" xlink:href="#j"/><use fill="#F45264" xlink:href="#j"/></g><path d="M16.544 53.551c3.483-2.045 5.224-4.118 5.224-6.22-.166-2.321-2.067-3.205-3.814-2.57-.609.221-1.078.746-1.41 1.576-.442-.885-.94-1.41-1.493-1.576-1.824-.663-3.897.663-3.814 2.57.098 2.27 1.867 4.343 5.307 6.22z" fill="#FFF"/></g></svg>