<svg width="62" height="63" viewBox="0 0 62 63" xmlns="http://www.w3.org/2000/svg"><title>Group 20</title><defs><radialGradient cx="50.933%" cy="28.256%" fx="50.933%" fy="28.256%" r="90.705%" id="a"><stop stop-color="#0A6972" offset="0%"/><stop stop-color="#16193F" offset="100%"/></radialGradient></defs><g fill="none"><circle fill="url(#a)" cx="30.955" cy="31.272" r="30.788"/><path d="M39.99 27.764a7.561 7.561 0 1 0-7.168-5.172l-10.978 6.14a6.646 6.646 0 1 0-.756 9.655l10.66 7.153a6.094 6.094 0 1 0 1.513-2.624l-10.29-6.91a6.563 6.563 0 0 0 .377-4.636l11.017-6.154a7.561 7.561 0 0 0 5.625 2.548z" fill="#082E3C"/><path d="M39.234 27.008a7.561 7.561 0 1 0-7.168-5.172l-10.978 6.14a6.646 6.646 0 1 0-.757 9.655l10.661 7.153a6.094 6.094 0 1 0 1.513-2.624l-10.29-6.91a6.563 6.563 0 0 0 .377-4.636L33.61 24.46a7.561 7.561 0 0 0 5.625 2.548z" fill="#FFF"/></g></svg>