<svg width="62" height="62" viewBox="0 0 62 62" xmlns="http://www.w3.org/2000/svg"><title>Group 23</title><defs><radialGradient cx="50.933%" cy="28.256%" fx="50.933%" fy="28.256%" r="90.705%" id="a"><stop stop-color="#0A6972" offset="0%"/><stop stop-color="#16193F" offset="100%"/></radialGradient></defs><g fill="none" fill-rule="evenodd"><circle fill="url(#a)" fill-rule="nonzero" cx="30.955" cy="31.023" r="30.788"/><g fill-rule="nonzero" fill="#082E3C"><path d="M47.838 15.802h-31.12c-.836 0-1.513.677-1.513 1.513v31.128c0 .835.677 1.512 1.512 1.512h31.129c.835 0 1.512-.677 1.512-1.512V17.315a1.512 1.512 0 0 0-1.52-1.513zm-1.512 3.025v20.331l-5.943-5.035a1.134 1.134 0 0 0-1.308-.114l-5.716 3.335-6.14-6.624a1.134 1.134 0 0 0-1.512-.204l-7.44 6.7v-18.39h28.06zM18.222 46.93v-6.91l8.657-6.276 5.293 6.54c.352.434.969.546 1.452.265l5.86-3.418 6.804 5.761v4.038H18.222z"/><path d="M37.049 29.775a3.864 3.864 0 1 0-3.864-3.864 3.871 3.871 0 0 0 3.864 3.864zm0-5.459a1.595 1.595 0 1 1 0 3.19 1.595 1.595 0 0 1 0-3.19z"/></g><path stroke="#FFF" stroke-width="4" stroke-linejoin="round" d="M15.961 16.559H47.09v31.129H15.961z"/><path stroke="#FFF" stroke-width="3" fill="#FFF" fill-rule="nonzero" stroke-linejoin="round" d="M15.697 39.355l9.882-7.916 6.76 7.371 6.555-3.825 8.06 6.827v5.368H15.697z"/><circle stroke="#FFF" stroke-width="3" stroke-linejoin="round" cx="36.3" cy="25.155" r="2.73"/></g></svg>