<svg width="283" height="102" viewBox="0 0 283 102" xmlns="http://www.w3.org/2000/svg"><title>Group 8</title><g fill="none" fill-rule="evenodd"><g transform="translate(0 10)"><ellipse fill="#629AEE" cx="44" cy="44.5" rx="44" ry="44.5"/><path d="M35.848 36.835l2.09-3.009a9 9 0 0 1 .976-1.178l2.705-2.75a7 7 0 0 0 1.993-4.418l.24-3.418c.562-1.142 1.545-1.713 2.949-1.713.834-.065 1.676.363 2.527 1.285a8.61 8.61 0 0 1 1.264 3.426c.375 2.668.421 2.997 0 5.566-.429 1.745-1.271 3.458-2.527 5.139h13.059c1.685 0 2.527 1.712 2.527 3.425 0 1.142-.561 2.141-1.685 2.998 1.477 1.095 2.18 2.237 2.107 3.425-.074 1.188-.916 2.33-2.528 3.426.842.57 1.264 1.427 1.264 2.57 0 1.141-.702 2.283-2.107 3.425.913.927 1.334 1.926 1.264 2.997-.07 1.071-.772 2.07-2.106 2.998H37.32a4 4 0 0 1-4-4V44.906c0-2.885.882-5.701 2.528-8.07z" fill="#FFF"/><rect fill="#FFF" x="21.359" y="39.838" width="10.252" height="24.581" rx="4"/></g><g transform="translate(105 30)"><ellipse fill="#629AEE" cx="35.5" cy="36" rx="35.5" ry="36"/><path d="M29.131 29.485l1.64-2.326a9 9 0 0 1 .988-1.174l1.78-1.781a7 7 0 0 0 2.03-4.449l.161-2.265c.463-.927 1.274-1.39 2.431-1.39.688-.054 1.382.294 2.084 1.042.553.866.9 1.793 1.042 2.782.31 2.167.347 2.434 0 4.52-.354 1.416-1.048 2.807-2.084 4.172H49.97c1.39 0 2.084 1.39 2.084 2.781 0 .928-.463 1.739-1.389 2.434 1.218.89 1.797 1.817 1.737 2.782-.06.964-.755 1.891-2.084 2.781.694.464 1.042 1.16 1.042 2.086 0 .928-.58 1.855-1.737 2.782.753.753 1.1 1.564 1.042 2.434-.058.87-.637 1.68-1.736 2.433h-17.88a4 4 0 0 1-4-4v-9.072c0-2.353.727-4.649 2.083-6.572z" fill="#FFF"/><rect fill="#FFF" x="16.905" y="32.188" width="8.452" height="19.482" rx="4"/></g><g transform="translate(168)"><ellipse fill="#629AEE" cx="19.5" cy="20" rx="19.5" ry="20"/><path d="M16.376 16.951l.693-1.04a9 9 0 0 1 .944-1.189l.592-.628a4.53 4.53 0 0 0 1.224-2.804l.077-1.137c.247-.526.681-.788 1.3-.788.368-.03.74.167 1.115.59.296.491.482 1.017.557 1.577.166 1.228.186 1.38 0 2.562-.189.803-.56 1.591-1.114 2.365h5.76c.742 0 1.114.788 1.114 1.576 0 .526-.248.985-.743 1.38.651.504.961 1.03.929 1.576-.032.547-.404 1.072-1.115 1.577.372.262.557.656.557 1.182 0 .525-.31 1.05-.929 1.576.403.427.589.887.558 1.38-.031.493-.34.952-.93 1.38h-7.704a4 4 0 0 1-4-4v-3.448c0-1.312.388-2.594 1.115-3.687z" fill="#FFF"/><rect fill="#FFF" x="9.326" y="17.872" width="4.239" height="11.064" rx="2.12"/></g><g transform="translate(213 52)"><ellipse fill="#629AEE" cx="14" cy="14.5" rx="14" ry="14.5"/><path d="M11.797 12.355l.368-.585a9 9 0 0 1 .898-1.196l.268-.301a3.347 3.347 0 0 0 .84-2.013l.055-.86c.17-.383.469-.574.895-.574.253-.022.509.121.767.43.204.358.331.741.383 1.15.114.895.128 1.005 0 1.867a5.026 5.026 0 0 1-.767 1.723h3.963c.512 0 .767.575.767 1.15 0 .382-.17.718-.511 1.005.448.367.661.75.64 1.149-.023.398-.279.781-.768 1.149.256.191.384.479.384.862s-.213.766-.64 1.149c.277.31.405.646.384 1.005-.021.36-.234.695-.64 1.006h-4.606a3.447 3.447 0 0 1-3.447-3.448v-2.005c0-.942.266-1.865.767-2.663z" fill="#FFF"/><rect fill="#FFF" x="6.788" y="12.794" width="3.394" height="7.676" rx="1.697"/></g><g transform="translate(266 25)"><ellipse fill="#629AEE" cx="8.5" cy="8.831" rx="8.5" ry="8.831"/><path d="M7.163 7.525l.093-.149c.248-.396.528-.77.838-1.12a2.04 2.04 0 0 0 .51-1.225l.033-.524a.55.55 0 0 1 .544-.35c.153-.013.308.074.465.263.124.217.202.45.233.7.07.545.078.612 0 1.137a3.066 3.066 0 0 1-.466 1.05h2.406c.31 0 .466.35.466.7 0 .232-.103.437-.31.612.272.223.401.457.388.7-.014.242-.169.475-.466.7.155.116.233.29.233.524 0 .233-.13.467-.388.7.168.19.246.393.233.612-.013.219-.143.423-.388.613h-2.79a2.1 2.1 0 0 1-2.1-2.1V9.146c0-.573.161-1.135.466-1.62z" fill="#FFF"/><rect fill="#FFF" x="4.121" y="7.792" width="2.061" height="4.675" rx="1.03"/></g></g></svg>