<svg xmlns="http://www.w3.org/2000/svg" xmlns:xlink="http://www.w3.org/1999/xlink" width="181" height="178" viewBox="0 0 181 178"><defs><path id="hoiqa" d="M298.7 1991.5v-25.1h43.4v25.1z"/><path id="hoiqc" d="M292 1967.4v-12.6h57v12.6z"/><path id="hoiqe" d="M322.7 1856.8v51.1a7.24 7.24 0 0 1-2.2 14.1 7.24 7.24 0 1 1-2.2-14.1v-51.1l-39.6 72.6 18.6 25.4h46.1l18.8-25.4z"/><path id="hoiqg" d="M411.7 1846.1c0 2.9-2.4 5.3-5.3 5.3-2.6 0-4.7-1.9-5.2-4.3h-60.9c27.8 6.3 47.5 24.3 55.9 33.3h6.8v12.6h-12.4v-11.2c-11.2-11.1-36.4-31.8-70.1-31.8-35.9 0-62 23.4-71.9 33.8v9.2H236v-12.6h8.7c8.4-9.1 28-27 55.8-33.3h-58.97c.07-.28.07-.63.07-.9 0-.4 0-.7-.1-1 .1.3.1.7.1 1 0 .27 0 .55-.08.9h-.02c-.5 2.5-2.6 4.3-5.2 4.3-2.9 0-5.3-2.4-5.3-5.3s2.4-5.3 5.3-5.3c2.2 0 4.1 1.4 4.9 3.3h160.3c.8-1.9 2.7-3.3 4.9-3.3 2.9 0 5.3 2.4 5.3 5.3zm-172.1.1c0-1.8-1.5-3.3-3.3-3.3-1.8 0-3.3 1.5-3.3 3.3 0 1.8 1.5 3.3 3.3 3.3 1.8 0 3.3-1.5 3.3-3.3zm1.92.9zm5.08 43.9v-8.6H238v8.6zm145.8-8.6v8.6h8.6v-8.6zm8.8-35.3c-.1-.3-.1-.7-.1-1 0-.3 0-.7.1-1-.1.3-.1.6-.1 1s0 .7.1 1zm8.5-.9c0-1.8-1.5-3.3-3.3-3.3-1.8 0-3.3 1.5-3.3 3.3 0 1.8 1.5 3.3 3.3 3.3 1.8 0 3.3-1.5 3.3-3.3z"/><path id="hoiqi" d="M312.1 1838.5h16.7v16.7h-16.7z"/><radialGradient id="hoiqb" cx="307.8" cy="2013.39" r="60.72" gradientUnits="userSpaceOnUse"><stop offset="0" stop-color="#0a6972"/><stop offset="1" stop-color="#16193f"/></radialGradient><radialGradient id="hoiqd" cx="303.85" cy="1978.31" r="56.98" gradientUnits="userSpaceOnUse"><stop offset="0" stop-color="#0a6972"/><stop offset="1" stop-color="#16193f"/></radialGradient><radialGradient id="hoiqf" cx="296.1" cy="2040.39" r="133.87" gradientUnits="userSpaceOnUse"><stop offset="0" stop-color="#0a6972"/><stop offset="1" stop-color="#16193f"/></radialGradient><radialGradient id="hoiqh" cx="321.34" cy="1866.9" r="66.49" gradientUnits="userSpaceOnUse"><stop offset="0" stop-color="#0a6972"/><stop offset="1" stop-color="#16193f"/></radialGradient><radialGradient id="hoiqj" cx="331" cy="1923" r="79.23" gradientUnits="userSpaceOnUse"><stop offset="0" stop-color="#0a6972"/><stop offset="1" stop-color="#16193f"/></radialGradient></defs><g><g transform="translate(-231 -1815)"><g><g><g><use fill="url(#hoiqb)" xlink:href="#hoiqa"/></g><g><use fill="url(#hoiqd)" xlink:href="#hoiqc"/></g><g><use fill="url(#hoiqf)" xlink:href="#hoiqe"/></g></g><g><use fill="url(#hoiqh)" xlink:href="#hoiqg"/></g><g><use fill="url(#hoiqj)" xlink:href="#hoiqi"/></g></g></g></g></svg>