<svg xmlns="http://www.w3.org/2000/svg" xmlns:xlink="http://www.w3.org/1999/xlink" width="187" height="178" viewBox="0 0 187 178"><defs><path id="32wra" d="M1210.7 1929.7c-.4.7-.9 1.4-1.7 1.8l-6 3.2h6.9c.8 0 1.5.7 1.5 1.5v48.4c0 .8-.7 1.5-1.5 1.5h-102.6l-3.3 1.8c-1.9 1-4.4.3-5.4-1.6l-.1-.2h-22.1c-.8 0-1.5-.7-1.5-1.5v-48.4c0-.8.7-1.5 1.5-1.5h9.3l9.3-5h-18.6c-3.6 0-6.5 2.9-6.5 6.5v48.4c0 3.6 2.9 6.5 6.5 6.5H1210c3.6 0 6.5-2.9 6.5-6.5v-48.4c0-3.4-2.5-6.2-5.8-6.5z"/><path id="32wrc" d="M1074.1 1941.9l3.8-5.9-1.4.7a6.66 6.66 0 0 0-2.8 8.5c-.3-1.2-.2-2.3.4-3.3z"/><path id="32wre" d="M1212.8 1924.8l-22.5-41.9c-.8-1.5-2.2-2.6-3.9-3.1a6.7 6.7 0 0 0-5 .5l-.3.1c-.1.4-.2.8-.5 1.2l-4.6 7.3 7.7-4.1c.2-.1.5-.2.7-.2.1 0 .3 0 .4.1.4.1.7.4.9.7l22.5 41.9c.2.4.2.8.1 1.1-.1.4-.4.7-.7.9l-105 56.4c-.4.2-.8.2-1.1.1-.4-.1-.7-.4-.9-.7l-17.5-32.6-7.9-5c-.4-.2-.7-.5-.9-.9l21.9 40.9c.8 1.5 2.2 2.6 3.9 3.1a6.28 6.28 0 0 0 5-.5l105-56.4c1.5-.8 2.6-2.2 3.1-3.9.6-1.7.5-3.4-.4-5z"/><path id="32wrg" d="M1180.9 1873.9l-42-26.7c-3-1.9-7.1-1-9 2l-57.9 91.3c-1.9 3-1 7.1 2 9l16.6 10.5c.6-1.6 1.6-3 3-4l-17-10.8c-.7-.4-.9-1.4-.5-2.1l57.9-91.2c.3-.4.8-.7 1.3-.7.3 0 .6.1.8.2l42 26.7c.3.2.6.5.7.9.1.4 0 .8-.2 1.1l-57.9 91.2c-.4.7-1.4.9-2.1.5l-11.9-7.5c-.3 1.7-1.1 3.3-2.3 4.4l11.5 7.3c1.1.7 2.3 1 3.5 1 2.2 0 4.3-1.1 5.5-3l57.9-91.2c2-2.9 1.1-6.9-1.9-8.9z"/><path id="32wri" d="M1129.4 1851v133.7c0 3-2.5 5.5-5.5 5.5h-48.6c-3 0-5.5-2.5-5.5-5.5V1851c0-3 2.5-5.5 5.5-5.5h48.6c3 0 5.5 2.4 5.5 5.5zm-22.4 111.9c0-4.6-3.7-8.4-8.4-8.4-4.6 0-8.4 3.7-8.4 8.4 0 4.6 3.7 8.4 8.4 8.4 4.6 0 8.4-3.8 8.4-8.4z"/><path id="32wrk" d="M1099.6 1960.8a3.09 3.09 0 0 0-4.2 0c-.6.6-.9 1.3-.9 2.1s.3 1.6.9 2.1c.1.1.3.3.5.4.2.1.3.2.5.3.2.1.4.1.6.2.2 0 .4.1.6.1.2 0 .4 0 .6-.1.2 0 .4-.1.6-.2.2-.1.4-.2.5-.3.2-.1.3-.2.5-.4.6-.6.9-1.3.9-2.1-.2-.8-.5-1.5-1.1-2.1z"/><path id="32wrm" d="M1046.8 1985.8c-1.6-.5-3.2.5-3.7 2.1s.5 3.2 2.1 3.7c.3.1.5.1.8.1 1.3 0 2.5-.8 2.9-2.2.4-1.5-.5-3.2-2.1-3.7z"/><path id="32wro" d="M1054.3 1987.2c-1.6-.1-3.1 1.1-3.2 2.7-.1 1.7 1.1 3.1 2.7 3.2h.3c1.5 0 2.9-1.2 3-2.7.1-1.6-1.2-3.1-2.8-3.2z"/><path id="32wrq" d="M1052.9 1966.5c0-1.6-1.4-3-3.1-2.9-1.7 0-3 1.4-2.9 3.1 0 1.6 1.4 2.9 3 2.9 1.7-.1 3-1.4 3-3.1z"/><path id="32wrs" d="M1040.2 1982.9c-1.4-.9-3.2-.6-4.2.8s-.6 3.2.8 4.2c.5.4 1.1.5 1.7.5.9 0 1.9-.5 2.5-1.3.9-1.4.6-3.3-.8-4.2z"/><path id="32wru" d="M1032.7 1973.6c.6.4 1.2.7 1.9.7.9 0 1.7-.4 2.3-1.1a3 3 0 0 0-.5-4.2 3 3 0 0 0-4.2.5c-1 1.3-.8 3 .5 4.1z"/><path id="32wrw" d="M1044.6 1966.8a2.98 2.98 0 1 0-5.8 1.4c.3 1.4 1.6 2.3 2.9 2.3.2 0 .5 0 .7-.1 1.6-.4 2.6-2 2.2-3.6z"/><path id="32wry" d="M1036.4 1978.1a3.04 3.04 0 0 0-5.8 1.8 3 3 0 0 0 2.9 2.1c.3 0 .6 0 .9-.1 1.6-.5 2.5-2.2 2-3.8z"/><path id="32wrA" d="M1061 1967.2c.1-1.6-1.1-3.1-2.7-3.3-1.6-.1-3.1 1.1-3.3 2.7-.2 1.6 1.1 3.1 2.7 3.3h.3c1.6 0 2.9-1.2 3-2.7z"/><path id="32wrC" d="M1084 1980.7c-1.4.9-1.8 2.7-.9 4.1.6.9 1.5 1.4 2.5 1.4.5 0 1.1-.1 1.6-.5 1.4-.9 1.8-2.7.9-4.1-.9-1.4-2.7-1.8-4.1-.9z"/><path id="32wrE" d="M1089.6 1975.9c-1.1 1.2-1 3.1.3 4.2.6.5 1.3.8 2 .8.8 0 1.6-.3 2.2-1a3 3 0 0 0-.2-4.2c-1.3-1.1-3.2-1-4.3.2z"/><path id="32wrG" d="M1097.2 1968.2c-1.5-.6-3.3.2-3.9 1.8-.6 1.6.2 3.3 1.7 3.9.4.1.7.2 1.1.2 1.2 0 2.4-.7 2.8-1.9.6-1.7-.2-3.5-1.7-4z"/><path id="32wrI" d="M1077.2 1984c-1.5.6-2.3 2.3-1.7 3.9.5 1.2 1.6 1.9 2.8 1.9.4 0 .7-.1 1.1-.2 1.6-.6 2.3-2.3 1.7-3.9-.6-1.5-2.4-2.3-3.9-1.7z"/><path id="32wrK" d="M1062 1987.2c-1.7.1-2.9 1.5-2.8 3.2.1 1.6 1.4 2.8 3 2.8h.2c1.7-.1 2.9-1.5 2.8-3.2-.1-1.6-1.5-2.9-3.2-2.8z"/><path id="32wrM" d="M1069.8 1986.2c-1.6.3-2.7 1.9-2.3 3.6.3 1.4 1.6 2.4 2.9 2.4.2 0 .4 0 .6-.1a2.9 2.9 0 0 0 2.3-3.5c-.3-1.7-1.9-2.7-3.5-2.4z"/><path id="32wrO" d="M1069.2 1968c0-.2 0-.4-.1-.6 0-.2-.1-.4-.2-.6-.1-.2-.2-.4-.3-.5-.1-.2-.2-.3-.4-.5-.7-.7-1.7-1-2.7-.8-.2 0-.4.1-.6.2-.2.1-.4.2-.5.3-.2.1-.3.2-.5.4s-.3.3-.4.5c-.1.2-.2.3-.3.5-.1.2-.1.4-.2.6 0 .2-.1.4-.1.6 0 .8.3 1.6.9 2.1.1.1.3.3.5.4.2.1.3.2.5.3.2.1.4.1.6.2.2 0 .4.1.6.1.8 0 1.6-.3 2.1-.9.8-.7 1.1-1.5 1.1-2.3z"/><radialGradient id="32wrb" cx="1143.17" cy="1960.34" r="56.22" gradientUnits="userSpaceOnUse"><stop offset="0" stop-color="#0a6972"/><stop offset="1" stop-color="#16193f"/></radialGradient><radialGradient id="32wrd" cx="1075.48" cy="1940.51" r="3.65" gradientUnits="userSpaceOnUse"><stop offset="0" stop-color="#0a6972"/><stop offset="1" stop-color="#16193f"/></radialGradient><radialGradient id="32wrf" cx="1144.02" cy="1935.16" r="63.02" gradientUnits="userSpaceOnUse"><stop offset="0" stop-color="#0a6972"/><stop offset="1" stop-color="#16193f"/></radialGradient><radialGradient id="32wrh" cx="1127.45" cy="1911.72" r="61.12" gradientUnits="userSpaceOnUse"><stop offset="0" stop-color="#0a6972"/><stop offset="1" stop-color="#16193f"/></radialGradient><radialGradient id="32wrj" cx="1099.57" cy="1917.81" r="55.31" gradientUnits="userSpaceOnUse"><stop offset="0" stop-color="#0a6972"/><stop offset="1" stop-color="#16193f"/></radialGradient><linearGradient id="32wrl" x1="1089.02" x2="1033.77" y1="1965.66" y2="1983.43" gradientUnits="userSpaceOnUse"><stop offset="0" stop-color="#0a6972"/><stop offset="1" stop-color="#16193f"/></linearGradient><linearGradient id="32wrn" x1="1091.68" x2="1036.47" y1="1974.02" y2="1991.77" gradientUnits="userSpaceOnUse"><stop offset="0" stop-color="#0a6972"/><stop offset="1" stop-color="#16193f"/></linearGradient><linearGradient id="32wrp" x1="1092.87" x2="1037.63" y1="1977.66" y2="1995.43" gradientUnits="userSpaceOnUse"><stop offset="0" stop-color="#0a6972"/><stop offset="1" stop-color="#16193f"/></linearGradient><linearGradient id="32wrr" x1="1085.65" x2="1030.36" y1="1955.06" y2="1972.83" gradientUnits="userSpaceOnUse"><stop offset="0" stop-color="#0a6972"/><stop offset="1" stop-color="#16193f"/></linearGradient><linearGradient id="32wrt" x1="1090.06" x2="1034.78" y1="1968.81" y2="1986.55" gradientUnits="userSpaceOnUse"><stop offset="0" stop-color="#0a6972"/><stop offset="1" stop-color="#16193f"/></linearGradient><linearGradient id="32wrv" x1="1085.52" x2="1030.31" y1="1954.88" y2="1972.62" gradientUnits="userSpaceOnUse"><stop offset="0" stop-color="#0a6972"/><stop offset="1" stop-color="#16193f"/></linearGradient><linearGradient id="32wrx" x1="1085.14" x2="1029.86" y1="1953.49" y2="1971.25" gradientUnits="userSpaceOnUse"><stop offset="0" stop-color="#0a6972"/><stop offset="1" stop-color="#16193f"/></linearGradient><linearGradient id="32wrz" x1="1087.76" x2="1032.48" y1="1961.62" y2="1979.37" gradientUnits="userSpaceOnUse"><stop offset="0" stop-color="#0a6972"/><stop offset="1" stop-color="#16193f"/></linearGradient><linearGradient id="32wrB" x1="1086.51" x2="1031.22" y1="1957.75" y2="1975.52" gradientUnits="userSpaceOnUse"><stop offset="0" stop-color="#0a6972"/><stop offset="1" stop-color="#16193f"/></linearGradient><linearGradient id="32wrD" x1="1093.81" x2="1038.57" y1="1980.55" y2="1998.3" gradientUnits="userSpaceOnUse"><stop offset="0" stop-color="#0a6972"/><stop offset="1" stop-color="#16193f"/></linearGradient><linearGradient id="32wrF" x1="1092.86" x2="1037.63" y1="1977.6" y2="1995.37" gradientUnits="userSpaceOnUse"><stop offset="0" stop-color="#0a6972"/><stop offset="1" stop-color="#16193f"/></linearGradient><linearGradient id="32wrH" x1="1091.23" x2="1035.99" y1="1972.53" y2="1990.29" gradientUnits="userSpaceOnUse"><stop offset="0" stop-color="#0a6972"/><stop offset="1" stop-color="#16193f"/></linearGradient><linearGradient id="32wrJ" x1="1094.17" x2="1038.95" y1="1981.72" y2="1999.46" gradientUnits="userSpaceOnUse"><stop offset="0" stop-color="#0a6972"/><stop offset="1" stop-color="#16193f"/></linearGradient><linearGradient id="32wrL" x1="1093.66" x2="1038.42" y1="1980.13" y2="1997.89" gradientUnits="userSpaceOnUse"><stop offset="0" stop-color="#0a6972"/><stop offset="1" stop-color="#16193f"/></linearGradient><linearGradient id="32wrN" x1="1094.14" x2="1038.84" y1="1981.51" y2="1999.25" gradientUnits="userSpaceOnUse"><stop offset="0" stop-color="#0a6972"/><stop offset="1" stop-color="#16193f"/></linearGradient><linearGradient id="32wrP" x1="1087.58" x2="1032.33" y1="1961.15" y2="1978.9" gradientUnits="userSpaceOnUse"><stop offset="0" stop-color="#0a6972"/><stop offset="1" stop-color="#16193f"/></linearGradient></defs><g><g transform="translate(-1030 -1819)"><g><g><use fill="url(#32wrb)" xlink:href="#32wra"/></g><g><g><g><use fill="url(#32wrd)" xlink:href="#32wrc"/></g><g><use fill="url(#32wrf)" xlink:href="#32wre"/></g></g><g><use fill="url(#32wrh)" xlink:href="#32wrg"/></g></g><g><use fill="url(#32wrj)" xlink:href="#32wri"/></g><g><g><use fill="url(#32wrl)" xlink:href="#32wrk"/></g><g><use fill="url(#32wrn)" xlink:href="#32wrm"/></g><g><use fill="url(#32wrp)" xlink:href="#32wro"/></g><g><use fill="url(#32wrr)" xlink:href="#32wrq"/></g><g><use fill="url(#32wrt)" xlink:href="#32wrs"/></g><g><use fill="url(#32wrv)" xlink:href="#32wru"/></g><g><use fill="url(#32wrx)" xlink:href="#32wrw"/></g><g><use fill="url(#32wrz)" xlink:href="#32wry"/></g><g><use fill="url(#32wrB)" xlink:href="#32wrA"/></g><g><use fill="url(#32wrD)" xlink:href="#32wrC"/></g><g><use fill="url(#32wrF)" xlink:href="#32wrE"/></g><g><use fill="url(#32wrH)" xlink:href="#32wrG"/></g><g><use fill="url(#32wrJ)" xlink:href="#32wrI"/></g><g><use fill="url(#32wrL)" xlink:href="#32wrK"/></g><g><use fill="url(#32wrN)" xlink:href="#32wrM"/></g><g><use fill="url(#32wrP)" xlink:href="#32wrO"/></g></g></g></g></g></svg>