<svg xmlns="http://www.w3.org/2000/svg" xmlns:xlink="http://www.w3.org/1999/xlink" width="196" height="180" viewBox="0 0 196 180"><defs><path id="644pa" d="M661.7 1970.5h-2v8h2zm0-16h-2v8h2zm0-15.9h-2v8h2zm0-16h-2v8h2zm0-16h-2v8h2zm0-15.9h-2v8h2zm0-16h-2v8h2zm0-16h-2v8h2z"/><path id="644pc" d="M659.7 1990.5v-4h2v4z"/><path id="644pe" d="M784.5 1850.8v-4h2v4z"/><path id="644pg" d="M786.5 1978.5h-2v-8h2zm0-16h-2v-8h2zm0-15.9h-2v-8h2zm0-16h-2v-8h2zm0-16h-2v-8h2zm0-15.9h-2v-8h2zm0-16h-2v-8h2zm0-16h-2v-8h2z"/><path id="644pi" d="M784.5 1990.5v-4h2v4z"/><path id="644pk" d="M816.9 1847.1a4.9 4.9 0 1 1-9.82-.02 4.9 4.9 0 0 1 9.82.02zm-12.8 0c0 4.3 3.6 7.9 7.9 7.9 4.3 0 7.9-3.6 7.9-7.9 0-4.3-3.5-7.9-7.9-7.9s-7.9 3.6-7.9 7.9z"/><path id="644pm" d="M810.5 1854.9v133.2H639.6c.2.6.3 1.3.3 2 0 .3 0 .7-.1 1H812c.8 0 1.5-.7 1.5-1.5v-134.7c-.5.1-1 .1-1.5.1s-1 0-1.5-.1z"/><path id="644po" d="M634.2 1982.5v-133.9h170c-.1-.5-.1-1-.1-1.5s.1-1 .1-1.5H632.7c-.8 0-1.5.7-1.5 1.5v135.1h.7c.9 0 1.6.1 2.3.3z"/><path id="644pq" d="M636.9 1990.1a4.9 4.9 0 1 1-9.82-.02 4.9 4.9 0 0 1 9.82.02zm-12.8 0c0 4.3 3.6 7.9 7.9 7.9 4.3 0 7.9-3.6 7.9-7.9 0-4.3-3.5-7.9-7.9-7.9s-7.9 3.6-7.9 7.9z"/><path id="644ps" d="M787 1846.8v38.3h-3.8c-2.2-8.8-4.7-15.2-7.4-19.1-2.7-3.9-6.4-6.9-11.2-9.2-2.6-1.3-7.3-1.9-13.9-1.9h-10.6v109.3c0 7.2.4 11.8 1.2 13.6.8 1.8 2.4 3.4 4.7 4.8 2.3 1.4 5.5 2 9.6 2h4.7v3.9h-74.2v-3.9h4.7c4.1 0 7.4-.7 9.9-2.2 1.8-1 3.2-2.6 4.3-5 .8-1.7 1.1-6.1 1.1-13.2v-109.3H696c-9.5 0-16.5 2-20.8 6.1-6.1 5.6-9.9 13.7-11.5 24.1h-4v-38.3z"/><radialGradient id="644pb" cx="660.71" cy="1916.69" r="49.19" gradientUnits="userSpaceOnUse"><stop offset="0" stop-color="#0a6972"/><stop offset="1" stop-color="#16193f"/></radialGradient><radialGradient id="644pd" cx="660.71" cy="1918.62" r="50.83" gradientUnits="userSpaceOnUse"><stop offset="0" stop-color="#0a6972"/><stop offset="1" stop-color="#16193f"/></radialGradient><radialGradient id="644pf" cx="785.46" cy="1918.62" r="50.83" gradientUnits="userSpaceOnUse"><stop offset="0" stop-color="#0a6972"/><stop offset="1" stop-color="#16193f"/></radialGradient><radialGradient id="644ph" cx="785.46" cy="1916.69" r="49.19" gradientUnits="userSpaceOnUse"><stop offset="0" stop-color="#0a6972"/><stop offset="1" stop-color="#16193f"/></radialGradient><radialGradient id="644pj" cx="785.46" cy="1918.62" r="50.83" gradientUnits="userSpaceOnUse"><stop offset="0" stop-color="#0a6972"/><stop offset="1" stop-color="#16193f"/></radialGradient><radialGradient id="644pl" cx="811.98" cy="1847.12" r="7.94" gradientUnits="userSpaceOnUse"><stop offset="0" stop-color="#0a6972"/><stop offset="1" stop-color="#16193f"/></radialGradient><radialGradient id="644pn" cx="722.38" cy="1918.38" r="82.72" gradientUnits="userSpaceOnUse"><stop offset="0" stop-color="#0a6972"/><stop offset="1" stop-color="#16193f"/></radialGradient><radialGradient id="644pp" cx="722.38" cy="1918.38" r="82.72" gradientUnits="userSpaceOnUse"><stop offset="0" stop-color="#0a6972"/><stop offset="1" stop-color="#16193f"/></radialGradient><radialGradient id="644pr" cx="631.98" cy="1990.12" r="7.94" gradientUnits="userSpaceOnUse"><stop offset="0" stop-color="#0a6972"/><stop offset="1" stop-color="#16193f"/></radialGradient><radialGradient id="644pt" cx="723.34" cy="1917.6" r="67.34" gradientUnits="userSpaceOnUse"><stop offset="0" stop-color="#0a6972"/><stop offset="1" stop-color="#16193f"/></radialGradient></defs><g><g transform="translate(-624 -1818)"><g><g><g><use fill="url(#644pb)" xlink:href="#644pa"/></g><g><use fill="url(#644pd)" xlink:href="#644pc"/></g></g><g><g><use fill="url(#644pf)" xlink:href="#644pe"/></g><g><use fill="url(#644ph)" xlink:href="#644pg"/></g><g><use fill="url(#644pj)" xlink:href="#644pi"/></g></g><g><use fill="url(#644pl)" xlink:href="#644pk"/></g><g><g><g/><g><use fill="url(#644pn)" xlink:href="#644pm"/></g><g><use fill="url(#644pp)" xlink:href="#644po"/></g></g><g><use fill="url(#644pr)" xlink:href="#644pq"/></g></g><g><use fill="url(#644pt)" xlink:href="#644ps"/></g></g></g></g></svg>