<svg xmlns="http://www.w3.org/2000/svg" xmlns:xlink="http://www.w3.org/1999/xlink" width="177.96" height="178" viewBox="0 0 177.96 178"><defs><path id="wj77a" d="M1185.6 2443.3v135.1c0 2.2-1.8 4-4 4h-103.1v-2c0-.8-.7-1.5-1.5-1.5s-1.5.7-1.5 1.5v2h-9.8c-2.2 0-4-1.8-4-4v-135.1c0-2.2 1.8-4 4-4h10.2c-.2.2-.4.6-.4 1v8c0 .8.7 1.5 1.5 1.5s1.5-.7 1.5-1.5v-8c0-.4-.2-.7-.4-1h103.5c2.2 0 4 1.8 4 4zm-107.1 117c0-.8-.7-1.5-1.5-1.5s-1.5.7-1.5 1.5v8c0 .8.7 1.5 1.5 1.5s1.5-.7 1.5-1.5zm0-20c0-.8-.7-1.5-1.5-1.5s-1.5.7-1.5 1.5v8c0 .8.7 1.5 1.5 1.5s1.5-.7 1.5-1.5zm0-20c0-.8-.7-1.5-1.5-1.5s-1.5.7-1.5 1.5v8c0 .8.7 1.5 1.5 1.5s1.5-.7 1.5-1.5zm0-20c0-.8-.7-1.5-1.5-1.5s-1.5.7-1.5 1.5v8c0 .8.7 1.5 1.5 1.5s1.5-.7 1.5-1.5zm0-20c0-.8-.7-1.5-1.5-1.5s-1.5.7-1.5 1.5v8c0 .8.7 1.5 1.5 1.5s1.5-.7 1.5-1.5zm0-20c0-.8-.7-1.5-1.5-1.5s-1.5.7-1.5 1.5v8c0 .8.7 1.5 1.5 1.5s1.5-.7 1.5-1.5zm77.9 91.5c0-.8-.7-1.5-1.5-1.5h-52.3c-.8 0-1.5.7-1.5 1.5s.7 1.5 1.5 1.5h52.3c.8 0 1.5-.7 1.5-1.5z"/><path id="wj77c" d="M1155.1 2533h-52.9c-2.2 0-4-1.8-4-4v-52.9c0-2.2 1.8-4 4-4h52.9c2.2 0 4 1.8 4 4v52.9c0 2.2-1.7 4-4 4z"/><path id="wj77d" d="M1152.3 2496.3c.6-.6.3-1.7-.6-1.8l-14.7-2.1c-.3 0-.6-.3-.8-.6l-6.6-13.4c-.4-.8-1.5-.8-1.9 0l-6.6 13.4c-.2.3-.4.5-.8.6l-14.7 2.1c-.9.1-1.2 1.2-.6 1.8l10.7 10.4c.2.2.4.6.3.9l-2.5 14.7c-.1.9.8 1.5 1.5 1.1l13.2-6.9c.3-.2.7-.2 1 0l13.2 6.9c.8.4 1.7-.2 1.5-1.1l-2.5-14.7c-.1-.3.1-.7.3-.9z"/><radialGradient id="wj77b" cx="1123.63" cy="2510.84" r="72.5" gradientUnits="userSpaceOnUse"><stop offset="0" stop-color="#0a6972"/><stop offset="1" stop-color="#16193f"/></radialGradient><linearGradient id="wj77e" x1="1104.74" x2="1152.66" y1="2500.71" y2="2500.71" gradientUnits="userSpaceOnUse"><stop offset="0" stop-color="#0a6972"/><stop offset="1" stop-color="#16193f"/></linearGradient></defs><g><g transform="translate(-1035 -2411)"><g><g><use fill="url(#wj77b)" xlink:href="#wj77a"/></g><g><use fill="#fff" xlink:href="#wj77c"/></g><g><use fill="url(#wj77e)" xlink:href="#wj77d"/></g></g></g></g></svg>