<svg id="Layer_1" data-name="Layer 1" xmlns="http://www.w3.org/2000/svg" viewBox="0 0 39.92 39.92"><title>fb</title><g id="Page-1"><g id="INDEX-PAGE"><g id="HEADER"><g id="Social"><g id="if_facebook_313485" data-name="if facebook 313485"><path id="Shape" d="M22,17V14.74c0-1,.25-1.5,1.83-1.5h1.93V9.48H22.5c-4.05,0-5.34,1.8-5.34,5V17H14.41v3.84h2.76V32.19H22V20.84h3.36L25.81,17H22Z" transform="translate(-0.04 -0.04)" style="fill:#fff"/><path id="Shape-2" data-name="Shape" d="M20,0A20,20,0,1,0,40,20,20,20,0,0,0,20,0ZM33.23,33.23A18.71,18.71,0,0,1,6.77,6.77,18.71,18.71,0,0,1,33.23,33.23Z" transform="translate(-0.04 -0.04)" style="fill:#fff"/></g></g></g></g></g></svg>