<svg id="Layer_1" data-name="Layer 1" xmlns="http://www.w3.org/2000/svg" viewBox="0 0 39.92 39.92"><title>inst</title><g id="Page-1"><g id="INDEX-PAGE"><g id="HEADER"><g id="if_instagram_313477" data-name="if instagram 313477"><path id="Shape" d="M20,0A20,20,0,1,0,40,20,20,20,0,0,0,20,0ZM33.23,33.23A18.71,18.71,0,0,1,6.77,6.77,18.71,18.71,0,0,1,33.23,33.23Z" transform="translate(-0.04 -0.04)" style="fill:#fff"/><path id="Shape-2" data-name="Shape" d="M13.1,10.56h14a2.37,2.37,0,0,1,2.39,2.39V27a2.43,2.43,0,0,1-2.39,2.46h-14A2.48,2.48,0,0,1,10.65,27v-14a2.42,2.42,0,0,1,2.45-2.39h0Zm11.33,2.09a0.82,0.82,0,0,0-.84.82v2a0.81,0.81,0,0,0,.84.82h2.13a0.84,0.84,0,0,0,.87-0.82v-2a0.85,0.85,0,0,0-.87-0.82H24.43Zm3,5.85H25.76A5.51,5.51,0,0,1,26,20.12a5.87,5.87,0,0,1-11.73,0,5.49,5.49,0,0,1,.24-1.62H12.73v8a0.82,0.82,0,0,0,.79.78H26.67a0.79,0.79,0,0,0,.76-0.78v-8h0Zm-7.3-2.25a3.68,3.68,0,1,0,3.79,3.67A3.73,3.73,0,0,0,20.13,16.25Z" transform="translate(-0.04 -0.04)" style="fill:#fff"/></g></g></g></g></svg>