<?xml version="1.0" encoding="UTF-8"?>
<svg width="170px" height="36px" viewBox="0 0 170 36" version="1.1" xmlns="http://www.w3.org/2000/svg" xmlns:xlink="http://www.w3.org/1999/xlink">
    <!-- Generator: Sketch 47 (45396) - http://www.bohemiancoding.com/sketch -->
    <title>Shape</title>
    <desc>Created with Sketch.</desc>
    <defs></defs>
    <g id="Page-1" stroke="none" stroke-width="1" fill="none" fill-rule="evenodd">
        <g id="INDEX-PAGE" transform="translate(-70.000000, -75.000000)" fill="#FFFFFF">
            <g id="HEADER">
                <g id="Group-10" transform="translate(70.000000, 72.000000)">
                    <g id="ZOUX-LOGO" transform="translate(0.000000, 3.000000)">
                        <path d="M60.258625,35.3821447 C70.2413493,35.3821447 78.333875,27.6739197 78.333875,17.6910724 C78.333875,7.70834803 70.2413493,0 60.258625,0 C50.2757776,0 42.1832632,7.70834803 42.1832632,17.6910724 C42.1832632,27.6739197 50.2757888,35.3821447 60.258625,35.3821447 Z M122.47773,1.06965789 L122.47773,18.1464934 C122.47773,27.6646145 114.761207,35.3821447 105.242191,35.3821447 C95.7231862,35.3821447 88.0065395,27.665498 88.0065395,18.1464934 L88.0065395,1.06965789 L98.4538671,1.06965789 L98.4538671,18.5153487 C98.4538671,22.2628309 101.493076,25.1561303 105.242191,25.1561303 C108.991306,25.1561303 112.030637,22.2643408 112.030637,18.5153487 L112.030512,1.06965789 L122.477716,1.06965789 L122.47773,1.06965789 Z M150.540033,9.23469079 L156.887374,1.0295625 L169.970999,1.0295625 L157.081868,17.6910164 L169.970999,34.3524704 L156.887263,34.3524704 L150.540044,26.1473421 L144.192703,34.3524704 L131.109078,34.3524704 L143.998209,17.6910164 L131.108966,1.0295625 L144.192703,1.0295625 L150.540044,9.23469079 L150.540033,9.23469079 Z M32.0880592,1.03584803 L32.0880592,11.3483388 L32.0880592,11.9927753 L14.47125,25.3229003 L32.0880592,25.3229003 L32.0880592,34.3463884 L0.111618421,34.3463884 L0.111618421,24.0338976 L0.111618421,23.3893359 L18.1294934,10.0594346 L0.111618421,10.0594346 L0.111618421,1.03594645 L32.0880592,1.03594645 L32.0880592,1.03584803 Z M60.2584013,25.1531441 C64.4388132,25.1531441 67.9752941,21.8715178 67.9752941,17.6909829 C67.9752941,13.5105711 64.4388132,10.2288217 60.2584013,10.2288217 C56.0778664,10.2288217 52.5413743,13.5105711 52.5413743,17.6909829 C52.5413743,21.8715178 56.0778553,25.1531441 60.2584013,25.1531441 Z" id="Shape"></path>
                    </g>
                </g>
            </g>
        </g>
    </g>
</svg>