<svg id="Layer_1" data-name="Layer 1" xmlns="http://www.w3.org/2000/svg" viewBox="0 0 41.3 41.3"><title>page-footer__contacts-tel</title><g id="Page-1"><g id="INDEX-PAGE"><g id="Group-25"><g id="Group-13"><g id="if_Rounded-15_2024660" data-name="if Rounded-15 2024660"><path id="Shape" d="M1,21A20,20,0,1,0,21,1,20,20,0,0,0,1,21Z" transform="translate(-0.35 -0.35)" style="fill:none;stroke:#fff;stroke-width:1.2999999523162842px"/><g id="Phone"><path id="Shape-2" data-name="Shape" d="M22.21,25.27c0.63-.06,1.84-1.2,2.5-1.25a2.5,2.5,0,0,1,1.74.5l1.67,1.25,1,0.8a1.57,1.57,0,0,1,.27,2.26l-1.94,2.5a0.7,0.7,0,0,1-.62.27c-8.44-.76-15.15-7.66-15.15-16.05a15.63,15.63,0,0,1,.63-4.38,0.41,0.41,0,0,1,.31-0.28l3.69-.52a1.64,1.64,0,0,1,1.95,1.25l0.24,1.24,0.41,2a2.34,2.34,0,0,1-.33,1.74c-0.34.53-1.93,1-2.27,1.58h0a12.12,12.12,0,0,0,5.91,7.14v-0.1Z" transform="translate(-0.35 -0.35)" style="fill:#fff"/></g></g></g></g></g></g></svg>