<?xml version="1.0" encoding="UTF-8"?>
<svg width="14px" height="13px" viewBox="0 0 14 13" version="1.1" xmlns="http://www.w3.org/2000/svg" xmlns:xlink="http://www.w3.org/1999/xlink">
    <!-- Generator: Sketch 47 (45396) - http://www.bohemiancoding.com/sketch -->
    <title>Shape</title>
    <desc>Created with Sketch.</desc>
    <defs>
        <radialGradient cx="50%" cy="100%" fx="50%" fy="100%" r="142.049848%" gradientTransform="translate(0.500000,1.000000),scale(0.928571,1.000000),rotate(63.626338),translate(-0.500000,-1.000000)" id="radialGradient-1">
            <stop stop-color="#0A6972" offset="0%"></stop>
            <stop stop-color="#16193F" offset="100%"></stop>
        </radialGradient>
    </defs>
    <g id="Page-1" stroke="none" stroke-width="1" fill="none" fill-rule="evenodd">
        <g id="SMM-mob" transform="translate(-66.000000, -4778.000000)" fill-rule="nonzero" fill="url(#radialGradient-1)">
            <g id="Prices" transform="translate(18.000000, 4374.000000)">
                <g id="Group-16-Copy-4" transform="translate(1.000000, 369.000000)">
                    <g id="PERK-1">
                        <path d="M60.9830966,39.939761 C60.9366808,39.8005984 60.7853294,39.6718883 60.5350943,39.657183 L56.0759108,39.3669705 L54.4144658,35.3275138 C54.3227919,35.1003754 54.1502324,35 53.9999861,35 C53.8497398,35 53.6771802,35.1003754 53.5855063,35.3275138 L51.9240613,39.3669705 L47.4648779,39.657183 C47.2146428,39.6718883 47.0632914,39.8005984 47.0168755,39.939761 C46.9704597,40.0788724 47.0151915,40.269683 47.2086961,40.4247294 L50.6410475,43.211415 L49.5465915,47.4301537 C49.4835985,47.6663612 49.5626423,47.8464118 49.6841023,47.9323381 C49.805615,48.0182644 50.0058557,48.0357366 50.2171477,47.9044646 L54.0000913,45.5874785 L57.7828244,47.9045671 C57.9941165,48.035839 58.1943045,48.0183668 58.3158698,47.9324406 C58.4374351,47.8464631 58.5163736,47.6664125 58.4533807,47.4302561 L57.3589247,43.2115175 L60.7912234,40.4248319 C60.9848333,40.269683 61.0295651,40.0788211 60.9830966,39.939761 Z" id="Shape"></path>
                    </g>
                </g>
            </g>
        </g>
    </g>
</svg>