<svg xmlns="http://www.w3.org/2000/svg" xmlns:xlink="http://www.w3.org/1999/xlink" width="84" height="84" viewBox="0 0 84 84"><defs><path id="kjyma" d="M689 1344.91a30.91 30.91 0 1 1 61.82 0 30.91 30.91 0 0 1-61.82 0z"/><path id="kjyme" d="M739.21 1353.96A21 21 0 0 0 701 1366"/><path id="kjymf" d="M735 1353.98l4.98.44.44-4.98"/><path id="kjymg" d="M733 1332.98l4.98.44.44-4.98"/><path id="kjymh" d="M737.21 1332.96A21 21 0 0 0 699 1345"/><mask id="kjymc" width="2.1" height="2.1" x="-1.05" y="-1.05"><path fill="#fff" d="M686 1311h67.82v67.82H686z"/><use xlink:href="#kjyma"/></mask><filter id="kjymb" width="106.82" height="105.82" x="676" y="1301" filterUnits="userSpaceOnUse"><feOffset dx="3" dy="2" in="SourceGraphic" result="FeOffset1110Out"/><feGaussianBlur in="FeOffset1110Out" result="FeGaussianBlur1111Out" stdDeviation="3.2 3.2"/></filter><radialGradient id="kjymd" cx="720.49" cy="1331.47" r="56.07" gradientUnits="userSpaceOnUse"><stop offset="0" stop-color="#0a6972"/><stop offset="1" stop-color="#16193f"/></radialGradient></defs><g><g transform="translate(-681 -1305)"><g><g><g><g filter="url(#kjymb)"><use fill="none" stroke="#000" stroke-opacity=".03" stroke-width="6" mask="url(&quot;#kjymc&quot;)" xlink:href="#kjyma"/><use fill-opacity=".03" xlink:href="#kjyma"/></g><use fill="url(#kjymd)" xlink:href="#kjyma"/></g></g></g><g transform="rotate(180 720.6 1355.5)"><g><use fill="#fff" fill-opacity="0" stroke="#fff" stroke-linecap="round" stroke-miterlimit="50" stroke-width="2" xlink:href="#kjyme"/></g><g><use fill="#fff" fill-opacity="0" stroke="#fff" stroke-linecap="round" stroke-miterlimit="50" stroke-width="2" xlink:href="#kjymf"/></g></g><g><use fill="#fff" fill-opacity="0" stroke="#fff" stroke-linecap="round" stroke-miterlimit="50" stroke-width="2" xlink:href="#kjymg"/></g><g><use fill="#fff" fill-opacity="0" stroke="#fff" stroke-linecap="round" stroke-miterlimit="50" stroke-width="2" xlink:href="#kjymh"/></g></g></g></svg>