<svg xmlns="http://www.w3.org/2000/svg" xmlns:xlink="http://www.w3.org/1999/xlink" width="84" height="84" viewBox="0 0 84 84"><defs><path id="uphaa" d="M1089 1344.91a30.91 30.91 0 1 1 61.82 0 30.91 30.91 0 0 1-61.82 0z"/><path id="uphab" d="M1106 1335l14-11 14 11v31h-28z"/><path id="uphac" d="M1111 1342a1 1 0 0 1 1-1h16a1 1 0 0 1 1 1v18a1 1 0 0 1-1 1h-16a1 1 0 0 1-1-1z"/><path id="uphai" d="M1118 1333a2 2 0 1 1 4 0 2 2 0 0 1-4 0z"/><mask id="uphae" width="2.1" height="2.1" x="-1.05" y="-1.05"><path fill="#fff" d="M1086 1311h67.82v67.82H1086z"/><use xlink:href="#uphaa"/></mask><filter id="uphad" width="106.82" height="105.82" x="1076" y="1301" filterUnits="userSpaceOnUse"><feOffset dx="3" dy="2" in="SourceGraphic" result="FeOffset1059Out"/><feGaussianBlur in="FeOffset1059Out" result="FeGaussianBlur1060Out" stdDeviation="3.2 3.2"/></filter><radialGradient id="uphaf" cx="1120.49" cy="1331.47" r="56.07" gradientUnits="userSpaceOnUse"><stop offset="0" stop-color="#0a6972"/><stop offset="1" stop-color="#16193f"/></radialGradient><clipPath id="uphag"><use fill="#fff" xlink:href="#uphab"/></clipPath><clipPath id="uphah"><use fill="#fff" xlink:href="#uphac"/></clipPath></defs><g><g transform="translate(-1081 -1305)"><g><g filter="url(#uphad)"><use fill="none" stroke="#000" stroke-opacity=".03" stroke-width="6" mask="url(&quot;#uphae&quot;)" xlink:href="#uphaa"/><use fill-opacity=".03" xlink:href="#uphaa"/></g><use fill="url(#uphaf)" xlink:href="#uphaa"/></g><g transform="rotate(45 1120 1345.41)"><g><use fill="#fff" fill-opacity="0" stroke="#fff" stroke-miterlimit="50" stroke-width="4" clip-path="url(&quot;#uphag&quot;)" xlink:href="#uphab"/></g><g><use fill="#fff" xlink:href="#uphac"/><use fill="#fff" fill-opacity="0" stroke="#fff" stroke-miterlimit="50" stroke-width="4" clip-path="url(&quot;#uphah&quot;)" xlink:href="#uphac"/></g><g><use fill="#fff" fill-opacity="0" stroke="#fff" stroke-miterlimit="50" xlink:href="#uphai"/></g></g></g></g></svg>