<svg xmlns="http://www.w3.org/2000/svg" xmlns:xlink="http://www.w3.org/1999/xlink" width="63" height="63" viewBox="0 0 63 63"><defs><path id="jnr1a" d="M689.9 777.2a31 31 0 1 1 62 0 31 31 0 0 1-62 0z"/><path id="jnr1c" d="M741.2 772.6a3 3 0 0 1-.8 4.1l-7.2 5.1-24 16.9a2 2 0 0 1-2.8-.5l-4-5.7a2 2 0 0 1 .5-2.8l20.4-14.2 10.8-7.7a3 3 0 0 1 4.2.7zm-2.1 2.2a.5.5 0 0 0 .1-.7l-2.9-4.1a.5.5 0 0 0-.4-.2h-.3l-7.2 5.1 3.4 4.9 7.2-5.1z"/><path id="jnr1d" d="M728 764.4a7.7 7.7 0 0 1 5.3-5.4 7.3 7.3 0 0 1-5.3-5.4 16.8 16.8 0 0 1-2 3.4 16.9 16.9 0 0 1-3.4 2.1 7.3 7.3 0 0 1 5.4 5.3z"/><path id="jnr1e" d="M716.2 772.4a6.2 6.2 0 0 1 4.4-4.4 5.9 5.9 0 0 1-4.3-4.4 13.7 13.7 0 0 1-1.7 2.8 13.8 13.8 0 0 1-2.8 1.7 5.9 5.9 0 0 1 4.4 4.3z"/><path id="jnr1f" d="M738.4 774.7l-7.2 5.1-24 16.9a2 2 0 0 1-2.8-.5l-4-5.7a2 2 0 0 1 .5-2.8l20.4-14.2 10.8-7.7a3 3 0 0 1 4.2.7l2.9 4.1a3 3 0 0 1-.8 4.1zm-1.3-1.9a.5.5 0 0 0 .1-.7l-2.9-4.1a.5.5 0 0 0-.4-.2h-.3l-7.2 5.1 3.4 4.9 7.2-5.1z"/><path id="jnr1g" d="M726.1 751.6a7.3 7.3 0 0 0 5.2 5.4 7.7 7.7 0 0 0-5.3 5.4 7.3 7.3 0 0 0-5.4-5.3 16.9 16.9 0 0 0 3.4-2.1 16.8 16.8 0 0 0 2.1-3.4z"/><path id="jnr1h" d="M714.3 761.6a5.9 5.9 0 0 0 4.3 4.4 6.2 6.2 0 0 0-4.4 4.4 5.9 5.9 0 0 0-4.4-4.3c1-.45 1.94-1.02 2.8-1.7a13.7 13.7 0 0 0 1.7-2.8z"/><radialGradient id="jnr1b" cx="727.89" cy="765.42" r="40.96" gradientUnits="userSpaceOnUse"><stop offset="0" stop-color="#0a6972"/><stop offset="1" stop-color="#16193f"/></radialGradient></defs><g><g transform="translate(-689 -746)"><g><g><g><g><use fill="url(#jnr1b)" xlink:href="#jnr1a"/></g><g><g><use fill="#003" xlink:href="#jnr1c"/></g><g><use fill="#003" xlink:href="#jnr1d"/></g><g><use fill="#003" xlink:href="#jnr1e"/></g></g><g><use fill="#fff" xlink:href="#jnr1f"/></g><g><use fill="#fff" xlink:href="#jnr1g"/></g><g><use fill="#fff" xlink:href="#jnr1h"/></g></g></g></g></g></g></svg>