<?xml version="1.0" encoding="UTF-8"?>
<svg width="1383px" height="288px" viewBox="0 0 1383 288" version="1.1" xmlns="http://www.w3.org/2000/svg" xmlns:xlink="http://www.w3.org/1999/xlink">
    <!-- Generator: Sketch 47 (45396) - http://www.bohemiancoding.com/sketch -->
    <title>Shape</title>
    <desc>Created with Sketch.</desc>
    <defs></defs>
    <g id="Page-1" stroke="none" stroke-width="1" fill="none" fill-rule="evenodd" opacity="0.02">
        <g id="SEO-page-V2" transform="translate(-29.000000, -1340.000000)" fill="#000000">
            <g id="SERVICES" transform="translate(0.000000, 970.000000)">
                <path d="M518.71867,658 C599.998301,658 665.887879,595.25737 665.887879,514 C665.887879,432.743631 599.998301,370 518.71867,370 C437.438037,370 371.54855,432.743631 371.54855,514 C371.54855,595.25737 437.438129,658 518.71867,658 Z M1025.30843,378.706693 L1025.30843,517.70699 C1025.30843,595.181628 962.480268,658 884.976166,658 C807.472154,658 744.642993,595.18882 744.642993,517.70699 L744.642993,378.706693 L829.705438,378.706693 L829.705438,520.709361 C829.705438,551.212737 854.450762,574.763323 884.976166,574.763323 C915.50157,574.763323 940.247895,551.225027 940.247895,520.709361 L940.246872,378.706693 L1025.30831,378.706693 L1025.30843,378.706693 Z M1253.79251,445.167601 L1305.47275,378.380329 L1412,378.380329 L1307.05632,513.999545 L1412,649.618761 L1305.47184,649.618761 L1253.7926,582.831488 L1202.11236,649.618761 L1095.58511,649.618761 L1200.52879,513.999545 L1095.5842,378.380329 L1202.11236,378.380329 L1253.7926,445.167601 L1253.79251,445.167601 Z M289.353107,378.431491 L289.353107,462.37206 L289.353107,467.617578 L145.916536,576.12078 L289.353107,576.12078 L289.353107,649.569256 L29,649.569256 L29,565.628687 L29,560.382149 L175.70206,451.880767 L29,451.880767 L29,378.432292 L289.353107,378.432292 L289.353107,378.431491 Z M518.716849,574.739016 C552.753883,574.739016 581.548013,548.027566 581.548013,513.999272 C581.548013,479.971979 552.753883,453.259527 518.716849,453.259527 C484.678813,453.259527 455.884592,479.971979 455.884592,513.999272 C455.884592,548.027566 484.678722,574.739016 518.716849,574.739016 Z" id="Shape"></path>
            </g>
        </g>
    </g>
</svg>