<svg width="14" height="13" viewBox="0 0 14 13" xmlns="http://www.w3.org/2000/svg"><title>Shape</title><defs><radialGradient cy="100%" fx="50%" fy="100%" r="142.05%" gradientTransform="scale(.92857 1) rotate(63.626 .52 1.031)" id="a"><stop stop-color="#0A6972" offset="0%"/><stop stop-color="#16193F" offset="100%"/></radialGradient></defs><path d="M13.983 4.94c-.046-.14-.198-.268-.448-.283l-4.46-.29-1.66-4.04C7.322.1 7.15 0 7 0c-.15 0-.323.1-.414.328L4.924 4.367l-4.46.29c-.25.015-.4.144-.447.283-.047.139-.002.33.192.485L3.64 8.21l-1.094 4.22c-.063.235.016.415.137.501.122.086.322.104.533-.028L7 10.587l3.783 2.318c.211.13.411.113.533.027.121-.086.2-.266.137-.502L10.36 8.212l3.432-2.787c.194-.155.239-.346.192-.485z" fill="url(#a)"/></svg>