<?xml version="1.0" encoding="UTF-8"?>
<svg width="86px" height="18px" viewBox="0 0 86 18" version="1.1" xmlns="http://www.w3.org/2000/svg" xmlns:xlink="http://www.w3.org/1999/xlink">
    <!-- Generator: Sketch 47 (45396) - http://www.bohemiancoding.com/sketch -->
    <title>Shape</title>
    <desc>Created with Sketch.</desc>
    <defs></defs>
    <g id="Page-1" stroke="none" stroke-width="1" fill="none" fill-rule="evenodd">
        <g id="SMM-mob" transform="translate(-20.000000, -6078.000000)" fill="#FFFFFF">
            <g id="FOOTER" transform="translate(0.000000, 6044.000000)">
                <g id="HEAD">
                    <g id="Rectangle-Copy">
                        <path d="M50.4524986,52 C55.5067635,52 59.6040185,48.0785857 59.6040185,43 C59.6040185,37.9214769 55.5067635,34 50.4524986,34 C45.3981715,34 41.3009221,37.9214769 41.3009221,43 C41.3009221,48.0785857 45.3981772,52 50.4524986,52 Z M81.9541032,34.5441683 L81.9541032,43.2316869 C81.9541032,48.0738518 78.0472184,52 73.2277298,52 C68.4082468,52 64.5012997,48.0743013 64.5012997,43.2316869 L64.5012997,34.5441683 L69.7907937,34.5441683 L69.7907937,43.4193351 C69.7907937,45.3257961 71.3295484,46.7977077 73.2277298,46.7977077 C75.1259111,46.7977077 76.6647281,45.3265642 76.6647281,43.4193351 L76.6646645,34.5441683 L81.9540962,34.5441683 L81.9541032,34.5441683 Z M96.1620793,38.6979751 L99.3757456,34.5237705 L106,34.5237705 L99.4742179,42.9999716 L106,51.4761726 L99.375689,51.4761726 L96.162085,47.301968 L92.9484187,51.4761726 L86.3241643,51.4761726 L92.8499465,42.9999716 L86.3241077,34.5237705 L92.9484187,34.5237705 L96.162085,38.6979751 L96.1620793,38.6979751 Z M36.1897088,34.5269682 L36.1897088,39.7732537 L36.1897088,40.1010986 L27.270298,46.8825488 L36.1897088,46.8825488 L36.1897088,51.4730785 L20,51.4730785 L20,46.2267929 L20,45.8988843 L29.1224708,39.117548 L20,39.117548 L20,34.5270183 L36.1897088,34.5270183 L36.1897088,34.5269682 Z M50.4523854,46.7961885 C52.5689327,46.7961885 54.3594571,45.1267229 54.3594571,42.9999545 C54.3594571,40.8732487 52.5689327,39.2037205 50.4523854,39.2037205 C48.3357758,39.2037205 46.5452457,40.8732487 46.5452457,42.9999545 C46.5452457,45.1267229 48.3357701,46.7961885 50.4523854,46.7961885 Z" id="Shape"></path>
                    </g>
                </g>
            </g>
        </g>
    </g>
</svg>