<svg width="62" height="63" viewBox="0 0 62 63" xmlns="http://www.w3.org/2000/svg"><title>Group 22</title><defs><radialGradient cx="50.933%" cy="28.256%" fx="50.933%" fy="28.256%" r="90.705%" id="a"><stop stop-color="#0A6972" offset="0%"/><stop stop-color="#16193F" offset="100%"/></radialGradient></defs><g fill="none" fill-rule="evenodd"><circle fill="url(#a)" fill-rule="nonzero" cx="31.083" cy="31.401" r="30.788"/><path d="M28.369 44.496h4.725-4.725zm-.764 4.953h6.245l-.521-3.44h-5.195z"/><g fill-rule="nonzero" fill="#FFF"><path d="M17.39 38.357h26.373V22.13H17.39v16.226zM32.043 25.91h8.786v10.33h-8.816l.03-10.329zm-11.152 1.044h8.128v1.512h-8.158l.03-1.512zm0 3.402h8.128v1.513h-8.158l.03-1.513zm0 3.403h8.128v1.512h-8.158l.03-1.512z"/><path d="M33.525 27.424h5.754v7.304h-5.754z"/><path d="M50.114 15.802H11.341c-.835 0-1.512.677-1.512 1.513v25.67c0 .834.677 1.511 1.512 1.511H50.1c.835 0 1.512-.677 1.512-1.512v-25.67c0-.829-.668-1.503-1.497-1.512zm1.467 24.06H9.867v-1.513h6.011V20.62h29.397v17.738h6.329l-.023 1.504zm-12.219 9.587h-2.45l-.529-3.433H33.36l.53 3.433h-6.246l.53-3.433h-3.025l-.53 3.433h-2.45a1.512 1.512 0 1 0 0 3.024H39.43a1.512 1.512 0 1 0 0-3.024h-.068z"/></g><path fill="#0E4E61" fill-rule="nonzero" d="M15.855 20.619v17.738h1.513V22.13H43.74v16.226h1.512V20.619z"/><path fill="#0E4E61" fill-rule="nonzero" d="M20.861 26.955h8.128v1.512h-8.128zm0 3.402h8.128v1.512h-8.128zm0 3.403h8.128v1.512h-8.128zm11.152-7.849V36.24h8.816V25.91h-8.816zm7.304 8.817h-5.754v-7.304h5.754v7.304zm5.935 3.629v.506H43.74v-.506H17.368v.506h-1.513v-.506h-2.994v1.512h35.741v-1.512zm4.862 0h1.467v1.512h-1.467zm-40.247 0h1.482v1.512H9.867zm38.735 0h1.512v1.512h-1.512z"/><path fill="#0E4E61" fill-rule="nonzero" d="M11.349 38.357h1.512v1.512h-1.512zm32.391 0h1.512v1H43.74zm-27.885 0h1.512v1h-1.512z"/></g></svg>