<svg xmlns="http://www.w3.org/2000/svg" xmlns:xlink="http://www.w3.org/1999/xlink" height="2051" viewBox="0 0 319 2051" width="319"><svg height="125" viewBox="0 0 311 125" width="311" x="4" y="4"><title>Group 6</title><defs><circle id="b" cx="45" cy="45" r="45"/><filter x="-16.7%" y="-17.8%" width="140%" height="140%" filterUnits="objectBoundingBox" id="a"><feMorphology radius="1.5" operator="dilate" in="SourceAlpha" result="shadowSpreadOuter1"/><feOffset dx="3" dy="2" in="shadowSpreadOuter1" result="shadowOffsetOuter1"/><feGaussianBlur stdDeviation="4" in="shadowOffsetOuter1" result="shadowBlurOuter1"/><feColorMatrix values="0 0 0 0 0 0 0 0 0 0 0 0 0 0 0 0 0 0 0.03 0" in="shadowBlurOuter1"/></filter><circle id="d" cx="36" cy="36" r="36"/><filter x="-20.8%" y="-22.2%" width="150%" height="150%" filterUnits="objectBoundingBox" id="c"><feMorphology radius="1.5" operator="dilate" in="SourceAlpha" result="shadowSpreadOuter1"/><feOffset dx="3" dy="2" in="shadowSpreadOuter1" result="shadowOffsetOuter1"/><feGaussianBlur stdDeviation="4" in="shadowOffsetOuter1" result="shadowBlurOuter1"/><feColorMatrix values="0 0 0 0 0 0 0 0 0 0 0 0 0 0 0 0 0 0 0.03 0" in="shadowBlurOuter1"/></filter><circle id="f" cx="19.5" cy="19.5" r="19.5"/><filter x="-38.5%" y="-41%" width="192.3%" height="192.3%" filterUnits="objectBoundingBox" id="e"><feMorphology radius="1.5" operator="dilate" in="SourceAlpha" result="shadowSpreadOuter1"/><feOffset dx="3" dy="2" in="shadowSpreadOuter1" result="shadowOffsetOuter1"/><feGaussianBlur stdDeviation="4" in="shadowOffsetOuter1" result="shadowBlurOuter1"/><feColorMatrix values="0 0 0 0 0 0 0 0 0 0 0 0 0 0 0 0 0 0 0.03 0" in="shadowBlurOuter1"/></filter><circle id="h" cx="14.5" cy="14.5" r="14.5"/><filter x="-51.7%" y="-55.2%" width="224.1%" height="224.1%" filterUnits="objectBoundingBox" id="g"><feMorphology radius="1.5" operator="dilate" in="SourceAlpha" result="shadowSpreadOuter1"/><feOffset dx="3" dy="2" in="shadowSpreadOuter1" result="shadowOffsetOuter1"/><feGaussianBlur stdDeviation="4" in="shadowOffsetOuter1" result="shadowBlurOuter1"/><feColorMatrix values="0 0 0 0 0 0 0 0 0 0 0 0 0 0 0 0 0 0 0.03 0" in="shadowBlurOuter1"/></filter><circle id="j" cx="8.5" cy="8.5" r="8.5"/><filter x="-88.2%" y="-94.1%" width="311.8%" height="311.8%" filterUnits="objectBoundingBox" id="i"><feMorphology radius="1.5" operator="dilate" in="SourceAlpha" result="shadowSpreadOuter1"/><feOffset dx="3" dy="2" in="shadowSpreadOuter1" result="shadowOffsetOuter1"/><feGaussianBlur stdDeviation="4" in="shadowOffsetOuter1" result="shadowBlurOuter1"/><feColorMatrix values="0 0 0 0 0 0 0 0 0 0 0 0 0 0 0 0 0 0 0.03 0" in="shadowBlurOuter1"/></filter></defs><g fill="none" fill-rule="evenodd"><g transform="translate(207 19)"><use fill="#000" filter="url(#a)" xlink:href="#b"/><use fill="#F45264" xlink:href="#b"/></g><path d="M252.225 90.47c18.38-10.84 27.57-21.828 27.57-32.962-.876-12.306-10.91-16.992-20.13-13.624-3.21 1.172-5.69 3.955-7.44 8.35-2.334-4.688-4.96-7.471-7.877-8.35-9.627-3.516-20.567 3.516-20.13 13.624.521 12.028 9.857 23.016 28.007 32.963z" fill="#FFF"/><g transform="translate(116 40)"><use fill="#000" filter="url(#c)" xlink:href="#d"/><use fill="#F45264" xlink:href="#d"/></g><path d="M152.186 97.393c14.751-8.663 22.127-17.443 22.127-26.341-.703-9.834-8.756-13.579-16.156-10.888-2.576.937-4.566 3.161-5.971 6.673-1.873-3.746-3.98-5.97-6.322-6.673-7.727-2.81-16.507 2.81-16.156 10.888.418 9.612 7.91 18.393 22.478 26.341z" fill="#FFF"/><g transform="translate(88 9)"><use fill="#000" filter="url(#e)" xlink:href="#f"/><use fill="#F45264" xlink:href="#f"/></g><path d="M107.6 40.088c7.99-4.693 11.986-9.449 11.986-14.268-.38-5.327-4.743-7.355-8.751-5.898-1.395.508-2.473 1.712-3.234 3.615-1.015-2.03-2.156-3.234-3.425-3.615-4.185-1.522-8.941 1.522-8.751 5.898.226 5.206 4.285 9.962 12.176 14.268z" fill="#FFF"/><g transform="translate(49 61)"><use fill="#000" filter="url(#g)" xlink:href="#h"/><use fill="#F45264" xlink:href="#h"/></g><path d="M63.575 84.117c5.941-3.49 8.912-7.026 8.912-10.61-.283-3.96-3.527-5.47-6.507-4.385-1.038.377-1.84 1.273-2.405 2.687-.755-1.508-1.603-2.404-2.546-2.687-3.113-1.132-6.65 1.131-6.508 4.385.169 3.872 3.186 7.408 9.054 10.61z" fill="#FFF"/><g transform="translate(8 40)"><use fill="#000" filter="url(#i)" xlink:href="#j"/><use fill="#F45264" xlink:href="#j"/></g><path d="M16.544 53.551c3.483-2.045 5.224-4.118 5.224-6.22-.166-2.321-2.067-3.205-3.814-2.57-.609.221-1.078.746-1.41 1.576-.442-.885-.94-1.41-1.493-1.576-1.824-.663-3.897.663-3.814 2.57.098 2.27 1.867 4.343 5.307 6.22z" fill="#FFF"/></g></svg><svg height="102" viewBox="0 0 283 102" width="283" x="4" y="133"><title>Group 8</title><g fill="none" fill-rule="evenodd"><g transform="translate(0 10)"><ellipse fill="#629AEE" cx="44" cy="44.5" rx="44" ry="44.5"/><path d="M35.848 36.835l2.09-3.009a9 9 0 0 1 .976-1.178l2.705-2.75a7 7 0 0 0 1.993-4.418l.24-3.418c.562-1.142 1.545-1.713 2.949-1.713.834-.065 1.676.363 2.527 1.285a8.61 8.61 0 0 1 1.264 3.426c.375 2.668.421 2.997 0 5.566-.429 1.745-1.271 3.458-2.527 5.139h13.059c1.685 0 2.527 1.712 2.527 3.425 0 1.142-.561 2.141-1.685 2.998 1.477 1.095 2.18 2.237 2.107 3.425-.074 1.188-.916 2.33-2.528 3.426.842.57 1.264 1.427 1.264 2.57 0 1.141-.702 2.283-2.107 3.425.913.927 1.334 1.926 1.264 2.997-.07 1.071-.772 2.07-2.106 2.998H37.32a4 4 0 0 1-4-4V44.906c0-2.885.882-5.701 2.528-8.07z" fill="#FFF"/><rect fill="#FFF" x="21.359" y="39.838" width="10.252" height="24.581" rx="4"/></g><g transform="translate(105 30)"><ellipse fill="#629AEE" cx="35.5" cy="36" rx="35.5" ry="36"/><path d="M29.131 29.485l1.64-2.326a9 9 0 0 1 .988-1.174l1.78-1.781a7 7 0 0 0 2.03-4.449l.161-2.265c.463-.927 1.274-1.39 2.431-1.39.688-.054 1.382.294 2.084 1.042.553.866.9 1.793 1.042 2.782.31 2.167.347 2.434 0 4.52-.354 1.416-1.048 2.807-2.084 4.172H49.97c1.39 0 2.084 1.39 2.084 2.781 0 .928-.463 1.739-1.389 2.434 1.218.89 1.797 1.817 1.737 2.782-.06.964-.755 1.891-2.084 2.781.694.464 1.042 1.16 1.042 2.086 0 .928-.58 1.855-1.737 2.782.753.753 1.1 1.564 1.042 2.434-.058.87-.637 1.68-1.736 2.433h-17.88a4 4 0 0 1-4-4v-9.072c0-2.353.727-4.649 2.083-6.572z" fill="#FFF"/><rect fill="#FFF" x="16.905" y="32.188" width="8.452" height="19.482" rx="4"/></g><g transform="translate(168)"><ellipse fill="#629AEE" cx="19.5" cy="20" rx="19.5" ry="20"/><path d="M16.376 16.951l.693-1.04a9 9 0 0 1 .944-1.189l.592-.628a4.53 4.53 0 0 0 1.224-2.804l.077-1.137c.247-.526.681-.788 1.3-.788.368-.03.74.167 1.115.59.296.491.482 1.017.557 1.577.166 1.228.186 1.38 0 2.562-.189.803-.56 1.591-1.114 2.365h5.76c.742 0 1.114.788 1.114 1.576 0 .526-.248.985-.743 1.38.651.504.961 1.03.929 1.576-.032.547-.404 1.072-1.115 1.577.372.262.557.656.557 1.182 0 .525-.31 1.05-.929 1.576.403.427.589.887.558 1.38-.031.493-.34.952-.93 1.38h-7.704a4 4 0 0 1-4-4v-3.448c0-1.312.388-2.594 1.115-3.687z" fill="#FFF"/><rect fill="#FFF" x="9.326" y="17.872" width="4.239" height="11.064" rx="2.12"/></g><g transform="translate(213 52)"><ellipse fill="#629AEE" cx="14" cy="14.5" rx="14" ry="14.5"/><path d="M11.797 12.355l.368-.585a9 9 0 0 1 .898-1.196l.268-.301a3.347 3.347 0 0 0 .84-2.013l.055-.86c.17-.383.469-.574.895-.574.253-.022.509.121.767.43.204.358.331.741.383 1.15.114.895.128 1.005 0 1.867a5.026 5.026 0 0 1-.767 1.723h3.963c.512 0 .767.575.767 1.15 0 .382-.17.718-.511 1.005.448.367.661.75.64 1.149-.023.398-.279.781-.768 1.149.256.191.384.479.384.862s-.213.766-.64 1.149c.277.31.405.646.384 1.005-.021.36-.234.695-.64 1.006h-4.606a3.447 3.447 0 0 1-3.447-3.448v-2.005c0-.942.266-1.865.767-2.663z" fill="#FFF"/><rect fill="#FFF" x="6.788" y="12.794" width="3.394" height="7.676" rx="1.697"/></g><g transform="translate(266 25)"><ellipse fill="#629AEE" cx="8.5" cy="8.831" rx="8.5" ry="8.831"/><path d="M7.163 7.525l.093-.149c.248-.396.528-.77.838-1.12a2.04 2.04 0 0 0 .51-1.225l.033-.524a.55.55 0 0 1 .544-.35c.153-.013.308.074.465.263.124.217.202.45.233.7.07.545.078.612 0 1.137a3.066 3.066 0 0 1-.466 1.05h2.406c.31 0 .466.35.466.7 0 .232-.103.437-.31.612.272.223.401.457.388.7-.014.242-.169.475-.466.7.155.116.233.29.233.524 0 .233-.13.467-.388.7.168.19.246.393.233.612-.013.219-.143.423-.388.613h-2.79a2.1 2.1 0 0 1-2.1-2.1V9.146c0-.573.161-1.135.466-1.62z" fill="#FFF"/><rect fill="#FFF" x="4.121" y="7.792" width="2.061" height="4.675" rx="1.03"/></g></g></svg><svg height="18" viewBox="0 0 86 18" width="86" x="4" y="239"><title>Shape</title><path d="M30.452 18c5.055 0 9.152-3.921 9.152-9 0-5.079-4.097-9-9.152-9-5.054 0-9.151 3.921-9.151 9 0 5.079 4.097 9 9.151 9zM61.954.544v8.688c0 4.842-3.907 8.768-8.726 8.768-4.82 0-8.727-3.926-8.727-8.768V.544h5.29V9.42c0 1.907 1.539 3.379 3.437 3.379s3.437-1.471 3.437-3.379V.544h5.29zm14.208 4.154L79.376.524H86L79.474 9 86 17.476h-6.624l-3.214-4.174-3.214 4.174h-6.624L72.85 9 66.324.524h6.624l3.214 4.174zM16.19.527v5.574l-8.92 6.782h8.92v4.59H0V11.9l9.122-6.781H0V.527h16.19zm14.262 12.27c2.117 0 3.907-1.67 3.907-3.797 0-2.127-1.79-3.796-3.907-3.796-2.116 0-3.907 1.67-3.907 3.796 0 2.127 1.79 3.796 3.907 3.796z" fill-rule="evenodd"/></svg><svg height="65" viewBox="0 0 62 65" width="61.58" x="4" y="261"><title>features-icon6-disabled</title><circle cx="30.79" cy="30.82" r="30.79" fill="#828282"/><path d="M61.58 30.8a30.79 30.79 0 1 0-46.39 26.54v-1.33a9.47 9.47 0 0 1 9.47-9.47h14.45a9.47 9.47 0 0 1 9.47 9.35 30.74 30.74 0 0 0 13-25.13zM40.67 44.41H23.11l-7.33-10.14 13.46-23.38v3.91l2.27-3.94v16a2.59 2.59 0 1 0 .76 0v-16l2.26 3.94v-3.92L48 34.26z"/><path d="M29.4 30.16a3.61 3.61 0 0 1 2.11-3.28v-16l-2.27 3.92v12.1a3.61 3.61 0 0 0 1.46 6.9h.14a3.59 3.59 0 0 0 1.08-.2 3.61 3.61 0 0 1-2.52-3.44zm8.99 14.24h2.27l7.33-10.15-13.46-23.37v3.94l11.19 19.43-7.33 10.15zm10.19 11.56a9.47 9.47 0 0 0-9.47-9.35h-2.27a9.47 9.47 0 0 1 9.47 9.47v1.35q1.16-.7 2.27-1.47z" stroke="#000"/><path d="M15.19 57.36v7.65h2.27v-6.42q-1.17-.58-2.27-1.23z" fill="#fff"/><path d="M25.37 44.41h13l7.33-10.14L34.54 14.8l-2.27-3.9v16a3.63 3.63 0 0 1-1.43 6.9h-.1a3.61 3.61 0 0 1-1.46-6.9v-16L15.84 34.26l7.31 10.15h2.22zm11.47 2.19H24.66a9.47 9.47 0 0 0-9.47 9.47v2c.76.44 1.51.85 2.27 1.22a30.81 30.81 0 0 0 28.86-1.17v-2.11a9.47 9.47 0 0 0-9.48-9.42z" fill="#828282"/></svg><svg height="63" viewBox="0 0 63 63" width="63" x="4" y="330"><use fill="url(#a)" xlink:href="#b" transform="translate(-414 -1310)"/></svg><svg height="63" viewBox="0 0 63 63" width="63" x="4" y="397"><title>Group 21</title><g fill="none" fill-rule="evenodd"><circle fill="url(#a)" fill-rule="nonzero" cx="31.439" cy="31.394" r="30.908"/><path d="M46.795 44.73l-7.856-7.848a12.866 12.866 0 1 0-3.393 3.036l8.023 8.023a2.277 2.277 0 0 0 3.218-3.219l.008.008zM19.818 29.04a9.017 9.017 0 1 1 9.025 9.018 9.025 9.025 0 0 1-9.017-9.017h-.008z" fill="#082E3C" fill-rule="nonzero"/><circle stroke="#FFF" stroke-width="5" cx="28.077" cy="27.523" r="10.915"/><path d="M35.576 35.97l8.85 8.859" stroke="#FFF" stroke-width="6" stroke-linecap="round"/></g></svg><svg height="63" viewBox="0 0 63 63" width="63" x="4" y="464"><title>Group 26</title><g fill="none" fill-rule="evenodd"><circle fill="url(#a)" fill-rule="nonzero" cx="31.454" cy="31.394" r="30.908"/><rect fill="#082E3C" fill-rule="nonzero" x="14.429" y="14.08" width="35.682" height="37.094" rx="4.69"/><rect fill="#FFF" fill-rule="nonzero" x="14.315" y="14.019" width="34.286" height="35.637" rx="3.67"/><path d="M48.601 20.388H13.868m5.692 6.581h10.376M19.56 31.773h10.376M19.56 36.578H43.6M19.56 41.39H43.6m-9.717-15.856h8.866v6.93h-8.866z" stroke="#0E4E61" stroke-width="2"/></g></svg><svg height="63" viewBox="0 0 63 63" width="63" x="4" y="531"><style>.st0{fill:#16193f}.st0,.st1,.st2,.st3,.st4{clip-path:url(#SVGID_2_)}.st1{fill:#161a40}.st2{fill:#161b40}.st3{fill:#161c41}.st4{fill:#151d42}.st5{fill:#151e42}.st5,.st6,.st7,.st8,.st9{clip-path:url(#SVGID_2_)}.st6{fill:#151f43}.st7{fill:#152044}.st8{fill:#152144}.st9{fill:#152245}.st10{fill:#142345}.st10,.st11,.st12,.st13,.st14{clip-path:url(#SVGID_2_)}.st11{fill:#142446}.st12{fill:#142547}.st13{fill:#142647}.st14{fill:#142748}.st15{fill:#142849}.st15,.st16,.st17,.st18,.st19{clip-path:url(#SVGID_2_)}.st16{fill:#142949}.st17{fill:#132a4a}.st18{fill:#132b4b}.st19{fill:#132c4b}.st20{fill:#132d4c}.st20,.st21,.st22,.st23,.st24{clip-path:url(#SVGID_2_)}.st21{fill:#132e4d}.st22{fill:#132f4d}.st23{fill:#13304e}.st24{fill:#12314e}.st25{fill:#12324f}.st25,.st26,.st27,.st28,.st29{clip-path:url(#SVGID_2_)}.st26{fill:#123350}.st27{fill:#123450}.st28{fill:#123551}.st29{fill:#123652}.st30{fill:#113752}.st30,.st31,.st32,.st33,.st34{clip-path:url(#SVGID_2_)}.st31{fill:#113853}.st32{fill:#113954}.st33{fill:#113a54}.st34{fill:#113b55}.st35{fill:#113c56}.st35,.st36,.st37,.st38,.st39{clip-path:url(#SVGID_2_)}.st36{fill:#113d56}.st37{fill:#103e57}.st38{fill:#103f58}.st39{fill:#104058}.st40{fill:#104259}.st40,.st41,.st42,.st43,.st44{clip-path:url(#SVGID_2_)}.st41{fill:#104359}.st42{fill:#10445a}.st43{fill:#0f455b}.st44{fill:#0f465b}.st45{fill:#0f475c}.st45,.st46,.st47,.st48,.st49{clip-path:url(#SVGID_2_)}.st46{fill:#0f485d}.st47{fill:#0f495d}.st48{fill:#0f4a5e}.st49{fill:#0f4b5f}.st50{fill:#0e4c5f}.st50,.st51,.st52,.st53,.st54{clip-path:url(#SVGID_2_)}.st51{fill:#0e4d60}.st52{fill:#0e4e61}.st53{fill:#0e4f61}.st54{fill:#0e5062}.st55{fill:#0e5163}.st55,.st56,.st57,.st58,.st59{clip-path:url(#SVGID_2_)}.st56{fill:#0d5263}.st57{fill:#0d5364}.st58{fill:#0d5464}.st59{fill:#0d5565}.st60{fill:#0d5666}.st60,.st61,.st62,.st63,.st64{clip-path:url(#SVGID_2_)}.st61{fill:#0d5766}.st62{fill:#0d5867}.st63{fill:#0c5968}.st64{fill:#0c5a68}.st65{fill:#0c5b69}.st65,.st66,.st67,.st68,.st69{clip-path:url(#SVGID_2_)}.st66{fill:#0c5c6a}.st67{fill:#0c5d6a}.st68{fill:#0c5e6b}.st69{fill:#0c5f6c}.st70{fill:#0b606c}.st70,.st71,.st72,.st73,.st74{clip-path:url(#SVGID_2_)}.st71{fill:#0b616d}.st72{fill:#0b626d}.st73{fill:#0b636e}.st74{fill:#0b646f}.st75{fill:#0b656f}.st75,.st76,.st77,.st78,.st79{clip-path:url(#SVGID_2_)}.st76{fill:#0a6670}.st77{fill:#0a6771}.st78{fill:#0a6871}.st79{fill:#0a6972}</style><title>Oval</title><g id="Page-1"><g id="INDEX-PAGE" transform="translate(-414 -1310)"><g id="SERVICES" transform="translate(0 900)"><g id="Group-16" transform="translate(135 196)"><g id="PERK-1"><g id="Group-4" transform="translate(279 214)"><g id="Group-26"><g id="Group-19"><g id="Oval"><defs><circle id="SVGID_1_" cx="31.5" cy="31.4" r="30.9"/></defs><clipPath id="SVGID_2_"><use xlink:href="#SVGID_1_" overflow="visible"/></clipPath><path class="st0" d="M.5.5h61.8v61.8H.5z"/><path class="st0" d="M63.4 18V-.5H-.5v61.7h-3.2c1.4 1.1 2.8 2.2 4.3 3.2v-1.1h62.7V18z"/><path class="st1" d="M63.4 18V-.5H-.5v57.6h-6.7c5 5 11 9.1 17.6 11.9v-5.7H63v.6c1.5-1 2.9-2.1 4.3-3.2h-3.9V18z"/><path class="st2" d="M63.4 18V-.5H-.5v57.1h-6.2c4.9 4.9 10.8 8.9 17.4 11.7v-5h42.6v5c3.3-1.4 6.4-3.1 9.3-5 1.5-1 2.9-2 4.2-3.1h-3.4V18z"/><path class="st3" d="M63.4 18V-.5H-.5v56.6h-5.7c5 4.9 10.8 8.8 17.2 11.6v-4.4h42v4.4C59.5 65 65.3 61 70.2 56.1h-6.8V18z"/><path class="st4" d="M63.4 18V-.5H-.5v56.1h-5.2C-.9 60.4 4.9 64.3 11.2 67v-3.7h41.5V67c6.4-2.7 12.1-6.6 16.9-11.4h-6.3V18z"/><path class="st5" d="M63.4 18V-.5H-.5v55.6h-4.7c4.8 4.8 10.4 8.6 16.7 11.3v-3.1h40.9v3.1c6.3-2.7 12-6.5 16.7-11.3h-5.8V18z"/><path class="st6" d="M63.4 18V-.5H-.5v55.1h-4.2C4.7 64 17.7 69.8 32 69.8S59.3 64 68.7 54.6h-5.3V18z"/><path class="st7" d="M63.4 18V-.5H-.5v54.6h-3.7c9.3 9.3 22 15 36.2 15s26.9-5.7 36.2-15h-4.8V18z"/><path class="st8" d="M63.4 18V-.5H-.5v54.1h-3.2C5.5 62.8 18.1 68.4 32 68.4s26.6-5.6 35.7-14.8h-4.4V18z"/><path class="st9" d="M63.4 18V-.5H-.5v53.7h-2.7c9 9 21.4 14.6 35.2 14.6s26.2-5.6 35.2-14.6h-3.9V18z"/><path class="st10" d="M63.4 18V-.5H-.5v53.2h-2.2C6.2 61.5 18.5 67 32 67s25.8-5.5 34.7-14.4h-3.4V18z"/><path class="st11" d="M63.4 18V-.5H-.5v52.7h-1.7C6.6 60.9 18.7 66.3 32 66.3s25.4-5.4 34.2-14.2h-2.9V18z"/><path class="st12" d="M63.4 18V-.5H-.5v52.2h-1.2c8.6 8.6 20.5 14 33.7 14s25.1-5.3 33.7-14h-2.4V18z"/><path class="st13" d="M63.4 18V-.5H-.5v51.7h-.7C7.3 59.7 19.1 64.9 32 64.9s24.7-5.3 33.2-13.8h-1.9V18z"/><path class="st14" d="M63.4 18V-.5H-.5v51.2h-.2C7.7 59 19.3 64.2 32 64.2S56.4 59 64.7 50.7h-1.4V18z"/><path class="st15" d="M63.4 18V-.5H-.5v43.9h-5.3c1.6 2.4 3.5 4.7 5.6 6.7C8.1 58.4 19.5 63.5 32 63.5s24-5.1 32.2-13.3h-.9V18z"/><path class="st16" d="M63.4 18V-.5H-.5V43h-4.7c1.6 2.4 3.4 4.6 5.5 6.6C8.4 57.8 19.6 62.8 32 62.8s23.6-5 31.7-13.1h-.4V18z"/><path class="st17" d="M63.4 18V-.5H-.5v43.2h-4.1C-3 45-1.2 47.2.8 49.2c8 8 19 12.9 31.2 12.9s23.2-4.9 31.2-12.9c2-2 3.8-4.2 5.4-6.5h-5.3V18z"/><path class="st18" d="M63.4 18V-.6H-.5v42.8H-4c1.6 2.3 3.3 4.5 5.3 6.4C9.2 56.5 20 61.4 32 61.4s22.9-4.9 30.7-12.7c2-2 3.7-4.1 5.3-6.4h-4.7V18z"/><path class="st19" d="M63.4 18V-.5H-.5v35.1h-6.9c2.2 5.1 5.3 9.7 9.2 13.6C9.5 55.9 20.2 60.7 32 60.7s22.5-4.8 30.2-12.5c1.9-1.9 3.7-4.1 5.2-6.3h-4.1V18z"/><path class="st20" d="M63.4 18V-.5H-.5v34.8h-6.3c2.1 5 5.2 9.6 9 13.4C9.9 55.3 20.4 60 32 60s22.1-4.7 29.7-12.3c1.9-1.9 3.6-4 5.1-6.2h-3.5V18z"/><path class="st21" d="M63.4 18V-.5H-.5V34h-5.6C-4 39-1 43.5 2.8 47.2c7.5 7.5 17.8 12.1 29.2 12.1s21.8-4.6 29.2-12.1C65 43.5 68 39 70.1 34h-6.8V18z"/><path class="st22" d="M63.4 18V-.5H-.5v34.3h-5c2.1 4.9 5 9.2 8.7 12.9 7.4 7.4 17.5 11.9 28.7 11.9S53.3 54 60.6 46.7c3.7-3.7 6.7-8.1 8.7-12.9h-6.1V18z"/><path class="st23" d="M63.4 18V-.5H-.5v34h-4.3c2 4.8 4.9 9.1 8.6 12.7C11 53.4 21 57.9 32 57.9s21-4.5 28.2-11.7c3.6-3.6 6.5-7.9 8.6-12.7h-5.5V18z"/><path class="st24" d="M63.4 18V-.5H-.5V18h-6.8c0 21.7 17.6 39.2 39.2 39.2 10.8 0 20.7-4.4 27.8-11.5 3.6-3.6 6.4-7.8 8.4-12.5h-4.8V18z"/><path class="st25" d="M63.4 18V-.5H.1v-3.1C-1.3-1.5-2.5.6-3.5 2.9h3v15h-6.1c0 21.3 17.3 38.5 38.5 38.5 10.6 0 20.3-4.3 27.3-11.3 3.5-3.5 6.3-7.6 8.3-12.3h-4.2V18z"/><path class="st26" d="M63.4 18V-.5H.6v-2.7C-.8-1.2-1.9 1-2.9 3.2h2.4V18h-5.4c0 20.9 16.9 37.8 37.8 37.8s38-16.9 38-37.8h-6.5z"/><path class="st27" d="M63.4 18V3.5h2.9c-.9-2.2-2.1-4.3-3.4-6.3v2.3H1.2v-2.3c-1.3 2-2.5 4.1-3.4 6.3h1.7V18h-4.7c0 20.5 16.6 37.1 37.1 37.1S69.2 38.5 69.2 18h-5.8z"/><path class="st28" d="M63.4 18V3.8h2.3c-.9-2.2-2.1-4.3-3.4-6.2v1.9H1.8v-1.9C.5-.5-.6 1.6-1.6 3.8h1.1V18h-4c0 20.1 16.3 36.4 36.4 36.4S68.5 38.1 68.5 18h-5.1z"/><path class="st29" d="M67.8 18c0-9.9-4-18.8-10.5-25.3v6.8H6.8v-6.8C.3-.9-3.7 8.1-3.7 18c0 19.7 16 35.7 35.7 35.7s35.8-16 35.8-35.7z"/><path class="st30" d="M67.1 18c0-9.7-3.9-18.4-10.3-24.8v6.3H7.3v-6.3C.9-.5-3 8.3-3 18c0 19.4 15.7 35 35 35s35.1-15.7 35.1-35z"/><path class="st31" d="M66.4 18c0-9.5-3.8-18.1-10.1-24.3v5.8H7.7v-5.8C1.5-.1-2.3 8.5-2.3 18c0 19 15.4 34.3 34.3 34.3S66.4 36.9 66.4 18z"/><path class="st32" d="M65.7 18c0-9.3-3.8-17.7-9.9-23.8v5.3H8.2v-5.3C2.2.3-1.6 8.7-1.6 18c0 18.6 15.1 33.6 33.6 33.6S65.7 36.5 65.7 18z"/><path class="st33" d="M65 18C65 8.9 61.3.7 55.4-5.3v4.8H8.7v-4.8C2.7.7-.9 8.9-.9 18c0 18.2 14.7 32.9 32.9 32.9S65 36.1 65 18z"/><path class="st34" d="M64.3 18c0-8.9-3.6-17-9.4-22.8v4.3H9.2v-4.3C3.4 1-.2 9-.2 18c0 17.8 14.4 32.2 32.2 32.2S64.3 35.8 64.3 18z"/><path class="st35" d="M63.6 18c0-8.7-3.5-16.6-9.2-22.3v3.8H9.7v-3.8C4 1.4.5 9.2.5 18 .5 35.4 14.6 49.5 32 49.5S63.6 35.4 63.6 18z"/><path class="st36" d="M62.9 18c0-8.5-3.5-16.2-9-21.8v3.3H10.2v-3.3c-5.6 5.6-9 13.3-9 21.8C1.2 35 15 48.8 32 48.8S62.9 35 62.9 18z"/><path class="st37" d="M62.2 18c0-8.3-3.4-15.9-8.8-21.3v2.8H10.7v-2.8C5.3 2.1 1.9 9.6 1.9 18c0 16.6 13.5 30.1 30.1 30.1S62.2 34.6 62.2 18z"/><path class="st38" d="M61.5 18c0-8.1-3.3-15.5-8.6-20.8v2.3H11.2v-2.3C5.9 2.5 2.6 9.8 2.6 18c0 16.3 13.2 29.4 29.4 29.4S61.5 34.2 61.5 18z"/><path class="st39" d="M60.8 18c0-7.9-3.2-15.1-8.4-20.3v1.9H11.7v-1.9C6.5 2.8 3.3 10 3.3 18c0 15.9 12.9 28.7 28.7 28.7S60.8 33.8 60.8 18z"/><path class="st40" d="M60.1 18c0-7.7-3.1-14.8-8.2-19.8v1.4H12.2v-1.4C7.1 3.2 4 10.2 4 18c0 15.5 12.6 28 28 28s28.1-12.6 28.1-28z"/><path class="st41" d="M59.4 18c0-7.5-3.1-14.4-8-19.3v.9H12.7v-.9c-4.9 4.9-8 11.8-8 19.3 0 15 12.2 27.3 27.3 27.3S59.4 33 59.4 18z"/><path class="st42" d="M58.7 18c0-7.4-3-14-7.8-18.8v.4H13.2v-.4C8.4 3.9 5.4 10.6 5.4 18c0 14.7 11.9 26.6 26.6 26.6S58.7 32.7 58.7 18z"/><path class="st43" d="M58 18c0-7.2-2.9-13.6-7.6-18.3-2.3-2.3-5.1-4.2-8.2-5.6v5.4H21.9v-5.4C18.8-4.6 16-2.7 13.7-.3 9 4.3 6.1 10.8 6.1 18c0 14.3 11.6 25.9 25.9 25.9S58 32.3 58 18z"/><circle class="st44" cx="32" cy="18" r="25.2"/><circle class="st45" cx="32" cy="18" r="24.5"/><circle class="st46" cx="32" cy="18" r="23.8"/><circle class="st47" cx="32" cy="18" r="23.1"/><circle class="st48" cx="32" cy="18" r="22.4"/><circle class="st49" cx="32" cy="18" r="21.7"/><circle class="st50" cx="32" cy="18" r="21"/><circle class="st51" cx="32" cy="18" r="20.3"/><circle class="st52" cx="32" cy="18" r="19.6"/><circle class="st53" cx="32" cy="18" r="18.9"/><circle class="st54" cx="32" cy="18" r="18.2"/><circle class="st55" cx="32" cy="18" r="17.5"/><circle class="st56" cx="32" cy="18" r="16.8"/><circle class="st57" cx="32" cy="18" r="16.1"/><circle class="st58" cx="32" cy="18" r="15.4"/><circle class="st59" cx="32" cy="18" r="14.7"/><circle class="st60" cx="32" cy="18" r="14"/><circle class="st61" cx="32" cy="18" r="13.3"/><circle class="st62" cx="32" cy="18" r="12.6"/><circle class="st63" cx="32" cy="18" r="11.9"/><circle class="st64" cx="32" cy="18" r="11.2"/><circle class="st65" cx="32" cy="18" r="10.5"/><circle class="st66" cx="32" cy="18" r="9.8"/><circle class="st67" cx="32" cy="18" r="9.1"/><circle class="st68" cx="32" cy="18" r="8.4"/><circle class="st69" cx="32" cy="18" r="7.7"/><circle class="st70" cx="32" cy="18" r="7"/><circle class="st71" cx="32" cy="18" r="6.3"/><circle class="st72" cx="32" cy="18" r="5.6"/><circle class="st73" cx="32" cy="18" r="4.9"/><circle class="st74" cx="32" cy="18" r="4.2"/><circle class="st75" cx="32" cy="18" r="3.5"/><circle class="st76" cx="32" cy="18" r="2.8"/><circle class="st77" cx="32" cy="18" r="2.1"/><circle class="st78" cx="32" cy="18" r="1.4"/><circle class="st79" cx="32" cy="18" r=".7"/></g></g></g></g></g></g></g></g></g></svg><svg height="63" viewBox="0 0 62 63" width="62" x="4" y="598"><title>Group 20</title><defs><radialGradient cx="50.933%" cy="28.256%" fx="50.933%" fy="28.256%" r="90.705%" id="a"><stop stop-color="#0A6972" offset="0%"/><stop stop-color="#16193F" offset="100%"/></radialGradient></defs><g fill="none"><circle fill="url(#a)" cx="30.955" cy="31.272" r="30.788"/><path d="M39.99 27.764a7.561 7.561 0 1 0-7.168-5.172l-10.978 6.14a6.646 6.646 0 1 0-.756 9.655l10.66 7.153a6.094 6.094 0 1 0 1.513-2.624l-10.29-6.91a6.563 6.563 0 0 0 .377-4.636l11.017-6.154a7.561 7.561 0 0 0 5.625 2.548z" fill="#082E3C"/><path d="M39.234 27.008a7.561 7.561 0 1 0-7.168-5.172l-10.978 6.14a6.646 6.646 0 1 0-.757 9.655l10.661 7.153a6.094 6.094 0 1 0 1.513-2.624l-10.29-6.91a6.563 6.563 0 0 0 .377-4.636L33.61 24.46a7.561 7.561 0 0 0 5.625 2.548z" fill="#FFF"/></g></svg><svg height="63" viewBox="0 0 62 63" width="62" x="4" y="665"><title>Group 22</title><defs><radialGradient cx="50.933%" cy="28.256%" fx="50.933%" fy="28.256%" r="90.705%" id="a"><stop stop-color="#0A6972" offset="0%"/><stop stop-color="#16193F" offset="100%"/></radialGradient></defs><g fill="none" fill-rule="evenodd"><circle fill="url(#a)" fill-rule="nonzero" cx="31.083" cy="31.401" r="30.788"/><path d="M28.369 44.496h4.725-4.725zm-.764 4.953h6.245l-.521-3.44h-5.195z"/><g fill-rule="nonzero" fill="#FFF"><path d="M17.39 38.357h26.373V22.13H17.39v16.226zM32.043 25.91h8.786v10.33h-8.816l.03-10.329zm-11.152 1.044h8.128v1.512h-8.158l.03-1.512zm0 3.402h8.128v1.513h-8.158l.03-1.513zm0 3.403h8.128v1.512h-8.158l.03-1.512z"/><path d="M33.525 27.424h5.754v7.304h-5.754z"/><path d="M50.114 15.802H11.341c-.835 0-1.512.677-1.512 1.513v25.67c0 .834.677 1.511 1.512 1.511H50.1c.835 0 1.512-.677 1.512-1.512v-25.67c0-.829-.668-1.503-1.497-1.512zm1.467 24.06H9.867v-1.513h6.011V20.62h29.397v17.738h6.329l-.023 1.504zm-12.219 9.587h-2.45l-.529-3.433H33.36l.53 3.433h-6.246l.53-3.433h-3.025l-.53 3.433h-2.45a1.512 1.512 0 1 0 0 3.024H39.43a1.512 1.512 0 1 0 0-3.024h-.068z"/></g><path fill="#0E4E61" fill-rule="nonzero" d="M15.855 20.619v17.738h1.513V22.13H43.74v16.226h1.512V20.619z"/><path fill="#0E4E61" fill-rule="nonzero" d="M20.861 26.955h8.128v1.512h-8.128zm0 3.402h8.128v1.512h-8.128zm0 3.403h8.128v1.512h-8.128zm11.152-7.849V36.24h8.816V25.91h-8.816zm7.304 8.817h-5.754v-7.304h5.754v7.304zm5.935 3.629v.506H43.74v-.506H17.368v.506h-1.513v-.506h-2.994v1.512h35.741v-1.512zm4.862 0h1.467v1.512h-1.467zm-40.247 0h1.482v1.512H9.867zm38.735 0h1.512v1.512h-1.512z"/><path fill="#0E4E61" fill-rule="nonzero" d="M11.349 38.357h1.512v1.512h-1.512zm32.391 0h1.512v1H43.74zm-27.885 0h1.512v1h-1.512z"/></g></svg><svg height="62" viewBox="0 0 62 62" width="62" x="4" y="732"><title>Group 23</title><defs><radialGradient cx="50.933%" cy="28.256%" fx="50.933%" fy="28.256%" r="90.705%" id="a"><stop stop-color="#0A6972" offset="0%"/><stop stop-color="#16193F" offset="100%"/></radialGradient></defs><g fill="none" fill-rule="evenodd"><circle fill="url(#a)" fill-rule="nonzero" cx="30.955" cy="31.023" r="30.788"/><g fill-rule="nonzero" fill="#082E3C"><path d="M47.838 15.802h-31.12c-.836 0-1.513.677-1.513 1.513v31.128c0 .835.677 1.512 1.512 1.512h31.129c.835 0 1.512-.677 1.512-1.512V17.315a1.512 1.512 0 0 0-1.52-1.513zm-1.512 3.025v20.331l-5.943-5.035a1.134 1.134 0 0 0-1.308-.114l-5.716 3.335-6.14-6.624a1.134 1.134 0 0 0-1.512-.204l-7.44 6.7v-18.39h28.06zM18.222 46.93v-6.91l8.657-6.276 5.293 6.54c.352.434.969.546 1.452.265l5.86-3.418 6.804 5.761v4.038H18.222z"/><path d="M37.049 29.775a3.864 3.864 0 1 0-3.864-3.864 3.871 3.871 0 0 0 3.864 3.864zm0-5.459a1.595 1.595 0 1 1 0 3.19 1.595 1.595 0 0 1 0-3.19z"/></g><path stroke="#FFF" stroke-width="4" stroke-linejoin="round" d="M15.961 16.559H47.09v31.129H15.961z"/><path stroke="#FFF" stroke-width="3" fill="#FFF" fill-rule="nonzero" stroke-linejoin="round" d="M15.697 39.355l9.882-7.916 6.76 7.371 6.555-3.825 8.06 6.827v5.368H15.697z"/><circle stroke="#FFF" stroke-width="3" stroke-linejoin="round" cx="36.3" cy="25.155" r="2.73"/></g></svg><svg height="61.82" viewBox="0 0 62 62" width="61.82" x="4" y="798"><title>features-icon5-disabled</title><circle cx="30.91" cy="30.91" r="30.91"/><path d="M46.26 44.24l-7.86-7.85a12.87 12.87 0 1 0-3.39 3l8 8a2.28 2.28 0 0 0 3.22-3.22zm-27-15.73a9 9 0 1 1 9 9 9 9 0 0 1-9-9z" stroke="#000"/><circle cx="27.55" cy="27.04" r="10.91" fill="none" stroke="#828282" stroke-width="5"/><path d="M35.05 35.51l8.85 8.86" fill="none" stroke="#828282" stroke-linecap="round" stroke-width="6"/></svg><svg height="61.82" viewBox="0 0 62 62" width="61.82" x="4" y="864"><title>features-icon1-disabled</title><circle cx="30.91" cy="30.91" r="30.91"/><rect x="13.88" y="13.59" width="35.68" height="37.09" rx="4.69" ry="4.69" stroke="#000"/><rect x="13.77" y="13.53" width="34.29" height="35.64" rx="3.67" ry="3.67" fill="#828282"/><path d="M48 19.9H13.76M19 26.51h10.39M19 31.28h10.39M19 36.09h24M19 40.9h24m-9.66-15.85h8.87v6.93h-8.87z" fill="none" stroke="#000" stroke-width="2"/></svg><svg height="61.58" viewBox="0 0 62 62" width="61.58" x="4" y="930"><title>features-icon2-disabled</title><circle cx="30.79" cy="30.79" r="30.79"/><path d="M17.86 38.5h26.37V22.28H17.86V38.5zm14.65-12.44h8.79v10.33h-8.82zm-11.15 1h8.13v1.51h-8.16zm0 3.4h8.13V32h-8.16zm0 3.4h8.13v1.53h-8.16z" fill="#003799" stroke="#003799"/><path fill="#003799" stroke="#003799" d="M33.99 27.57h5.75v7.3h-5.75z"/><path d="M50.58 15.95H11.81a1.51 1.51 0 0 0-1.51 1.51v25.67a1.51 1.51 0 0 0 1.51 1.51h38.76a1.51 1.51 0 0 0 1.51-1.51V17.46a1.51 1.51 0 0 0-1.5-1.51zM52.05 40H10.33v-1.5h6V20.76h29.38V38.5H52V40zm-12.22 9.59h-2.45l-.53-3.43h-3l.53 3.43h-6.27l.53-3.43h-3l-.56 3.43h-2.45a1.51 1.51 0 0 0 0 3H39.9a1.51 1.51 0 0 0 0-3h-.07z" stroke="#000"/><path fill="none" d="M28.07 43.88h4.73-4.73zm-.76 4.96h6.25l-.53-3.44h-5.19l-.53 3.44z"/><g fill="#828282"><path d="M17.1 37.75h26.37V21.52H17.1v16.23zM31.71 25.3h8.79v10.33h-8.79V25.3zM20.6 26.39h8.11v1.51h-8.14zm0 3.4h8.11v1.51h-8.14zm0 3.4h8.11v1.51h-8.14z"/><path d="M33.23 26.81h5.75v7.3h-5.75z"/><path d="M49.82 15.19H11.05a1.51 1.51 0 0 0-1.51 1.51v25.69a1.51 1.51 0 0 0 1.51 1.51h38.76a1.51 1.51 0 0 0 1.51-1.51V16.7a1.51 1.51 0 0 0-1.5-1.51zm1.47 24.06H9.58v-1.51h6V20H45v17.75h6.33zm-12.22 9.59h-2.45l-.53-3.45h-3l.53 3.43h-6.27l.53-3.43h-3l-.53 3.43h-2.47a1.51 1.51 0 0 0 0 3h17.26a1.51 1.51 0 1 0 0-3h-.07z"/></g><path d="M15.56 20.01v17.73h1.51V21.52h26.38v16.22h1.51V20.01h-29.4z"/><path d="M20.57 26.34h8.13v1.51h-8.13zm0 3.4h8.13v1.51h-8.13zm0 3.41h8.13v1.51h-8.13zm11.14-7.85v10.33h8.82V25.3h-8.82zM39 34.12h-5.73v-7.3H39v7.3zm5.96 3.62v.51h-1.51v-.51H17.07v.51h-1.51v-.51h-2.99v1.52h35.74v-1.52h-3.35z"/><path fill="#828282" d="M49.82 37.74h1.47v1.51h-1.47zm-40.25 0h1.48v1.51H9.57zm38.74 0h1.51v1.51h-1.51zm-37.26 0h1.51v1.51h-1.51zm32.4 0h1.51v1h-1.51zm-27.89 0h1.51v1h-1.51z"/></svg><svg height="61.58" viewBox="0 0 62 62" width="61.58" x="4" y="996"><title>features-icon3-disabled</title><circle cx="30.79" cy="30.79" r="30.79"/><g stroke="#000"><path d="M47.67 15.57H16.55A1.51 1.51 0 0 0 15 17.08v31.13a1.51 1.51 0 0 0 1.46 1.56h31.22a1.51 1.51 0 0 0 1.51-1.51V17.08a1.51 1.51 0 0 0-1.51-1.51zm-1.51 3v20.36l-5.94-5a1.13 1.13 0 0 0-1.31-.16l-5.72 3.33-6.14-6.62a1.13 1.13 0 0 0-1.51-.2L18.1 37V18.6h28.06zm-28.1 28.1v-6.9l8.66-6.28L32 40a1.13 1.13 0 0 0 1.45.26l5.86-3.42 6.8 5.76v4H18z"/><path d="M36.83 29.55A3.86 3.86 0 1 0 33 25.69a3.86 3.86 0 0 0 3.86 3.86zm0-5.46a1.6 1.6 0 1 1-1.6 1.6 1.6 1.6 0 0 1 1.6-1.6z"/></g><path fill="none" stroke="#828282" stroke-linejoin="round" stroke-width="4" d="M15.79 16.32h31.13v31.13H15.79z"/><path fill="#828282" stroke="#828282" stroke-linejoin="round" stroke-width="3" d="M15.53 39.12l9.88-7.92 6.76 7.38 6.56-3.83 8.06 6.83v5.37H15.53v-7.83z"/><circle cx="36.13" cy="24.92" r="2.73" fill="none" stroke="#828282" stroke-linejoin="round" stroke-width="3"/></svg><svg height="61.58" viewBox="0 0 62 62" width="61.58" x="4" y="1062"><title>features-icon4-disabled</title><circle cx="30.79" cy="30.79" r="30.79"/><path d="M39.83 27.28a7.56 7.56 0 1 0-7.17-5.17l-11 6.14a6.65 6.65 0 1 0-.76 9.66l10.66 7.15a6.09 6.09 0 1 0 1.51-2.62l-10.24-6.92a6.56 6.56 0 0 0 .38-4.63l11-6.15a7.56 7.56 0 0 0 5.62 2.54z" stroke="#000"/><path d="M39.06 26.52a7.56 7.56 0 1 0-7.17-5.17l-11 6.17a6.65 6.65 0 1 0-.76 9.66l10.7 7.12a6.09 6.09 0 1 0 1.51-2.62L22 34.77a6.56 6.56 0 0 0 .38-4.63l11-6.15a7.56 7.56 0 0 0 5.68 2.53z" fill="#b7b7b7"/></svg><svg height="52" viewBox="0 0 32 52" width="32" x="4" y="1128"><title>Group</title><path d="M10.533 33.61h13.028l7.327-10.14-11.19-19.43-2.27-3.941v16.007a3.63 3.63 0 0 1-1.46 6.903h-.098a3.614 3.614 0 0 1-1.459-6.903V.076L.954 23.457 8.265 33.61h2.268zm11.47 2.192H9.815A9.466 9.466 0 0 0 .35 45.27v2.049a36.85 36.85 0 0 0 2.268 1.217 30.811 30.811 0 0 0 28.86-1.172v-2.102a9.466 9.466 0 0 0-9.474-9.459z" fill="#FFF"/></svg><svg height="50" viewBox="0 0 50 50" width="50" x="4" y="1184"><title>case-content-after</title><path d="M50.02 24.31a25.01 25.01 0 1 1-50 1.39v-1.39a25 25 0 0 1 50 0zm-3.54 0a21.45 21.45 0 1 0-42.9 0 21.45 21.45 0 1 0 42.87 0z" fill="#57a300"/><path d="M44.67 24.64A19.32 19.32 0 1 1 25.35 5.31a19.32 19.32 0 0 1 19.32 19.33z" fill="#57a300"/><path d="M22.21 35.99L12.02 20.23v-.19l9.55 4.27 15.74-11z" fill="#fff"/></svg><svg height="49.84" viewBox="0 0 50 50" width="49.84" x="4" y="1238"><title>case-content-before</title><path d="M49.84 24.93a24.92 24.92 0 1 1-49.82-.02 24.92 24.92 0 1 1 49.84 0zm-3.53 0a21.39 21.39 0 0 0-42.77-.91v.92a21.39 21.39 0 0 0 42.77-.01z" fill="#bf3d27"/><path d="M6.02 25.29a19.26 19.26 0 1 1 19.26 19.27A19.27 19.27 0 0 1 6.02 25.29z" fill="#bf3d27"/><path d="M36.1 31.24l-5.86 5.86-5.68-5.68-5.68 5.68-5.86-5.86 5.68-5.68-5.68-5.68 5.86-5.86 5.68 5.68 5.68-5.68 5.86 5.86-5.69 5.68z" fill="#fff"/></svg><svg height="41.3" viewBox="0 0 42 42" width="41.3" x="4" y="1292"><title>page-footer__contacts-tel</title><g data-name="if Rounded-15 2024660"><path d="M.65 20.65a20 20 0 1 0 20-20 20 20 0 0 0-20 20z" fill="none" stroke="#fff" stroke-width="1.3"/><path data-name="Shape" d="M21.86 24.92c.63-.06 1.84-1.2 2.5-1.25a2.5 2.5 0 0 1 1.74.5l1.67 1.25 1 .8a1.57 1.57 0 0 1 .27 2.26l-1.94 2.5a.7.7 0 0 1-.62.27c-8.44-.76-15.15-7.66-15.15-16.05a15.63 15.63 0 0 1 .63-4.38.41.41 0 0 1 .31-.28l3.69-.52a1.64 1.64 0 0 1 1.95 1.25l.24 1.24.41 2a2.34 2.34 0 0 1-.33 1.74c-.34.53-1.93 1-2.27 1.58a12.12 12.12 0 0 0 5.91 7.14v-.1z" fill="#fff"/></g></svg><svg height="41.3" viewBox="0 0 42 42" width="41.3" x="4" y="1338"><title>page-footer__contacts-mail</title><g data-name="if Rounded-07 2024667"><path d="M.65 20.65a20 20 0 1 0 20-20 20 20 0 0 0-20 20z" fill="none" stroke="#fff" stroke-width="1.3"/><rect x="10.65" y="13.15" width="20" height="15.11" rx="1.48" ry="1.48" fill="#fff"/><path data-name="Shape" d="M30.3 13.65l-6.82 7.32a3.92 3.92 0 0 1-5.67 0L11 13.65m13.52 6.22l5.6 8m-13.23-7.92l-5.8 7.89" fill="none" stroke="#213c4e" stroke-linejoin="round" stroke-width="2"/></g></svg><svg height="39.92" viewBox="0 0 40 40" width="39.92" x="4" y="1384"><title>inst</title><g data-name="if instagram 313477" fill="#fff"><path d="M19.96-.04a20 20 0 1 0 20 20 20 20 0 0 0-20-20zm13.23 33.23A18.71 18.71 0 0 1 6.73 6.73a18.71 18.71 0 0 1 26.46 26.46z"/><path data-name="Shape" d="M13.06 10.52h14a2.37 2.37 0 0 1 2.39 2.39v14.05a2.43 2.43 0 0 1-2.39 2.46h-14a2.48 2.48 0 0 1-2.45-2.46v-14a2.42 2.42 0 0 1 2.45-2.39zm11.33 2.09a.82.82 0 0 0-.84.82v2a.81.81 0 0 0 .84.82h2.13a.84.84 0 0 0 .87-.82v-2a.85.85 0 0 0-.87-.82h-2.13zm3 5.85h-1.67a5.51 5.51 0 0 1 .24 1.62 5.87 5.87 0 0 1-11.73 0 5.49 5.49 0 0 1 .24-1.62h-1.78v8a.82.82 0 0 0 .79.78h13.15a.79.79 0 0 0 .76-.78v-8zm-7.3-2.25a3.68 3.68 0 1 0 3.79 3.67 3.73 3.73 0 0 0-3.79-3.67z"/></g></svg><svg height="39.92" viewBox="0 0 40 40" width="39.92" x="4" y="1428"><title>fb</title><g data-name="if facebook 313485" fill="#fff"><path d="M21.96 16.96V14.7c0-1 .25-1.5 1.83-1.5h1.93V9.44h-3.26c-4.05 0-5.34 1.8-5.34 5v2.52h-2.75v3.84h2.76v11.35h4.83V20.8h3.36l.45-3.84h-3.81z"/><path data-name="Shape" d="M19.96-.04a20 20 0 1 0 20 20 20 20 0 0 0-20-20zm13.23 33.23A18.71 18.71 0 0 1 6.73 6.73a18.71 18.71 0 0 1 26.46 26.46z"/></g></svg><svg height="39.92" viewBox="0 0 40 40" width="39.92" x="4" y="1472"><title>in</title><g data-name="if linkedin 313475" fill="#fff"><path d="M29.96 29.48v-7.42c0-3.83-2.08-5.61-4.77-5.61a4.21 4.21 0 0 0-3.74 2.08v-1.74h-4.08v12.69h4.09v-7.24a2.74 2.74 0 0 1 .16-1 2.3 2.3 0 0 1 2.14-1.52c1.49 0 2.12 1.14 2.12 2.82v6.94h4.08z"/><path data-name="Shape" d="M13.04 10.4a2.11 2.11 0 0 0-2.22 2.19 2.1 2.1 0 0 0 2.14 2.19 2.11 2.11 0 0 0 2.22-2.19 2.11 2.11 0 0 0-2.14-2.19z"/><path d="M10.86 16.78h4.09v12.69h-4.09z"/><path data-name="Shape" d="M19.96-.04a20 20 0 1 0 20 20 20 20 0 0 0-20-20zm13.23 33.23A18.71 18.71 0 0 1 6.73 6.73a18.71 18.71 0 0 1 26.46 26.46z"/></g></svg><svg height="39.92" viewBox="0 0 40 40" width="39.92" x="4" y="1516"><title>inst-hover</title><path d="M19.96-.04a20 20 0 1 0 20 20 20 20 0 0 0-20-20z" fill="#fff"/><path data-name="Shape" d="M13.06 10.52h14a2.37 2.37 0 0 1 2.39 2.39v14.05a2.43 2.43 0 0 1-2.39 2.46h-14a2.48 2.48 0 0 1-2.45-2.46v-14a2.42 2.42 0 0 1 2.45-2.39zm11.33 2.09a.82.82 0 0 0-.84.82v2a.81.81 0 0 0 .84.82h2.13a.84.84 0 0 0 .87-.82v-2a.85.85 0 0 0-.87-.82h-2.13zm3 5.85h-1.67a5.51 5.51 0 0 1 .24 1.62 5.87 5.87 0 0 1-11.73 0 5.49 5.49 0 0 1 .24-1.62h-1.78v8a.82.82 0 0 0 .79.78h13.15a.79.79 0 0 0 .76-.78v-8zm-7.3-2.25a3.68 3.68 0 1 0 3.79 3.67 3.73 3.73 0 0 0-3.79-3.67z" fill="#0e4e61"/></svg><svg height="39.92" viewBox="0 0 40 40" width="39.92" x="4" y="1560"><title>fb-hover</title><g data-name="if facebook 313485"><path d="M19.96-.04a20 20 0 1 0 20 20 20 20 0 0 0-20-20z" fill="#fff"/><path d="M21.96 16.96V14.7c0-1 .25-1.5 1.83-1.5h1.93V9.44h-3.26c-4.05 0-5.34 1.8-5.34 5v2.52h-2.75v3.84h2.76v11.35h4.83V20.8h3.36l.45-3.84h-3.81z" fill="#0e4e61"/></g></svg><svg height="39.92" viewBox="0 0 40 40" width="39.92" x="4" y="1604"><title>fb-scroll</title><g data-name="if facebook 313485"><path d="M21.96 16.96V14.7c0-1 .25-1.5 1.83-1.5h1.93V9.44h-3.26c-4.05 0-5.34 1.8-5.34 5v2.52h-2.75v3.84h2.76v11.35h4.83V20.8h3.36l.45-3.84h-3.81z"/><path data-name="Shape" d="M19.96-.04a20 20 0 1 0 20 20 20 20 0 0 0-20-20zm13.23 33.23A18.71 18.71 0 0 1 6.73 6.73a18.71 18.71 0 0 1 26.46 26.46z"/></g></svg><svg height="39.92" viewBox="0 0 40 40" width="39.92" x="4" y="1648"><title>inst-scroll</title><path d="M19.96-.04a20 20 0 1 0 20 20 20 20 0 0 0-20-20zm13.23 33.23A18.71 18.71 0 0 1 6.73 6.73a18.71 18.71 0 0 1 26.46 26.46z"/><path data-name="Shape" d="M13.06 10.52h14a2.37 2.37 0 0 1 2.39 2.39v14.05a2.43 2.43 0 0 1-2.39 2.46h-14a2.48 2.48 0 0 1-2.45-2.46v-14a2.42 2.42 0 0 1 2.45-2.39zm11.33 2.09a.82.82 0 0 0-.84.82v2a.81.81 0 0 0 .84.82h2.13a.84.84 0 0 0 .87-.82v-2a.85.85 0 0 0-.87-.82h-2.13zm3 5.85h-1.67a5.51 5.51 0 0 1 .24 1.62 5.87 5.87 0 0 1-11.73 0 5.49 5.49 0 0 1 .24-1.62h-1.78v8a.82.82 0 0 0 .79.78h13.15a.79.79 0 0 0 .76-.78v-8zm-7.3-2.25a3.68 3.68 0 1 0 3.79 3.67 3.73 3.73 0 0 0-3.79-3.67z"/></svg><svg height="37.41" viewBox="0 0 38 38" width="37.41" x="4" y="1692"><defs><radialGradient id="a" cx="-277.85" cy="405.67" r=".91" gradientTransform="matrix(37.41 0 0 -37.41 10413.92 15187.38)" gradientUnits="userSpaceOnUse"><stop offset="0" stop-color="#0a6972"/><stop offset="1" stop-color="#16193f"/></radialGradient></defs><title>fb-scroll-hover</title><g data-name="if facebook 313485"><path d="M32.23 32.23A18.71 18.71 0 0 1 5.77 5.77a18.71 18.71 0 0 1 26.46 26.46z" transform="translate(-.29 -.29)" fill="url(#a)"/><path data-name="Shape" d="M20.71 15.71v-2.26c0-1 .25-1.5 1.83-1.5h1.93V8.19h-3.26c-4.05 0-5.34 1.8-5.34 5v2.52h-2.75v3.84h2.76V30.9h4.83V19.55h3.36l.45-3.84h-3.81z" fill="#fff"/></g></svg><svg height="37.41" viewBox="0 0 38 38" width="37.41" x="4" y="1734"><defs><radialGradient id="a" cx="-277.85" cy="405.67" r=".91" gradientTransform="matrix(37.41 0 0 -37.41 10413.92 15187.38)" gradientUnits="userSpaceOnUse"><stop offset="0" stop-color="#0a6972"/><stop offset="1" stop-color="#16193f"/></radialGradient></defs><title>inst-scroll-hover</title><g data-name="if instagram 313477"><path d="M32.23 32.23A18.71 18.71 0 0 1 5.77 5.77a18.71 18.71 0 0 1 26.46 26.46z" transform="translate(-.29 -.29)" fill="url(#a)"/><path data-name="Shape" d="M11.81 9.27h14a2.37 2.37 0 0 1 2.39 2.39v14.05a2.43 2.43 0 0 1-2.39 2.46h-14a2.48 2.48 0 0 1-2.45-2.46v-14a2.42 2.42 0 0 1 2.45-2.44zm11.33 2.09a.82.82 0 0 0-.84.82v2a.81.81 0 0 0 .84.82h2.13a.84.84 0 0 0 .87-.82v-2a.85.85 0 0 0-.87-.82h-2.13zm3 5.85h-1.67a5.51 5.51 0 0 1 .24 1.62 5.87 5.87 0 0 1-11.73 0 5.49 5.49 0 0 1 .24-1.62h-1.78v8a.82.82 0 0 0 .79.78h13.15a.79.79 0 0 0 .76-.78v-8zm-7.3-2.25a3.68 3.68 0 1 0 3.79 3.67 3.73 3.73 0 0 0-3.79-3.67z" fill="#fff"/></g></svg><svg height="36" viewBox="0 0 1 36" width="1" x="4" y="1776"><title>prev-next-border</title><path d="M.5 35.5V.5" fill="#fff" fill-opacity="0" stroke="#000" stroke-linecap="square" stroke-miterlimit="50"/></svg><svg height="32" viewBox="0 0 32 32" width="32" x="4" y="1816"><title>if_Rounded-07_2024667</title><g fill="none" fill-rule="evenodd"><path d="M1 16c0 8.284 6.716 15 15 15 8.284 0 15-6.716 15-15 0-8.284-6.716-15-15-15C7.716 1 1 7.716 1 16z" stroke="#FFF" stroke-width="1.3" fill-rule="nonzero"/><g transform="translate(8.5 10.375)"><rect fill="#FFF" width="15" height="11.334" rx="1.48"/><path d="M14.738.39L9.623 5.877a2.94 2.94 0 0 1-4.251 0L.262.394m10.14 4.646l4.2 5.98M4.678 5.1l-4.35 5.92" stroke="#272B44" stroke-width="2" stroke-linejoin="round"/></g></g></svg><svg height="32" viewBox="0 0 32 32" width="32" x="4" y="1852"><title>if_Rounded-15_2024660</title><g fill="none" fill-rule="evenodd"><path d="M1 16c0 8.284 6.716 15 15 15 8.284 0 15-6.716 15-15 0-8.284-6.716-15-15-15C7.716 1 1 7.716 1 16z" stroke="#FFF" stroke-width="1.3" fill-rule="nonzero"/><path d="M16.905 19.206c.468-.042 1.383-.9 1.875-.937.466-.042.93.092 1.303.375l1.256.937.755.6a1.181 1.181 0 0 1 .201 1.697l-1.457 1.875a.525.525 0 0 1-.47.202c-6.327-.567-11.362-5.747-11.362-12.038 0-1.11.158-2.215.469-3.281a.31.31 0 0 1 .234-.211l2.77-.39a1.233 1.233 0 0 1 1.463.938l.183.933.305 1.528c.09.45.001.918-.249 1.304-.253.393-1.448.787-1.706 1.185a9.09 9.09 0 0 0 4.43 5.358v-.075z" fill="#FFF"/></g></svg><svg height="29.94" viewBox="0 0 30 30" width="29.94" x="4" y="1888"><title>inst-scroll-mobile</title><path d="M14.97-.03a15 15 0 1 0 15 15 15 15 0 0 0-15-15zm9.92 24.89A14.018 14.018 0 0 1 5.05 5.05a14.029 14.029 0 0 1 19.84 19.84z"/><path data-name="Shape" d="M9.79 7.89h10.53a1.78 1.78 0 0 1 1.79 1.79V20.2a1.82 1.82 0 0 1-1.79 1.84H9.79a1.86 1.86 0 0 1-1.82-1.84V9.68a1.82 1.82 0 0 1 1.82-1.79zm8.5 1.57a.61.61 0 0 0-.63.62v1.53a.61.61 0 0 0 .63.61h1.6a.63.63 0 0 0 .65-.61v-1.53a.64.64 0 0 0-.65-.62h-1.6zm2.25 4.38h-1.25a4.13 4.13 0 0 1 .18 1.22 4.4 4.4 0 0 1-8.8 0 4.12 4.12 0 0 1 .18-1.22H9.52v6a.61.61 0 0 0 .59.59h9.86a.59.59 0 0 0 .57-.59v-6zm-5.47-1.68a2.76 2.76 0 1 0 2.84 2.75 2.8 2.8 0 0 0-2.84-2.75z"/></svg><svg height="29.94" viewBox="0 0 30 30" width="29.94" x="4" y="1922"><title>fb-scroll-mobile</title><g data-name="if facebook 313485"><path d="M16.47 12.72v-1.7c0-.76.18-1.13 1.37-1.13h1.45V7.08h-2.44c-3 0-4 1.35-4 3.74v1.89h-2.08v2.88h2.07v8.52h3.63V15.6h2.5l.34-2.88h-2.84z"/><path data-name="Shape" d="M14.97-.03a15 15 0 1 0 15 15 15 15 0 0 0-15-15zm9.92 24.89A14.018 14.018 0 0 1 5.05 5.05a14.029 14.029 0 0 1 19.84 19.84z"/></g></svg><svg height="18" viewBox="0 0 25 18" width="25" x="4" y="1956"><title>burger-scroll</title><path d="M1 1h23M1 9h23M1 17h23" fill="none" stroke="#000" stroke-linecap="round" stroke-miterlimit="50" stroke-width="2"/></svg><svg height="18" viewBox="0 0 25 18" width="25" x="4" y="1978"><title>page-header-button</title><path d="M1 1h23M1 9h23M1 17h23" fill="none" stroke="#fff" stroke-linecap="round" stroke-width="2"/></svg><svg height="15" viewBox="0 0 23 15" width="23" x="4" y="2000"><defs><path id="a" d="M711 462.09l8.36 7.37L731.9 457"/></defs><use fill="#fff" fill-opacity="0" stroke="#0e4e61" stroke-linecap="round" stroke-miterlimit="50" stroke-width="2" xlink:href="#a" transform="translate(-710 -456)"/></svg><svg height="13" viewBox="0 0 14 13" width="14" x="4" y="2019"><title>Shape</title><defs><radialGradient cy="100%" fx="50%" fy="100%" r="142.05%" gradientTransform="scale(.92857 1) rotate(63.626 .52 1.031)" id="a"><stop stop-color="#0A6972" offset="0%"/><stop stop-color="#16193F" offset="100%"/></radialGradient></defs><path d="M13.983 4.94c-.046-.14-.198-.268-.448-.283l-4.46-.29-1.66-4.04C7.322.1 7.15 0 7 0c-.15 0-.323.1-.414.328L4.924 4.367l-4.46.29c-.25.015-.4.144-.447.283-.047.139-.002.33.192.485L3.64 8.21l-1.094 4.22c-.063.235.016.415.137.501.122.086.322.104.533-.028L7 10.587l3.783 2.318c.211.13.411.113.533.027.121-.086.2-.266.137-.502L10.36 8.212l3.432-2.787c.194-.155.239-.346.192-.485z" fill="url(#a)"/></svg><svg height="11" viewBox="0 0 11 11" width="11" x="4" y="2036"><title>Shape</title><path d="M3.81 6.994l-2.458-2.83L0 5.72l3.244 3.736.596.677L11 1.587 9.622 0z" fill="#132E4C"/></svg></svg>