<svg id="Layer_1" data-name="Layer 1" xmlns="http://www.w3.org/2000/svg" xmlns:xlink="http://www.w3.org/1999/xlink" viewBox="0 0 67.43 72.99"><defs><linearGradient id="linear-gradient" x1="3086.85" y1="754.6" x2="5565.85" y2="3026.56" gradientTransform="matrix(1, 0, 0, -1, -821, -1238)" gradientUnits="userSpaceOnUse"><stop offset="0" stop-color="#0031a6"/><stop offset="1" stop-color="#1cbcff"/></linearGradient></defs><title>blockIcon2</title><path id="a" d="M58,54A9.5,9.5,0,1,1,49.18,60L24.09,48.55a12.23,12.23,0,1,1-1.75-13.81l13.52-9A17.36,17.36,0,0,1,63.13,4.91,16.69,16.69,0,0,0,51.72.42h0A16.66,16.66,0,0,0,39.26,28.24a8.6,8.6,0,0,1,3.12-5.37A11.85,11.85,0,0,1,41.31,18,10.62,10.62,0,0,1,62.53,17q0,0.46,0,.92a11.84,11.84,0,0,1-1.06,4.9,8.6,8.6,0,0,1,3.06,5,16.67,16.67,0,0,0,3.73-8.31,17.35,17.35,0,0,1-31.7,7.37L23.13,35.8a12.12,12.12,0,0,1,1.52,11.49L49.77,58.73A9.48,9.48,0,0,1,58,54v0ZM63.13,4.91a16.67,16.67,0,0,1,5.13,14.62A17.27,17.27,0,0,0,63.13,4.91Zm-0.88,24.7A6.13,6.13,0,0,0,58,23.72,8.92,8.92,0,0,0,60,17.92a8.15,8.15,0,1,0-16.26,0,8.92,8.92,0,0,0,2.08,5.8,6.12,6.12,0,0,0-4.24,5.89v0.81a16.94,16.94,0,0,0,1.42,1V29.61a4.72,4.72,0,0,1,4.7-4.7h0.75v-0.7A7.36,7.36,0,0,1,45.22,18a6.71,6.71,0,0,1,13.43,0h0a7.37,7.37,0,0,1-3.28,6.23v0.7h0.75a4.7,4.7,0,0,1,4.7,4.7v1.52c0.49-.32,1-0.66,1.43-1V29.61ZM44.47,32.15A16.52,16.52,0,0,0,59.41,32V29.61a3.3,3.3,0,0,0-3.29-3.29H54.66a0.71,0.71,0,0,1-.71-0.71V23.8a0.72,0.72,0,0,1,.36-0.62A5.88,5.88,0,0,0,57.22,18a5.38,5.38,0,1,0-10.58,0,5.9,5.9,0,0,0,2.92,5.21,0.72,0.72,0,0,1,.36.62v1.81a0.71,0.71,0,0,1-.71.71H47.74a3.31,3.31,0,0,0-3.29,3.29v2.55h0Zm18.47-2.67v0l0,0h0Zm0,0a15.3,15.3,0,0,0,1.33-1.34,8.14,8.14,0,0,0-3.19-5.19,11.32,11.32,0,0,0,1.15-5,10.27,10.27,0,1,0-20.5,0,11.32,11.32,0,0,0,1.15,5,8.19,8.19,0,0,0-3.27,5.58A16.93,16.93,0,0,0,41,29.85V29.61a6.8,6.8,0,0,1,3.84-6.15A9.71,9.71,0,0,1,43.1,18a8.85,8.85,0,1,1,17.67,0,9.73,9.73,0,0,1-1.67,5.5,6.77,6.77,0,0,1,3.84,6h0ZM25.09,42.87a11.82,11.82,0,0,0-2.31-7L21.18,37a9.85,9.85,0,0,1,1.34,9.4l1.76,0.79a11.83,11.83,0,0,0,.81-4.28h0ZM13.19,49a6.12,6.12,0,1,0-6.13-6.11A6.12,6.12,0,0,0,13.19,49h0Zm6.63-12.61a9.33,9.33,0,1,0,1.55,10.94l-1.69-.76a7.45,7.45,0,1,1-1.45-9.15Zm2.09,9.71a9.18,9.18,0,0,0-1.23-8.69l-1.54,1a7.36,7.36,0,0,1,1.07,6.9Zm-8.72,8.68a11.91,11.91,0,0,0,10.52-6.4L22,47.57A10,10,0,1,1,20.33,36L22,34.89a11.89,11.89,0,1,0-8.78,19.89v0ZM58,72.67a9.16,9.16,0,1,0-7.89-13.8l1,0.46a8.06,8.06,0,1,1-.6,1.2l-1-.46A9.13,9.13,0,0,0,58,72.67h0Zm0-13.78a4.55,4.55,0,0,0-3.27,1.35A4.6,4.6,0,1,0,58,58.9h0Zm0,10.49a6,6,0,0,1-6-5.87,6,6,0,0,1,.41-2.1l-1.64-.75a7.7,7.7,0,1,0,.6-1.2L53,60.2A6,6,0,1,1,58,69.44Z" transform="translate(-1.01 -0.05)" style="fill:url(#linear-gradient)"/></svg>