<svg id="Layer_1" data-name="Layer 1" xmlns="http://www.w3.org/2000/svg" xmlns:xlink="http://www.w3.org/1999/xlink" viewBox="0 0 54.89 78.26"><defs><linearGradient id="linear-gradient" x1="1202" y1="-1782.3" x2="1233.52" y2="-1646.28" gradientTransform="matrix(1, 0, 0, -1, -1227, -1592)" gradientUnits="userSpaceOnUse"><stop offset="0" stop-color="#0031a6"/><stop offset="1" stop-color="#1cbcff"/></linearGradient><linearGradient id="linear-gradient-2" x1="2119.94" y1="-509.89" x2="2274.94" y2="-311.46" xlink:href="#linear-gradient"/><linearGradient id="linear-gradient-3" x1="7629.63" y1="3555.17" x2="8249.63" y2="4059.01" xlink:href="#linear-gradient"/><linearGradient id="linear-gradient-4" x1="1210.87" y1="-1809.78" x2="1223.67" y2="-1719.12" xlink:href="#linear-gradient"/><linearGradient id="linear-gradient-5" x1="1221.61" y1="-1675.04" x2="1233.98" y2="-1629.71" xlink:href="#linear-gradient"/><linearGradient id="linear-gradient-6" x1="1201.32" y1="-1803.05" x2="1231.68" y2="-1667.03" xlink:href="#linear-gradient"/><linearGradient id="linear-gradient-7" x1="4602.03" y1="953.88" x2="4912.03" y2="1192.62" xlink:href="#linear-gradient"/><linearGradient id="linear-gradient-8" x1="1231.51" y1="-1627.08" x2="1247.11" y2="-1581.75" xlink:href="#linear-gradient"/><linearGradient id="linear-gradient-9" x1="1259.44" y1="-1568.99" x2="1295.21" y2="-1478.33" xlink:href="#linear-gradient"/><linearGradient id="linear-gradient-10" x1="5748.82" y1="4758.2" x2="6709.82" y2="6123.61" xlink:href="#linear-gradient"/><linearGradient id="linear-gradient-11" x1="1332.97" y1="-1498.66" x2="1441.72" y2="-1226.68" xlink:href="#linear-gradient"/><linearGradient id="linear-gradient-12" x1="3603.81" y1="2771.28" x2="4573.55" y2="4584.88" xlink:href="#linear-gradient"/><linearGradient id="linear-gradient-13" x1="3297.45" y1="890.94" x2="3638.45" y2="1316.54" xlink:href="#linear-gradient"/><linearGradient id="linear-gradient-14" x1="1264.04" y1="-1714.14" x2="1274.5" y2="-1668.8" xlink:href="#linear-gradient"/><linearGradient id="linear-gradient-15" x1="1261.62" y1="-1706.6" x2="1273.42" y2="-1661.26" xlink:href="#linear-gradient"/><linearGradient id="linear-gradient-16" x1="1180.47" y1="-2177.06" x2="1219.18" y2="-1905.08" xlink:href="#linear-gradient"/><linearGradient id="linear-gradient-17" x1="1222.8" y1="-1709.34" x2="1233.11" y2="-1664.01" xlink:href="#linear-gradient"/><linearGradient id="linear-gradient-18" x1="1440.57" y1="-1434.01" x2="1473.65" y2="-1388.68" xlink:href="#linear-gradient"/><linearGradient id="linear-gradient-19" x1="1248.07" y1="-1726.16" x2="1291.48" y2="-1590.17" xlink:href="#linear-gradient"/><linearGradient id="linear-gradient-20" x1="1210.83" y1="-2035.53" x2="1232.19" y2="-1854.17" xlink:href="#linear-gradient"/><linearGradient id="linear-gradient-21" x1="1220.76" y1="-1731.37" x2="1245.91" y2="-1640.71" xlink:href="#linear-gradient"/><linearGradient id="linear-gradient-22" x1="1192.36" y1="-2123" x2="1223.53" y2="-1896.35" xlink:href="#linear-gradient"/><linearGradient id="linear-gradient-23" x1="1227.95" y1="-1767.24" x2="1267.91" y2="-1631.23" xlink:href="#linear-gradient"/><linearGradient id="linear-gradient-24" x1="3169.93" y1="2149.12" x2="4111.81" y2="4008.06" xlink:href="#linear-gradient"/></defs><title>blockIcon6</title><path id="a" d="M5.35,45.72a0.35,0.35,0,1,1,0-.7,22.31,22.31,0,0,0,6.78-2,0.34,0.34,0,0,1,.35,0,0.36,0.36,0,0,1,.15.32,0.33,0.33,0,0,1-.19.29,22.5,22.5,0,0,1-7,2.05H5.35Z" transform="translate(-0.04 0.51)" style="fill:url(#linear-gradient)"/><path id="c" d="M14.71,42.49A0.69,0.69,0,0,1,14,42a0.7,0.7,0,0,1,.24-0.79,14.63,14.63,0,0,0,3.55-3.89A0.72,0.72,0,0,1,18.46,37,0.7,0.7,0,0,1,19,38.08a16.18,16.18,0,0,1-3.88,4.24A0.67,0.67,0,0,1,14.71,42.49Z" transform="translate(-0.04 0.51)" style="fill:url(#linear-gradient-2)"/><path id="e" d="M15.85,56.05a0.72,0.72,0,0,1-.26-1.41c12-4.8,18.08-14.14,18.08-27.57a5.66,5.66,0,0,0-11.31,0A21.72,21.72,0,0,1,20.94,35a0.7,0.7,0,0,1-.55.49,0.71,0.71,0,0,1-.68-0.27,0.67,0.67,0,0,1-.08-0.73,20.62,20.62,0,0,0,1.27-7.38,7.07,7.07,0,1,1,14.14,0c0,14.14-6.38,23.86-19,28.88a0.62,0.62,0,0,1-.22.1h0Z" transform="translate(-0.04 0.51)" style="fill:url(#linear-gradient-3)"/><path id="g" d="M2.18,58.9A0.18,0.18,0,0,1,2,58.72H2a0.18,0.18,0,0,1,.18-0.17A61.05,61.05,0,0,0,10.66,57a0.15,0.15,0,0,1,.13,0,0.21,0.21,0,0,1,.08.11,0.2,0.2,0,0,1-.13.22,60.77,60.77,0,0,1-8.48,1.54H2.18Z" transform="translate(-0.04 0.51)" style="fill:url(#linear-gradient-4)"/><path id="i" d="M1.13,51.85A0.18,0.18,0,0,1,1,51.67a0.17,0.17,0,0,1,.13-0.17C2.55,51.38,4,51.23,5.28,51a0.17,0.17,0,0,1,.19.14,0.15,0.15,0,0,1,0,.13,0.14,0.14,0,0,1-.11.07c-1.33.23-2.74,0.4-4.24,0.51h0Z" transform="translate(-0.04 0.51)" style="fill:url(#linear-gradient-5)"/><path id="k" d="M7.34,51.59A0.36,0.36,0,0,1,7,51.28a0.35,0.35,0,0,1,.26-0.38A33.1,33.1,0,0,0,12.91,49a0.35,0.35,0,0,1,.28.65,33.24,33.24,0,0,1-5.82,1.89Z" transform="translate(-0.04 0.51)" style="fill:url(#linear-gradient-6)"/><path id="m" d="M18.7,45.88a0.7,0.7,0,0,1-.44-1.25c5.39-4.24,8.35-10.68,8.78-19a0.73,0.73,0,0,1,.23-0.5A0.66,0.66,0,0,1,27.79,25a0.72,0.72,0,0,1,.67.75c-0.47,8.7-3.59,15.43-9.3,20A0.68,0.68,0,0,1,18.7,45.88Z" transform="translate(-0.04 0.51)" style="fill:url(#linear-gradient-7)"/><path id="o" d="M1.18,40A0.18,0.18,0,0,1,1,39.81a0.18,0.18,0,0,1,.18-0.18A31.32,31.32,0,0,0,4.77,39a0.15,0.15,0,0,1,.13,0,0.21,0.21,0,0,1,.08.11,0.17,0.17,0,0,1,0,.14,0.15,0.15,0,0,1-.11.08A32,32,0,0,1,1.22,40h0Z" transform="translate(-0.04 0.51)" style="fill:url(#linear-gradient-8)"/><path id="q" d="M7.34,38.15A0.34,0.34,0,0,1,7,37.86a0.35,0.35,0,0,1,.21-0.39,14.16,14.16,0,0,0,2.7-1.41,0.35,0.35,0,0,1,.49.09h0a0.35,0.35,0,0,1-.1.49,14.42,14.42,0,0,1-2.83,1.42Z" transform="translate(-0.04 0.51)" style="fill:url(#linear-gradient-9)"/><path id="s" d="M42.94,44.58a0.7,0.7,0,0,1-.67-0.51c-1.11-3.75-1.57-9-1.56-17.6a12.49,12.49,0,0,0-24.95,0,15.39,15.39,0,0,1-1.42,6.61,0.7,0.7,0,0,1-.93.33h0a0.72,0.72,0,0,1-.33-0.95,14,14,0,0,0,1.26-6,13.9,13.9,0,0,1,27.78,0c0,8.49.44,13.59,1.5,17.21a0.73,0.73,0,0,1-.06.54,0.75,0.75,0,0,1-.42.34Z" transform="translate(-0.04 0.51)" style="fill:url(#linear-gradient-10)"/><path id="u" d="M54.26,52.45c-5.5,0-9-1.71-11.17-5.39a0.72,0.72,0,0,1,.27-1,0.7,0.7,0,0,1,1,.26h0c1.87,3.23,4.94,4.68,9.9,4.68a0.7,0.7,0,0,1,.71.69h0a0.68,0.68,0,0,1-.65.71h0Z" transform="translate(-0.04 0.51)" style="fill:url(#linear-gradient-11)"/><path id="w" d="M53.73,40.26a0.17,0.17,0,0,1-.17-0.17h0V26A25.6,25.6,0,1,0,2.35,26h0a0.17,0.17,0,0,1-.17.13A0.18,0.18,0,0,1,2,26a26,26,0,0,1,51.91-1q0,0.51,0,1V40.09a0.19,0.19,0,0,1-.05.13,0.16,0.16,0,0,1-.13,0h0Z" transform="translate(-0.04 0.51)" style="fill:url(#linear-gradient-12)"/><path id="y" d="M45.22,57a0.48,0.48,0,0,1-.29,0A18.9,18.9,0,0,1,35,44.94a0.72,0.72,0,0,1,.18-0.71,0.73,0.73,0,0,1,.7-0.21,0.72,0.72,0,0,1,.53.51,17.56,17.56,0,0,0,9.11,11.13,0.71,0.71,0,0,1,.54.48,0.74,0.74,0,0,1-.15.71,0.75,0.75,0,0,1-.69.22Z" transform="translate(-0.04 0.51)" style="fill:url(#linear-gradient-13)"/><path id="A-2" data-name="A" d="M53,59.05a18.73,18.73,0,0,1-3.74-.35A0.36,0.36,0,0,1,49,58.47a0.37,0.37,0,0,1,.07-0.35A0.32,0.32,0,0,1,49.42,58a19.24,19.24,0,0,0,4.67.27,0.35,0.35,0,0,1,.35.35,0.35,0.35,0,0,1-.35.35Z" transform="translate(-0.04 0.51)" style="fill:url(#linear-gradient-14)"/><path id="C-2" data-name="C" d="M50.38,64.44a17.13,17.13,0,0,1-5.13-.75A0.34,0.34,0,0,1,45,63.27v0A0.34,0.34,0,0,1,45.44,63h0a16.77,16.77,0,0,0,4.92.7,0.36,0.36,0,0,1,0,.71h0Z" transform="translate(-0.04 0.51)" style="fill:url(#linear-gradient-15)"/><path id="E-2" data-name="E" d="M13.34,63.05A0.34,0.34,0,0,1,13,62.76a0.35,0.35,0,0,1,.21-0.39q2.27-.9,4.46-2C21.44,58.65,25,57,29.18,57s7.07,1.68,10.06,3.46c1,0.61,2.09,1.25,3.23,1.8a0.36,0.36,0,0,1,.15.47,0.36,0.36,0,0,1-.47.15q-1.67-.84-3.26-1.82c-2.91-1.73-5.66-3.37-9.7-3.37S21.68,59.32,18,61q-2.21,1.1-4.51,2Z" transform="translate(-0.04 0.51)" style="fill:url(#linear-gradient-16)"/><path id="G-2" data-name="G" d="M5.35,64.38a0.35,0.35,0,1,1,0-.71A20.86,20.86,0,0,0,10.57,63a0.35,0.35,0,0,1,.17.68h0A21.77,21.77,0,0,1,5.35,64.38Z" transform="translate(-0.04 0.51)" style="fill:url(#linear-gradient-17)"/><path id="I-2" data-name="I" d="M47.72,70.62a7.46,7.46,0,0,1-1.57-.26A0.2,0.2,0,0,1,46,70.28a0.14,0.14,0,0,1,0-.14A0.19,0.19,0,0,1,46.22,70a12.7,12.7,0,0,0,1.54.26,0.18,0.18,0,0,1,.18.17,0.18,0.18,0,0,1-.18.18h0Z" transform="translate(-0.04 0.51)" style="fill:url(#linear-gradient-18)"/><path id="K-2" data-name="K" d="M44.7,69.85A28.24,28.24,0,0,1,39,67.29,0.21,0.21,0,0,1,39,67,0.2,0.2,0,0,1,39.16,67a27.79,27.79,0,0,0,5.78,2.58,0.18,0.18,0,0,1,.13.18,0.17,0.17,0,0,1-.13.17Z" transform="translate(-0.04 0.51)" style="fill:url(#linear-gradient-19)"/><path id="M-2" data-name="M" d="M19.34,67.59A0.35,0.35,0,0,1,19,67.32a0.34,0.34,0,0,1,.18-0.39A21.3,21.3,0,0,1,29.08,64a16.52,16.52,0,0,1,8.09,2.38,0.36,0.36,0,0,1,.17.21,0.32,0.32,0,0,1,0,.27,0.36,0.36,0,0,1-.21.17,0.42,0.42,0,0,1-.27,0,15.83,15.83,0,0,0-7.75-2.29,20.82,20.82,0,0,0-9.63,2.82Z" transform="translate(-0.04 0.51)" style="fill:url(#linear-gradient-20)"/><path id="O-2" data-name="O" d="M10.13,70.38A0.2,0.2,0,0,1,10,70.2,0.18,0.18,0,0,1,10.13,70a25,25,0,0,0,6.08-2,0.22,0.22,0,0,1,.18,0,0.18,0.18,0,0,1,.07.17,0.2,0.2,0,0,1-.11.14,25.7,25.7,0,0,1-6.16,2Z" transform="translate(-0.04 0.51)" style="fill:url(#linear-gradient-21)"/><path id="Q-2" data-name="Q" d="M16.17,75.92A0.18,0.18,0,0,1,16,75.75a0.18,0.18,0,0,1,.17-0.17,31.83,31.83,0,0,0,4.95-2.13A16.8,16.8,0,0,1,28.94,71a10.52,10.52,0,0,1,5.41,1.8,14.44,14.44,0,0,0,5.53,2.07,0.19,0.19,0,0,1,.12.07,0.15,0.15,0,0,1,0,.13,0.18,0.18,0,0,1-.19.16,14.73,14.73,0,0,1-5.66-2.12,10.25,10.25,0,0,0-5.24-1.76,16.59,16.59,0,0,0-7.72,2.41,32.37,32.37,0,0,1-5,2.15H16.17Z" transform="translate(-0.04 0.51)" style="fill:url(#linear-gradient-22)"/><path id="S-2" data-name="S" d="M32.24,77.69a0.17,0.17,0,0,1-.17-0.17h0a2.37,2.37,0,0,0-4.71,0,0.18,0.18,0,0,1-.28.2,0.18,0.18,0,0,1-.07-0.2,2.71,2.71,0,0,1,5.41,0,0.17,0.17,0,0,1-.05.12,0.17,0.17,0,0,1-.13.05h0Z" transform="translate(-0.04 0.51)" style="fill:url(#linear-gradient-23)"/><path id="U-2" data-name="U" d="M54.2,46.54a6.56,6.56,0,0,1-4.92-1.73c-2.69-2.71-2.65-8.28-2.59-16.71V26.45a19.18,19.18,0,0,0-38.35,0c0,5.47-3.82,6.64-7.95,7.07a0.36,0.36,0,0,1-.07-0.71c4.52-.49,7.32-1.72,7.32-6.39a19.89,19.89,0,1,1,39.77,0v1.66c0,8-.11,13.7,2.38,16.2a5.88,5.88,0,0,0,4.42,1.51,0.36,0.36,0,1,1,0,.71v0Z" transform="translate(-0.04 0.51)" style="fill:url(#linear-gradient-24)"/></svg>