<svg id="Layer_1" data-name="Layer 1" xmlns="http://www.w3.org/2000/svg" xmlns:xlink="http://www.w3.org/1999/xlink" viewBox="0 0 69.27 62.1"><defs><linearGradient id="linear-gradient" x1="421.51" y1="-1308.54" x2="477.01" y2="-1253.04" gradientTransform="matrix(1, 0, 0, -1, -420, -1253)" gradientUnits="userSpaceOnUse"><stop offset="0" stop-color="#8a8ed8"/><stop offset="1" stop-color="#ac2588"/></linearGradient><linearGradient id="linear-gradient-2" x1="-1519.48" y1="-3490.44" x2="817" y2="-908.12" xlink:href="#linear-gradient"/><linearGradient id="linear-gradient-3" x1="-1417.55" y1="-3382.78" x2="791.84" y2="-949.44" xlink:href="#linear-gradient"/><linearGradient id="linear-gradient-4" x1="447.42" y1="-1373.83" x2="450.07" y2="-1324.16" xlink:href="#linear-gradient"/><linearGradient id="linear-gradient-5" x1="442.17" y1="-1381.14" x2="443.86" y2="-1331.48" xlink:href="#linear-gradient"/><linearGradient id="linear-gradient-6" x1="436.03" y1="-1382.24" x2="436.78" y2="-1332.57" xlink:href="#linear-gradient"/><linearGradient id="linear-gradient-7" x1="439.75" y1="-1373.46" x2="440.32" y2="-1323.79" xlink:href="#linear-gradient"/><linearGradient id="linear-gradient-8" x1="448" y1="-1358.17" x2="448.62" y2="-1308.5" xlink:href="#linear-gradient"/><linearGradient id="linear-gradient-9" x1="325.83" y1="-1361.38" x2="475.83" y2="-1212.37" xlink:href="#linear-gradient"/><linearGradient id="linear-gradient-10" x1="330.84" y1="-1361.36" x2="480.84" y2="-1212.38" xlink:href="#linear-gradient"/><linearGradient id="linear-gradient-11" x1="334.83" y1="-1361.37" x2="484.83" y2="-1212.39" xlink:href="#linear-gradient"/><linearGradient id="linear-gradient-12" x1="239.21" y1="-2167.88" x2="344.82" y2="-1720.85" xlink:href="#linear-gradient"/><linearGradient id="linear-gradient-13" x1="255.46" y1="-1826.71" x2="359.43" y2="-1528.69" xlink:href="#linear-gradient"/><linearGradient id="linear-gradient-14" x1="266.4" y1="-1722.36" x2="375.97" y2="-1474.01" xlink:href="#linear-gradient"/><linearGradient id="linear-gradient-15" x1="358.82" y1="-1394.34" x2="508.82" y2="-1245.36" xlink:href="#linear-gradient"/><linearGradient id="linear-gradient-16" x1="258.42" y1="-1428.73" x2="558.42" y2="-1157.84" xlink:href="#linear-gradient"/><linearGradient id="linear-gradient-17" x1="400.71" y1="-1346.55" x2="420.38" y2="-1296.88" xlink:href="#linear-gradient"/><linearGradient id="linear-gradient-18" x1="357.71" y1="-1335.12" x2="557.71" y2="-1180.8" xlink:href="#linear-gradient"/><linearGradient id="linear-gradient-19" x1="401.7" y1="-1342.4" x2="426.74" y2="-1292.73" xlink:href="#linear-gradient"/></defs><title>blockIcon1</title><path id="a" d="M54.76,53H2.68A2.68,2.68,0,0,1,0,50.36H0V8.2A7.22,7.22,0,0,1,7.2,1h43a7.22,7.22,0,0,1,7.2,7.2V50.35A2.7,2.7,0,0,1,54.76,53ZM7.2,2.12A6.08,6.08,0,0,0,1.12,8.2V50.35a1.56,1.56,0,0,0,1.56,1.57H54.76a1.56,1.56,0,0,0,1.56-1.57V8.2a6.1,6.1,0,0,0-6.09-6.08H7.2Z" transform="translate(0 -1)" style="fill:url(#linear-gradient)"/><path id="c" d="M61.41,58.51H9.48A2.48,2.48,0,0,1,7,56V52.45H7.56V56A1.92,1.92,0,0,0,9.48,58H61.41A1.91,1.91,0,0,0,63.33,56V12.59a5,5,0,0,0-5-5H57.1V7h1.32a5.51,5.51,0,0,1,5.47,5.55V56.06a2.48,2.48,0,0,1-2.48,2.45h0Z" transform="translate(0 -1)" style="fill:url(#linear-gradient-2)"/><path id="e" d="M67,63.1H17.24A2.24,2.24,0,0,1,15,60.86V57.41h0.28v3.45a2,2,0,0,0,2,2H67a2,2,0,0,0,2-2V19.17a4.88,4.88,0,0,0-4.88-4.89H62.84V14h1.27a5.16,5.16,0,0,1,5.16,5.16h0V60.85a2.2,2.2,0,0,1-.65,1.59A2.27,2.27,0,0,1,67,63.1h0Z" transform="translate(0 -1)" style="fill:url(#linear-gradient-3)"/><path id="g" d="M21,23.12V22H44.33v1.12H21Z" transform="translate(0 -1)" style="fill:url(#linear-gradient-4)"/><path id="i" d="M7,30.12V29H44v1.12H7Z" transform="translate(0 -1)" style="fill:url(#linear-gradient-5)"/><path id="k" d="M7,32.56V32H28v0.56H7Z" transform="translate(0 -1)" style="fill:url(#linear-gradient-6)"/><path id="m" d="M7,25.56V25H34.69v0.56H7Z" transform="translate(0 -1)" style="fill:url(#linear-gradient-7)"/><path id="o" d="M1,12.84V12H57.32v0.84H1Z" transform="translate(0 -1)" style="fill:url(#linear-gradient-8)"/><path id="q" d="M7.44,8.89A1.45,1.45,0,1,1,8.89,7.44h0A1.45,1.45,0,0,1,7.44,8.89ZM6.56,7.45a0.89,0.89,0,1,0,1.77,0h0A0.89,0.89,0,1,0,6.56,7.45Z" transform="translate(0 -1)" style="fill:url(#linear-gradient-9)"/><path id="s" d="M11,7.41a1.44,1.44,0,1,1,2.45,1.07,1.41,1.41,0,0,1-1,.4A1.44,1.44,0,0,1,11,7.41h0Zm0.51,0h0Z" transform="translate(0 -1)" style="fill:url(#linear-gradient-10)"/><path id="u" d="M15,7.44a1.45,1.45,0,1,1,1.45,1.45A1.45,1.45,0,0,1,15,7.44h0Zm0.56,0a0.89,0.89,0,1,0,.89-0.88A0.89,0.89,0,0,0,15.56,7.45Z" transform="translate(0 -1)" style="fill:url(#linear-gradient-11)"/><path id="w" d="M44.12,45.87H7V37H44.12v8.87ZM7.56,45.31h36V37.56h-36v7.75Z" transform="translate(0 -1)" style="fill:url(#linear-gradient-12)"/><path id="y" d="M28.12,46l-8.92-5.7-8,5.69L11,45.8,19.19,40l0.07,0.06,9,5.73Z" transform="translate(0 -1)" style="fill:url(#linear-gradient-13)"/><path id="A-2" data-name="A" d="M39.54,46.21L32.4,41.35l-5.22,4.13L27,45.27,32.39,41l7.3,5Z" transform="translate(0 -1)" style="fill:url(#linear-gradient-14)"/><path id="C-2" data-name="C" d="M40.43,41.86a1.43,1.43,0,1,1,0-2.86h0A1.43,1.43,0,0,1,40.43,41.86Zm0-2.59a1.12,1.12,0,0,0,0,2.24h0A1.12,1.12,0,0,0,40.43,39.27Z" transform="translate(0 -1)" style="fill:url(#linear-gradient-15)"/><path id="E-2" data-name="E" d="M7.14,22.9H7.08A0.15,0.15,0,0,1,7,22.71L10,16l3.14,6.71a0.2,0.2,0,0,1,0,.11,0.15,0.15,0,0,1-.08.08,0.15,0.15,0,0,1-.19-0.07L10,16.74,7.27,22.86a0.15,0.15,0,0,1-.13,0h0Z" transform="translate(0 -1)" style="fill:url(#linear-gradient-16)"/><path id="G-2" data-name="G" d="M11.46,20.28H8.11A0.15,0.15,0,0,1,8,20.14,0.14,0.14,0,0,1,8.11,20h3.35a0.15,0.15,0,0,1,.11.14A0.16,0.16,0,0,1,11.46,20.28Z" transform="translate(0 -1)" style="fill:url(#linear-gradient-17)"/><path id="I-2" data-name="I" d="M14.14,23.27H14.08A0.15,0.15,0,0,1,14,23.08L15.8,19l2,4.08a0.14,0.14,0,0,1,0,.11,0.1,0.1,0,0,1-.08.08,0.16,0.16,0,0,1-.19-0.06l-1.65-3.53L14.3,23.21a0.14,0.14,0,0,1-.16.06h0Z" transform="translate(0 -1)" style="fill:url(#linear-gradient-18)"/><path id="K-2" data-name="K" d="M17.13,21.28h-2A0.15,0.15,0,0,1,15,21.14,0.14,0.14,0,0,1,15.11,21h2a0.15,0.15,0,0,1,.11.14A0.16,0.16,0,0,1,17.13,21.28Z" transform="translate(0 -1)" style="fill:url(#linear-gradient-19)"/></svg>