<svg id="Layer_1" data-name="Layer 1" xmlns="http://www.w3.org/2000/svg" xmlns:xlink="http://www.w3.org/1999/xlink" viewBox="0 0 84.85 53.79"><defs><linearGradient id="linear-gradient" x1="4306.07" y1="1574.02" x2="6381.01" y2="3521.2" gradientTransform="matrix(1, 0, 0, -1, -1213, -1268)" gradientUnits="userSpaceOnUse"><stop offset="0" stop-color="#8a8ed8"/><stop offset="1" stop-color="#ac2588"/></linearGradient><linearGradient id="linear-gradient-2" x1="3356.42" y1="-44.62" x2="4051.66" y2="367.6" xlink:href="#linear-gradient"/><linearGradient id="linear-gradient-3" x1="1401.53" y1="-1129.73" x2="1524.4" y2="-1002.71" xlink:href="#linear-gradient"/><linearGradient id="linear-gradient-4" x1="5641.31" y1="1849.4" x2="7479.1" y2="3156.34" xlink:href="#linear-gradient"/><linearGradient id="linear-gradient-5" x1="284" y1="-2642.21" x2="440.55" y2="-2430.56" xlink:href="#linear-gradient"/><linearGradient id="linear-gradient-6" x1="286.68" y1="-2625.91" x2="444.68" y2="-2414.26" xlink:href="#linear-gradient"/><linearGradient id="linear-gradient-7" x1="-4750.6" y1="-7202.79" x2="-3970.06" y2="-6440.67" xlink:href="#linear-gradient"/><linearGradient id="linear-gradient-8" x1="2444.84" y1="96.07" x2="2724.17" y2="434.79" xlink:href="#linear-gradient"/><linearGradient id="linear-gradient-9" x1="1240.61" y1="-1279.32" x2="1473.41" y2="-940.68" xlink:href="#linear-gradient"/><linearGradient id="linear-gradient-10" x1="1224.92" y1="-1392.24" x2="1228.88" y2="-1349.9" xlink:href="#linear-gradient"/><linearGradient id="linear-gradient-11" x1="1222.85" y1="-1395.94" x2="1227.21" y2="-1353.61" xlink:href="#linear-gradient"/><linearGradient id="linear-gradient-12" x1="1213.6" y1="-1393.77" x2="1221.33" y2="-1351.44" xlink:href="#linear-gradient"/><linearGradient id="linear-gradient-13" x1="1219.49" y1="-1404.37" x2="1224.77" y2="-1362.04" xlink:href="#linear-gradient"/><linearGradient id="linear-gradient-14" x1="1223.63" y1="-1411.81" x2="1227.64" y2="-1369.48" xlink:href="#linear-gradient"/><linearGradient id="linear-gradient-15" x1="1241.69" y1="-1382.98" x2="1247.6" y2="-1340.65" xlink:href="#linear-gradient"/><linearGradient id="linear-gradient-16" x1="1232.08" y1="-1372.93" x2="1243.23" y2="-1330.59" xlink:href="#linear-gradient"/><linearGradient id="linear-gradient-17" x1="1236.61" y1="-1385.02" x2="1245.74" y2="-1342.69" xlink:href="#linear-gradient"/><linearGradient id="linear-gradient-18" x1="1217.22" y1="-1413.32" x2="1223.13" y2="-1370.99" xlink:href="#linear-gradient"/><linearGradient id="linear-gradient-19" x1="1207.73" y1="-1444.05" x2="1237.65" y2="-1359.37" xlink:href="#linear-gradient"/><linearGradient id="linear-gradient-20" x1="1224.22" y1="-1344.25" x2="1457.02" y2="-1005.61" xlink:href="#linear-gradient"/><linearGradient id="linear-gradient-21" x1="1243.55" y1="-1418.85" x2="1247.51" y2="-1376.51" xlink:href="#linear-gradient"/><linearGradient id="linear-gradient-22" x1="1241.35" y1="-1422.51" x2="1245.71" y2="-1380.18" xlink:href="#linear-gradient"/><linearGradient id="linear-gradient-23" x1="-6071.15" y1="-7534.28" x2="-4332.7" y2="-6052.79" xlink:href="#linear-gradient"/><linearGradient id="linear-gradient-24" x1="-4395.29" y1="-6106.73" x2="-3054.27" y2="-4963.82" xlink:href="#linear-gradient"/></defs><title>blockIcon3</title><path id="a" d="M53.23,53.8H7.37A2.37,2.37,0,0,1,5,51.43V14.83A6.83,6.83,0,0,1,11.77,8H34.14a0.28,0.28,0,1,1,0,.55H11.77a6.27,6.27,0,0,0-6.26,6.27v36.6a1.79,1.79,0,0,0,.54,1.31,1.85,1.85,0,0,0,1.32.52H53.23A1.81,1.81,0,0,0,55,51.45V33.62a0.28,0.28,0,1,1,.55,0V51.44a2.37,2.37,0,0,1-2.37,2.36h0Z" transform="translate(-1 -0.01)" style="fill:url(#linear-gradient)"/><path id="c" d="M55.21,29.78a0.28,0.28,0,0,1-.27-0.28V14.82a6.29,6.29,0,0,0-6.27-6.27H41.28A0.27,0.27,0,0,1,41,8.29h0A0.27,0.27,0,0,1,41.28,8h7.39a6.83,6.83,0,0,1,6.82,6.82V29.5a0.28,0.28,0,0,1-.28.28h0Z" transform="translate(-1 -0.01)" style="fill:url(#linear-gradient-2)"/><path id="e" d="M50,7.84a0.14,0.14,0,0,1-.13-0.06,6.35,6.35,0,0,0-2.77-2.51A0.13,0.13,0,0,1,47,5.15,0.16,0.16,0,0,1,47.06,5a0.17,0.17,0,0,1,.14,0,6.78,6.78,0,0,1,2.9,2.61,0.16,0.16,0,0,1,0,.19Z" transform="translate(-1 -0.01)" style="fill:url(#linear-gradient-3)"/><path id="g" d="M5.69,50.5H3.2A2.2,2.2,0,0,1,1,48.3V11.67A6.69,6.69,0,0,1,7.67,5H38.18a0.14,0.14,0,0,1,.1.14,0.15,0.15,0,0,1-.1.14H7.64a6.4,6.4,0,0,0-6.4,6.39V48.28a2,2,0,0,0,1.95,1.95H5.68a0.14,0.14,0,0,1,.16.05,0.17,0.17,0,0,1,0,.17,0.14,0.14,0,0,1-.16.05h0Z" transform="translate(-1 -0.01)" style="fill:url(#linear-gradient-4)"/><path id="i" d="M67.18,33.7a0.38,0.38,0,0,1-.15,0l-5.91-4.2a0.27,0.27,0,0,1,0-.47,0.26,0.26,0,0,1,.28,0l5.91,4.2a0.25,0.25,0,0,1,.14.16,0.28,0.28,0,0,1,0,.22A0.29,0.29,0,0,1,67.18,33.7Z" transform="translate(-1 -0.01)" style="fill:url(#linear-gradient-5)"/><path id="k" d="M69.18,30.7a0.38,0.38,0,0,1-.15,0l-5.91-4.2A0.27,0.27,0,0,1,63,26.13h0A0.28,0.28,0,0,1,63.44,26h0l5.91,4.12a0.27,0.27,0,0,1,.06.38,0.27,0.27,0,0,1-.23.15h0Z" transform="translate(-1 -0.01)" style="fill:url(#linear-gradient-6)"/><path id="m" d="M78.78,46.09L67.16,37.83A2.75,2.75,0,0,1,66.51,34h0l2.72-3.83A2.71,2.71,0,0,1,71,29a2.8,2.8,0,0,1,2.06.47l11.62,8.2a2.77,2.77,0,0,1,.65,3.85l-2.72,3.86a2.72,2.72,0,0,1-1.78,1.1,2.43,2.43,0,0,1-.47.08,2.76,2.76,0,0,1-1.59-.51h0ZM71.47,29.54H71.1a2.19,2.19,0,0,0-1.43.91L67,34.31A2.25,2.25,0,0,0,66.57,36a2.22,2.22,0,0,0,.91,1.43l11.59,8.25a2.2,2.2,0,0,0,3.07-.52h0l2.72-3.83a2.2,2.2,0,0,0-.52-3.07h0L72.75,30a2.2,2.2,0,0,0-1.28-.47h0Z" transform="translate(-1 -0.01)" style="fill:url(#linear-gradient-7)"/><path id="o" d="M82.47,39.64a0.43,0.43,0,0,1-.16,0L72.12,32.5A0.27,0.27,0,0,1,72,32.13h0A0.28,0.28,0,0,1,72.44,32h0l10.19,7.14a0.28,0.28,0,0,1,.12.31,0.3,0.3,0,0,1-.27.19V39.64Z" transform="translate(-1 -0.01)" style="fill:url(#linear-gradient-8)"/><path id="q" d="M28.33,25.44H13.28A0.27,0.27,0,0,1,13,25.18h0V17.28A0.27,0.27,0,0,1,13.28,17H28.33a0.27,0.27,0,0,1,.27.28v7.89A0.27,0.27,0,0,1,28.33,25.44Zm-14.78-.58H28V17.55H13.55v7.31Z" transform="translate(-1 -0.01)" style="fill:url(#linear-gradient-9)"/><path id="s" d="M28.33,29.55H13.28A0.27,0.27,0,0,1,13,29.29h0A0.27,0.27,0,0,1,13.28,29H28.33A0.28,0.28,0,0,1,28.33,29.55Z" transform="translate(-1 -0.01)" style="fill:url(#linear-gradient-10)"/><path id="u" d="M26.12,32.55H13.28A0.27,0.27,0,0,1,13,32.29h0A0.27,0.27,0,0,1,13.28,32H26.12A0.28,0.28,0,1,1,26.12,32.55Z" transform="translate(-1 -0.01)" style="fill:url(#linear-gradient-11)"/><path id="w" d="M20.62,36.55H13.28A0.27,0.27,0,0,1,13,36.29h0A0.27,0.27,0,0,1,13.28,36h7.34A0.28,0.28,0,0,1,20.62,36.55Z" transform="translate(-1 -0.01)" style="fill:url(#linear-gradient-12)"/><path id="y" d="M23.92,39.55H13.28A0.27,0.27,0,0,1,13,39.29h0A0.27,0.27,0,0,1,13.28,39H23.92A0.28,0.28,0,1,1,23.92,39.55Z" transform="translate(-1 -0.01)" style="fill:url(#linear-gradient-13)"/><path id="A-2" data-name="A" d="M27.22,42.55H13.28A0.27,0.27,0,0,1,13,42.29h0A0.27,0.27,0,0,1,13.28,42H27.22A0.28,0.28,0,1,1,27.22,42.55Z" transform="translate(-1 -0.01)" style="fill:url(#linear-gradient-14)"/><path id="C-2" data-name="C" d="M46.82,19.55H37.28A0.27,0.27,0,0,1,37,19.29h0A0.27,0.27,0,0,1,37.28,19h9.54A0.28,0.28,0,1,1,46.82,19.55Z" transform="translate(-1 -0.01)" style="fill:url(#linear-gradient-15)"/><path id="E-2" data-name="E" d="M43.42,22.55H38.28A0.27,0.27,0,0,1,38,22.29h0A0.27,0.27,0,0,1,38.28,22h5.14A0.28,0.28,0,0,1,43.42,22.55Z" transform="translate(-1 -0.01)" style="fill:url(#linear-gradient-16)"/><path id="G-2" data-name="G" d="M46.52,25.55H40.28A0.27,0.27,0,0,1,40,25.29h0A0.27,0.27,0,0,1,40.28,25h6.24A0.28,0.28,0,0,1,46.52,25.55Z" transform="translate(-1 -0.01)" style="fill:url(#linear-gradient-17)"/><path id="I-2" data-name="I" d="M22.82,46.55H13.28A0.27,0.27,0,0,1,13,46.29h0A0.27,0.27,0,0,1,13.28,46h9.54A0.28,0.28,0,1,1,22.82,46.55Z" transform="translate(-1 -0.01)" style="fill:url(#linear-gradient-18)"/><path id="K-2" data-name="K" d="M48.51,30.66a0.27,0.27,0,0,1-.27-0.27h0V29.55h-4A0.27,0.27,0,0,1,44,29.29h0A0.27,0.27,0,0,1,44.28,29h4.23a0.27,0.27,0,0,1,.28.28v1.1a0.32,0.32,0,0,1-.08.2,0.28,0.28,0,0,1-.2.08h0Z" transform="translate(-1 -0.01)" style="fill:url(#linear-gradient-19)"/><path id="M-2" data-name="M" d="M48.33,37.44H33.28A0.27,0.27,0,0,1,33,37.18h0V29.28A0.27,0.27,0,0,1,33.28,29H36a0.28,0.28,0,1,1,0,.55H33.55v7.34H48V35.1a0.28,0.28,0,1,1,.55,0v2.07a0.27,0.27,0,0,1-.27.27h0Z" transform="translate(-1 -0.01)" style="fill:url(#linear-gradient-20)"/><path id="O-2" data-name="O" d="M48.33,41.55H33.28A0.27,0.27,0,0,1,33,41.29h0A0.27,0.27,0,0,1,33.28,41H48.33A0.28,0.28,0,0,1,48.33,41.55Z" transform="translate(-1 -0.01)" style="fill:url(#linear-gradient-21)"/><path id="Q-2" data-name="Q" d="M46.12,44.55H33.28A0.27,0.27,0,0,1,33,44.29h0A0.27,0.27,0,0,1,33.28,44H46.12A0.28,0.28,0,1,1,46.12,44.55Z" transform="translate(-1 -0.01)" style="fill:url(#linear-gradient-22)"/><path id="S-2" data-name="S" d="M48.41,34.95a17,17,0,1,1,3-.21A18.38,18.38,0,0,1,48.41,34.95ZM48.48,1.1a16.26,16.26,0,1,0,1.47.06q-0.73-.07-1.47-0.07h0Z" transform="translate(-1 -0.01)" style="fill:url(#linear-gradient-23)"/><path id="U-2" data-name="U" d="M48.53,31.13A13.57,13.57,0,1,1,62.14,17.6,13.57,13.57,0,0,1,48.53,31.13ZM35.78,14.89A13,13,0,1,0,48.53,4.55,13,13,0,0,0,35.78,14.89Z" transform="translate(-1 -0.01)" style="fill:url(#linear-gradient-24)"/></svg>