<svg id="Layer_1" data-name="Layer 1" xmlns="http://www.w3.org/2000/svg" xmlns:xlink="http://www.w3.org/1999/xlink" viewBox="0 0 68.68 55.09"><defs><linearGradient id="linear-gradient" x1="419.31" y1="-1679.31" x2="488.31" y2="-1627.49" gradientTransform="matrix(1, 0, 0, -1, -421, -1630)" gradientUnits="userSpaceOnUse"><stop offset="0" stop-color="#0031a6"/><stop offset="1" stop-color="#1cbcff"/></linearGradient><linearGradient id="linear-gradient-2" x1="455.16" y1="-1771.63" x2="455.44" y2="-1724.63" xlink:href="#linear-gradient"/><linearGradient id="linear-gradient-3" x1="1355.93" y1="-995.66" x2="1670.93" y2="-760.66" xlink:href="#linear-gradient"/><linearGradient id="linear-gradient-4" x1="442.5" y1="-1791.28" x2="444.01" y2="-1744.28" xlink:href="#linear-gradient"/><linearGradient id="linear-gradient-5" x1="834.42" y1="-1672.45" x2="897.42" y2="-1671.32" xlink:href="#linear-gradient"/><linearGradient id="linear-gradient-6" x1="449.38" y1="-1804.1" x2="451.89" y2="-1757.1" xlink:href="#linear-gradient"/><linearGradient id="linear-gradient-7" x1="2742.15" y1="85.47" x2="3555.06" y2="696.47" xlink:href="#linear-gradient"/><linearGradient id="linear-gradient-8" x1="785.66" y1="-1645.45" x2="848.66" y2="-1645.27" xlink:href="#linear-gradient"/><linearGradient id="linear-gradient-9" x1="438.96" y1="-1736.09" x2="439.21" y2="-1689.09" xlink:href="#linear-gradient"/><linearGradient id="linear-gradient-10" x1="3841.65" y1="226.53" x2="4723.65" y2="717.21" xlink:href="#linear-gradient"/><linearGradient id="linear-gradient-11" x1="3834.67" y1="227.86" x2="4716.67" y2="719.89" xlink:href="#linear-gradient"/><linearGradient id="linear-gradient-12" x1="3834.67" y1="227.86" x2="4716.67" y2="719.89" xlink:href="#linear-gradient"/><linearGradient id="linear-gradient-13" x1="454.36" y1="-1732.42" x2="454.82" y2="-1685.42" xlink:href="#linear-gradient"/><linearGradient id="linear-gradient-14" x1="454.34" y1="-1736.96" x2="454.8" y2="-1689.96" xlink:href="#linear-gradient"/><linearGradient id="linear-gradient-15" x1="452.19" y1="-1740.7" x2="452.85" y2="-1693.7" xlink:href="#linear-gradient"/><linearGradient id="linear-gradient-16" x1="454.31" y1="-1745.04" x2="454.77" y2="-1698.04" xlink:href="#linear-gradient"/><linearGradient id="linear-gradient-17" x1="454.28" y1="-1749.58" x2="454.75" y2="-1702.58" xlink:href="#linear-gradient"/><linearGradient id="linear-gradient-18" x1="452.14" y1="-1753.32" x2="452.79" y2="-1706.32" xlink:href="#linear-gradient"/><linearGradient id="linear-gradient-19" x1="447.13" y1="-1753.94" x2="447.29" y2="-1706.94" xlink:href="#linear-gradient"/><linearGradient id="linear-gradient-20" x1="447.13" y1="-1758.48" x2="447.29" y2="-1711.48" xlink:href="#linear-gradient"/><linearGradient id="linear-gradient-21" x1="455.71" y1="-1765.74" x2="455.81" y2="-1718.74" xlink:href="#linear-gradient"/><linearGradient id="linear-gradient-22" x1="782.49" y1="-1173.09" x2="1654.89" y2="95.91" xlink:href="#linear-gradient"/></defs><title>blockIcon4</title><path id="a" d="M2.46,43.52A2.47,2.47,0,0,1,0,41.05V3.46A2.46,2.46,0,0,1,2.46,1H66.22a2.46,2.46,0,0,1,2.46,2.46V41.05a2.47,2.47,0,0,1-2.46,2.47H2.46Zm0-41.43A1.38,1.38,0,0,0,1.09,3.46V41a1.38,1.38,0,0,0,1.37,1.38H66.22A1.38,1.38,0,0,0,67.59,41V3.46a1.38,1.38,0,0,0-1.37-1.37H2.46Z" transform="translate(0 -1)" style="fill:url(#linear-gradient)"/><path id="c" d="M1,34.55V34H68.59v0.55H1Z" transform="translate(0 -1)" style="fill:url(#linear-gradient-2)"/><path id="e" d="M32,37.45a2.45,2.45,0,1,1,4.9,0h0A2.45,2.45,0,0,1,32,37.45Zm0.55,0a1.9,1.9,0,1,0,1.9-1.91A1.91,1.91,0,0,0,32.55,37.45Z" transform="translate(0 -1)" style="fill:url(#linear-gradient-3)"/><path id="g" d="M24.27,55.32l-0.54-.1,2.19-12,0.54,0.1Z" transform="translate(0 -1)" style="fill:url(#linear-gradient-4)"/><path id="i" d="M44.1,55.14l-2.19-12,0.55-.1,2.18,12Z" transform="translate(0 -1)" style="fill:url(#linear-gradient-5)"/><path id="k" d="M20,56.09V55H49.43v1.09H20Z" transform="translate(0 -1)" style="fill:url(#linear-gradient-6)"/><path id="m" d="M24.76,22.34H11.13A0.13,0.13,0,0,1,11,22.21h0V9.13A0.18,0.18,0,0,1,11,9l0.1,0H24.76a0.14,0.14,0,0,1,.14.14V22.22a0.1,0.1,0,0,1,0,.09,0.08,0.08,0,0,1-.09,0h0Zm-13.49-.27H24.63V9.26H11.26V22.07Z" transform="translate(0 -1)" style="fill:url(#linear-gradient-7)"/><path id="o" d="M23.84,23L10.24,10l0.2-.2L24,22.83Z" transform="translate(0 -1)" style="fill:url(#linear-gradient-8)"/><path id="q" d="M11.73,22.78l-0.19-.2L25.15,9.49l0.19,0.2Z" transform="translate(0 -1)" style="fill:url(#linear-gradient-9)"/><path id="s" d="M57.75,27.25H44.13A0.13,0.13,0,0,1,44,27.12h0v-18A0.18,0.18,0,0,1,44,9l0.1,0H57.76a0.14,0.14,0,0,1,.14.14v18a0.1,0.1,0,0,1,0,.09,0.1,0.1,0,0,1-.1,0h0ZM44.26,27H57.61V9.26H44.26V27Z" transform="translate(0 -1)" style="fill:url(#linear-gradient-10)"/><path id="u" d="M57.63,27.14L44,9.15,44.22,9,57.83,27l-0.2.15h0Z" transform="translate(0 -1)" style="fill:url(#linear-gradient-11)"/><path id="w" d="M44.22,27.14L44,27,57.63,9l0.2,0.15-13.61,18h0Z" transform="translate(0 -1)" style="fill:url(#linear-gradient-12)"/><path id="y" d="M29,9.27V9H39.54V9.27H29Z" transform="translate(0 -1)" style="fill:url(#linear-gradient-13)"/><path id="A-2" data-name="A" d="M29,12.27V12H39.54v0.27H29Z" transform="translate(0 -1)" style="fill:url(#linear-gradient-14)"/><path id="C-2" data-name="C" d="M29,15.27V15h7.06v0.27H29Z" transform="translate(0 -1)" style="fill:url(#linear-gradient-15)"/><path id="E-2" data-name="E" d="M29,17.27V17H39.54v0.27H29Z" transform="translate(0 -1)" style="fill:url(#linear-gradient-16)"/><path id="G-2" data-name="G" d="M29,20.27V20H39.54v0.27H29Z" transform="translate(0 -1)" style="fill:url(#linear-gradient-17)"/><path id="I-2" data-name="I" d="M29,23.27V23h7.06v0.27H29Z" transform="translate(0 -1)" style="fill:url(#linear-gradient-18)"/><path id="K-2" data-name="K" d="M12,25.27V25H40.94v0.27H12Z" transform="translate(0 -1)" style="fill:url(#linear-gradient-19)"/><path id="M-2" data-name="M" d="M12,28.27V28H40.94v0.27H12Z" transform="translate(0 -1)" style="fill:url(#linear-gradient-20)"/><path id="O-2" data-name="O" d="M12,30.27V30H57.87v0.27H12Z" transform="translate(0 -1)" style="fill:url(#linear-gradient-21)"/><path id="Q-2" data-name="Q" d="M60.69,33.19H60.15V6.53H7.55V33.19H7V6.27A0.27,0.27,0,0,1,7.27,6H60.42a0.27,0.27,0,0,1,.27.27V33.19Z" transform="translate(0 -1)" style="fill:url(#linear-gradient-22)"/></svg>