<svg id="Layer_1" data-name="Layer 1" xmlns="http://www.w3.org/2000/svg" xmlns:xlink="http://www.w3.org/1999/xlink" viewBox="0 0 69.93 56.97"><defs><linearGradient id="linear-gradient" x1="8770.26" y1="6382.91" x2="11108.98" y2="8757.53" gradientTransform="matrix(1, 0, 0, -1, -819, -1627)" gradientUnits="userSpaceOnUse"><stop offset="0" stop-color="#8a8ed8"/><stop offset="1" stop-color="#ac2588"/></linearGradient><linearGradient id="linear-gradient-2" x1="2067.37" y1="-1204.83" x2="2218.36" y2="-1147.15" xlink:href="#linear-gradient"/><linearGradient id="linear-gradient-3" x1="2077.94" y1="-1203.08" x2="2228.93" y2="-1145.4" xlink:href="#linear-gradient"/></defs><title>blockIcon5</title><path id="a" d="M70.92,11.82L69.19,47.5a2.94,2.94,0,0,1-2.94,2.82H66.1l-5.23-.25v2.76A4.14,4.14,0,0,1,56.73,57H5.14A4.14,4.14,0,0,1,1,52.83H1v-34a4.15,4.15,0,0,1,4.14-4.14H5.65V3.78A3.78,3.78,0,0,1,9.43,0H60.87a3.78,3.78,0,0,1,3.78,3.78h0V8.52L68.1,8.69a3,3,0,0,1,2.82,3.13h0Zm-65,2.85h5.48l0.27-5.75a3,3,0,0,1,3.1-2.81l49.56,2.4V3.76A3.45,3.45,0,0,0,60.84.31H9.39A3.45,3.45,0,0,0,5.94,3.76Zm-0.74,1.2a3,3,0,0,0-3,3v31.6h12V45A6.65,6.65,0,0,1,10,33.45a5.19,5.19,0,1,1,9,0A6.65,6.65,0,0,1,14.78,45v5.42H28.47V39h-2.3V33.38h9.21V28.29L46,22l0.15,0.09,10.45,6.2V40.24h3.14V18.85a3,3,0,0,0-3-3H5.14ZM56,50.45V28.58L46,22.63l-10,6V44.88h0.49a5.75,5.75,0,0,1,5.76,5.51Zm-25.31-.07a5.76,5.76,0,0,1,4.7-5.4V39h-6.6v11.4h1.9Zm4.7-16.7H26.49v5.06h8.88V33.68Zm1.07,11.84a5.2,5.2,0,0,0-5.17,4.9H41.63a5.2,5.2,0,0,0-5.19-4.93v0Zm20.12,4.9H59.7V40.49H56.56v9.93ZM10.83,33.55l-0.2.16a6.06,6.06,0,0,0,3.63,10.72v-4.7a0.29,0.29,0,0,1,.29-0.29,0.28,0.28,0,0,1,.28.29v4.7a6.07,6.07,0,0,0,3.63-10.72l-0.2-.16,0.14-.21a4.6,4.6,0,1,0-7.71,0ZM59.7,52.84V51H2.15v1.81a3,3,0,0,0,3,3H56.73A3,3,0,0,0,59.7,52.84Zm10.68-41.1a2.39,2.39,0,0,0-2.3-2.5L14.77,6.66a2.38,2.38,0,0,0-2.5,2.26V9L12,14.72H56.73a4.14,4.14,0,0,1,4.14,4.14h0V49.55l5.26,0.25a2.39,2.39,0,0,0,2.5-2.3Z" transform="translate(-1)" style="fill:url(#linear-gradient)"/><path id="c" d="M41,34h3.45v8.8H41V34Zm0.58,8.22h2.3V34.58h-2.3v7.64Z" transform="translate(-1)" style="fill:url(#linear-gradient-2)"/><path id="e" d="M50.45,34v8.8H47V34h3.45Zm-0.57.58h-2.3v7.64h2.3V34.58Z" transform="translate(-1)" style="fill:url(#linear-gradient-3)"/></svg>