<svg id="Layer_1" data-name="Layer 1" xmlns="http://www.w3.org/2000/svg" viewBox="0 0 49.84 49.84"><title>case-content-before</title><path id="a" d="M49.82,24.91A24.92,24.92,0,1,1,0,24.89H0a24.92,24.92,0,1,1,49.84,0h0Zm-3.53,0A21.39,21.39,0,0,0,3.52,24q0,0.46,0,.92A21.39,21.39,0,0,0,46.29,24.91Z" transform="translate(0.02 0.02)" style="fill:#bf3d27"/><path id="b" d="M6,25.27A19.26,19.26,0,1,1,25.26,44.54,19.27,19.27,0,0,1,6,25.27Z" transform="translate(0.02 0.02)" style="fill:#bf3d27"/><path id="c" d="M36.08,31.22l-5.86,5.86L24.54,31.4l-5.68,5.68L13,31.22l5.68-5.68L13,19.86,18.86,14l5.68,5.68L30.22,14l5.86,5.86-5.69,5.68Z" transform="translate(0.02 0.02)" style="fill:#fff"/></svg>