<svg id="Layer_1" data-name="Layer 1" xmlns="http://www.w3.org/2000/svg" viewBox="0 0 50 50"><title>case-content-after</title><path id="a" d="M50,25A25,25,0,1,1,0,26.39Q0,25.69,0,25A25,25,0,0,1,50,25Zm-3.54,0a21.45,21.45,0,1,0-42.9,0h0A21.45,21.45,0,1,0,46.43,25Z" transform="translate(0.02 -0.69)" style="fill:#57a300"/><path id="b" d="M44.65,25.33A19.32,19.32,0,1,1,25.33,6,19.32,19.32,0,0,1,44.65,25.33Z" transform="translate(0.02 -0.69)" style="fill:#57a300"/><path id="c" d="M22.19,36.68L12,20.92V20.73L21.55,25,37.29,14Z" transform="translate(0.02 -0.69)" style="fill:#fff"/></svg>