<?xml version="1.0" encoding="UTF-8"?>
<svg width="40px" height="40px" viewBox="0 0 40 40" version="1.1" xmlns="http://www.w3.org/2000/svg" xmlns:xlink="http://www.w3.org/1999/xlink">
    <!-- Generator: Sketch 45.2 (43514) - http://www.bohemiancoding.com/sketch -->
    <title>white full fb</title>
    <desc>Created with Sketch.</desc>
    <defs></defs>
    <g id="Page-1" stroke="none" stroke-width="1" fill="none" fill-rule="evenodd">
        <g id="Footer" transform="translate(-1250.000000, -72.000000)">
            <g id="HEADER">
                <g id="Group-10" transform="translate(70.000000, 60.000000)">
                    <g id="Group-9" transform="translate(1180.000000, 12.000000)">
                        <g id="white-full-fb">
                            <g id="if_facebook_313485">
                                <path d="M20,0.0417536534 C8.97736952,0.0417536534 0.0417536534,8.97736952 0.0417536534,20 C0.0417536534,31.0226305 8.97736952,39.9582463 20,39.9582463 C31.0226305,39.9582463 39.9582463,31.0226305 39.9582463,20 C39.9582463,8.97736952 31.0226305,0.0417536534 20,0.0417536534 Z" id="Shape" fill="#FFFFFF" fill-rule="nonzero"></path>
                                <path d="M22.0041754,16.993737 L22.0041754,14.7392067 C22.0041754,13.7215031 22.2501879,13.2359081 23.8299791,13.2359081 L25.7620042,13.2359081 L25.7620042,9.47807933 L22.5046347,9.47807933 C18.4516075,9.47807933 17.1607516,11.2779123 17.1607516,14.4671399 L17.1607516,16.993737 L14.4050104,16.993737 L14.4050104,20.8350731 L17.1607516,20.8350731 L17.1607516,32.1920668 L22.0041754,32.1920668 L22.0041754,20.8350731 L25.3625052,20.8350731 L25.8121921,16.993737 L22.0041754,16.993737 Z" id="Path" fill="#0829CC"></path>
                            </g>
                        </g>
                    </g>
                </g>
            </g>
        </g>
    </g>
</svg>