<svg id="Layer_1" data-name="Layer 1" xmlns="http://www.w3.org/2000/svg" viewBox="0 0 29.94 29.94"><title>fb-scroll-mobile</title><g id="Page-1"><g id="MENU-BAR"><g id="Group-2"><g id="Group-10"><g id="Group-9"><g id="black-fb"><g id="if_facebook_313485" data-name="if facebook 313485"><path id="Shape" d="M16.5,12.75V11.05c0-.76.18-1.13,1.37-1.13h1.45V7.11H16.88c-3,0-4,1.35-4,3.74v1.89H10.8v2.88h2.07v8.52H16.5V15.63H19l0.34-2.88H16.5Z" transform="translate(-0.03 -0.03)"/><path id="Shape-2" data-name="Shape" d="M15,0A15,15,0,1,0,30,15,15,15,0,0,0,15,0Zm9.92,24.89A14,14,0,0,1,5.08,5.08,14,14,0,0,1,24.92,24.92Z" transform="translate(-0.03 -0.03)"/></g></g></g></g></g></g></g></svg>