<svg id="Layer_1" data-name="Layer 1" xmlns="http://www.w3.org/2000/svg" viewBox="0 0 41 41"><title>fb-scroll</title><path id="a" d="M22.11,17V14.77c0-1,.25-1.5,1.82-1.5h1.94V9.51H22.61c-4.05,0-5.34,1.8-5.34,5V17H14.51v3.84h2.76V32.22h4.84V20.87h3.4L26,17H22.11Z" transform="translate(0.07 -0.01)" style="fill:#fff;stroke:#0829cc;stroke-miterlimit:10"/><path id="b" d="M40.43,20.51a20,20,0,1,1-20-20h0.08A20,20,0,0,1,40.43,20.51Zm-1.26,0a18.71,18.71,0,1,0-5.49,13.21A18.7,18.7,0,0,0,39.17,20.51Z" transform="translate(0.07 -0.01)" style="fill:#fff;stroke:#0829cc;stroke-miterlimit:10"/></svg>