<svg id="Layer_1" data-name="Layer 1" xmlns="http://www.w3.org/2000/svg" viewBox="0 0 39.93 39.93"><title>fb</title><path id="a" d="M21.6,16.52V14.26c0-1,.25-1.5,1.82-1.5h1.94V9H22.1c-4.05,0-5.34,1.8-5.34,5v2.53H14v3.84h2.76V31.71H21.6V20.36H25l0.45-3.84H21.6Z" transform="translate(0.01 0.01)" style="fill:#fff"/><path id="b" d="M39.92,20A20,20,0,1,1,20,0,20,20,0,0,1,39.92,20Zm-1.26,0A18.7,18.7,0,0,0,6.73,6.73,18.71,18.71,0,1,0,38.66,20Z" transform="translate(0.01 0.01)" style="fill:#fff"/></svg>