<svg id="Layer_1" data-name="Layer 1" xmlns="http://www.w3.org/2000/svg" viewBox="0 0 61.58 61.58"><title>features-icon4</title><path id="a" d="M0,31.79a30.79,30.79,0,1,1,61.58,0h0A30.79,30.79,0,1,1,0,31.79Z" transform="translate(0 -1)" style="fill:#0829cc"/><path id="b" d="M17,22H43.37V38.23H17V22ZM31.62,36.11h8.82V25.78H31.65ZM20.47,28.34h8.16V26.82H20.5Zm0,3.4h8.16V30.23H20.5Zm0,3.4h8.16V33.63H20.5Z" transform="translate(0 -1)" style="fill:#fff"/><path id="c" d="M34,34.3V27h5.75v7.3H34Z" transform="translate(0 -1)" style="fill:#fff"/><path id="d" d="M51.78,17.51V43.18a1.5,1.5,0,0,1-1.49,1.51H11.51A1.5,1.5,0,0,1,10,43.2s0,0,0,0V17.51A1.52,1.52,0,0,1,11.51,16H50.28a1.51,1.51,0,0,1,1.5,1.51h0Zm0,21H45.45V20.82H16V38.55H10v1.51H51.75Z" transform="translate(0 -1)" style="fill:#fff"/><path id="e" d="M39.71,49.43H37.26L36.73,46h-3l0.53,3.43H28L28.52,46h-3L25,49.43H22.51a1.52,1.52,0,0,0,0,3H39.77a1.52,1.52,0,0,0,0-3H39.71Z" transform="translate(0 -1)" style="fill:#fff"/></svg>