<svg id="Layer_1" data-name="Layer 1" xmlns="http://www.w3.org/2000/svg" xmlns:xlink="http://www.w3.org/1999/xlink" viewBox="0 0 61.58 61.58"><defs><radialGradient id="radial-gradient" cx="-269.04" cy="421.81" r="0.91" gradientTransform="matrix(61.58, 0, 0, -61.58, 16597.98, 25990.78)" gradientUnits="userSpaceOnUse"><stop offset="0" stop-color="#0a6972"/><stop offset="1" stop-color="#16193f"/></radialGradient></defs><title>features-icon5</title><g id="Page-1"><g id="INDEX-PAGE"><g id="SERVICES"><g id="Group-6"><g id="PERK-1-Copy-4"><g id="Group-4"><g id="Group-23"><circle id="Oval" cx="30.79" cy="30.79" r="30.79" style="fill:url(#radial-gradient)"/><g id="Group"><path id="Shape" d="M47.84,15.8H16.72a1.51,1.51,0,0,0-1.51,1.51V48.44A1.51,1.51,0,0,0,16.72,50H47.85a1.51,1.51,0,0,0,1.51-1.51V17.31A1.51,1.51,0,0,0,47.84,15.8Zm-1.51,3V39.16l-5.94-5A1.13,1.13,0,0,0,39.08,34l-5.72,3.33-6.14-6.62a1.13,1.13,0,0,0-1.51-.2l-7.44,6.7V18.83H46.33Zm-28.1,28.1V40l8.66-6.28,5.29,6.54a1.13,1.13,0,0,0,1.45.26l5.86-3.42,6.8,5.76v4H18.22Z" transform="translate(-0.17 -0.23)" style="fill:#082e3c"/><path id="Shape-2" data-name="Shape" d="M37,29.78a3.86,3.86,0,1,0-3.86-3.86A3.86,3.86,0,0,0,37,29.78h0Zm0-5.46a1.6,1.6,0,1,1-1.6,1.6,1.6,1.6,0,0,1,1.6-1.6h0Z" transform="translate(-0.17 -0.23)" style="fill:#082e3c"/></g><rect id="Rectangle-path" x="15.79" y="16.32" width="31.13" height="31.13" style="fill:none;stroke:#fff;stroke-linejoin:round;stroke-width:4px"/><polygon id="Shape-3" data-name="Shape" points="15.53 39.12 25.41 31.2 32.17 38.58 38.73 34.75 46.79 41.58 46.79 46.95 15.53 46.95 15.53 39.12" style="fill:#fff;stroke:#fff;stroke-linejoin:round;stroke-width:3px"/><circle id="Oval-2" data-name="Oval" cx="36.13" cy="24.92" r="2.73" style="fill:none;stroke:#fff;stroke-linejoin:round;stroke-width:3px"/></g></g></g></g></g></g></g></svg>