<svg id="Layer_1" data-name="Layer 1" xmlns="http://www.w3.org/2000/svg" viewBox="0 0 61.64 62.8"><title>features-icon6</title><path id="a" d="M0,30.79a30.79,30.79,0,1,1,61.58-.08v0.08A30.79,30.79,0,0,1,0,30.79Z" transform="translate(0.06 0.04)" style="fill:#0644d6"/><path id="b" d="M61.58,30.79a30.72,30.72,0,0,1-13,25.13,9.48,9.48,0,0,0-9.47-9.35H24.65A9.46,9.46,0,0,0,15.19,56h0v1.29A30.78,30.78,0,1,1,61.58,30.79h0ZM48,34.25L34.53,10.87v3.94l-2.27-3.94v16a2.6,2.6,0,1,1-.76,0v-16l-2.27,3.94V10.88L15.78,34.26,23.1,44.4H40.67Z" transform="translate(0.06 0.04)" style="fill:#0829cc"/><path id="c" d="M25.58,44.53h13l7.32-10.14L34.74,15,32.48,11V27A3.63,3.63,0,0,1,31,33.93h-0.1A3.61,3.61,0,0,1,29.46,27V11L16,34.38l7.31,10.15h2.27Z" transform="translate(0.06 0.04)" style="fill:#fff"/><path id="d" d="M36.65,47H24.47A9.47,9.47,0,0,0,15,56.47v2.05a30.8,30.8,0,0,0,31.13,0v-2.1A9.44,9.44,0,0,0,36.71,47H36.65Z" transform="translate(0.06 0.04)" style="fill:#fff"/></svg>