<?xml version="1.0" encoding="UTF-8"?>
<svg width="62px" height="63px" viewBox="0 0 62 63" version="1.1" xmlns="http://www.w3.org/2000/svg" xmlns:xlink="http://www.w3.org/1999/xlink">
    <!-- Generator: Sketch 47 (45396) - http://www.bohemiancoding.com/sketch -->
    <title>Group 22</title>
    <desc>Created with Sketch.</desc>
    <defs>
        <radialGradient cx="50.9333372%" cy="28.2561585%" fx="50.9333372%" fy="28.2561585%" r="90.7054215%" id="radialGradient-1">
            <stop stop-color="#0A6972" offset="0%"></stop>
            <stop stop-color="#16193F" offset="100%"></stop>
        </radialGradient>
    </defs>
    <g id="Page-1" stroke="none" stroke-width="1" fill="none" fill-rule="evenodd">
        <g id="INDEX-PAGE" transform="translate(-414.000000, -1627.000000)">
            <g id="SERVICES" transform="translate(0.000000, 900.000000)">
                <g id="Group-5" transform="translate(135.000000, 513.000000)">
                    <g id="PERK-1-Copy-5">
                        <g id="Group-4" transform="translate(279.000000, 214.000000)">
                            <g id="Group-22">
                                <circle id="Oval" fill="url(#radialGradient-1)" fill-rule="nonzero" cx="31.0831707" cy="31.4007317" r="30.7882927"></circle>
                                <polygon id="Shape" points="28.3687805 44.4963415 33.0943902 44.4963415 33.0943902 44.4963415 28.3687805 44.4963415"></polygon>
                                <polygon id="Shape" points="27.605122 49.4487805 33.8504878 49.4487805 33.3287805 46.0085366 28.1343902 46.0085366"></polygon>
                                <g id="Group" transform="translate(9.829268, 15.121951)" fill-rule="nonzero" fill="#FFFFFF">
                                    <path d="M7.56097561,23.234878 L33.9336585,23.234878 L33.9336585,7.00902439 L7.56097561,7.00902439 L7.56097561,23.234878 Z M22.2141463,10.7895122 L31,10.7895122 L31,21.1178049 L22.1839024,21.1178049 L22.2141463,10.7895122 Z M11.0617073,11.8329268 L19.1897561,11.8329268 L19.1897561,13.345122 L11.0314634,13.345122 L11.0617073,11.8329268 Z M11.0617073,15.2353659 L19.1897561,15.2353659 L19.1897561,16.747561 L11.0314634,16.747561 L11.0617073,15.2353659 Z M11.0617073,18.6378049 L19.1897561,18.6378049 L19.1897561,20.15 L11.0314634,20.15 L11.0617073,18.6378049 Z" id="Shape"></path>
                                    <rect id="Rectangle-path" x="23.6960976" y="12.3017073" width="5.75390244" height="7.30390244"></rect>
                                    <path d="M40.284878,0.680487805 L1.51219512,0.680487805 C0.677032817,0.680487805 0,1.35752062 0,2.19268293 L0,27.8621951 C0,28.6973574 0.677032817,29.3743902 1.51219512,29.3743902 L40.2697561,29.3743902 C41.1049184,29.3743902 41.7819512,28.6973574 41.7819512,27.8621951 L41.7819512,2.19268293 C41.7819927,1.36339065 41.1141289,0.688780727 40.284878,0.680487805 Z M41.7517073,24.7395122 L0.037804878,24.7395122 L0.037804878,23.2273171 L6.04878049,23.2273171 L6.04878049,5.49682927 L35.4458537,5.49682927 L35.4458537,23.234878 L41.7743902,23.234878 L41.7517073,24.7395122 Z" id="Shape"></path>
                                    <path d="M29.5331707,34.3268293 L27.0834146,34.3268293 L26.5541463,30.8941463 L23.5297561,30.8941463 L24.0590244,34.3268293 L17.8136585,34.3268293 L18.3429268,30.8941463 L15.3185366,30.8941463 L14.7892683,34.3268293 L12.3395122,34.3268293 C11.5043499,34.3268293 10.8273171,35.0038621 10.8273171,35.8390244 C10.8273171,36.6741867 11.5043499,37.3512195 12.3395122,37.3512195 L29.6012195,37.3512195 C30.4363818,37.3512195 31.1134146,36.6741867 31.1134146,35.8390244 C31.1134146,35.0038621 30.4363818,34.3268293 29.6012195,34.3268293 L29.5331707,34.3268293 Z" id="Shape"></path>
                                </g>
                                <polygon id="Shape" fill="#0E4E61" fill-rule="nonzero" points="15.8553659 20.6187805 15.8553659 38.3568293 17.367561 38.3568293 17.367561 22.1309756 43.7402439 22.1309756 43.7402439 38.3568293 45.252439 38.3568293 45.252439 20.6187805"></polygon>
                                <rect id="Rectangle-path" fill="#0E4E61" fill-rule="nonzero" x="20.8607317" y="26.954878" width="8.12804878" height="1.51219512"></rect>
                                <rect id="Rectangle-path" fill="#0E4E61" fill-rule="nonzero" x="20.8607317" y="30.3573171" width="8.12804878" height="1.51219512"></rect>
                                <rect id="Rectangle-path" fill="#0E4E61" fill-rule="nonzero" x="20.8607317" y="33.7597561" width="8.12804878" height="1.51219512"></rect>
                                <path d="M32.0131707,25.9114634 L32.0131707,36.2397561 L40.8292683,36.2397561 L40.8292683,25.9114634 L32.0131707,25.9114634 Z M39.3170732,34.727561 L33.5631707,34.727561 L33.5631707,27.4236585 L39.3170732,27.4236585 L39.3170732,34.727561 Z" id="Shape" fill="#0E4E61" fill-rule="nonzero"></path>
                                <polygon id="Shape" fill="#0E4E61" fill-rule="nonzero" points="45.252439 38.3568293 45.252439 38.8634146 43.7402439 38.8634146 43.7402439 38.3568293 17.367561 38.3568293 17.367561 38.8634146 15.8553659 38.8634146 15.8553659 38.3568293 12.8612195 38.3568293 12.8612195 39.8690244 48.6019512 39.8690244 48.6019512 38.3568293"></polygon>
                                <rect id="Rectangle-path" fill="#0E4E61" fill-rule="nonzero" x="50.1141463" y="38.3568293" width="1.46682927" height="1.51219512"></rect>
                                <rect id="Rectangle-path" fill="#0E4E61" fill-rule="nonzero" x="9.86707317" y="38.3568293" width="1.48195122" height="1.51219512"></rect>
                                <rect id="Rectangle-path" fill="#0E4E61" fill-rule="nonzero" x="48.6019512" y="38.3568293" width="1.51219512" height="1.51219512"></rect>
                                <rect id="Rectangle-path" fill="#0E4E61" fill-rule="nonzero" x="11.3490244" y="38.3568293" width="1.51219512" height="1.51219512"></rect>
                                <rect id="Rectangle-path" fill="#0E4E61" fill-rule="nonzero" x="43.7402439" y="38.3568293" width="1.51219512" height="1"></rect>
                                <rect id="Rectangle-path" fill="#0E4E61" fill-rule="nonzero" x="15.8553659" y="38.3568293" width="1.51219512" height="1"></rect>
                            </g>
                        </g>
                    </g>
                </g>
            </g>
        </g>
    </g>
</svg>