<?xml version="1.0" encoding="UTF-8"?>
<svg width="63px" height="63px" viewBox="0 0 63 63" version="1.1" xmlns="http://www.w3.org/2000/svg" xmlns:xlink="http://www.w3.org/1999/xlink">
    <!-- Generator: Sketch 47 (45396) - http://www.bohemiancoding.com/sketch -->
    <title>Group 21</title>
    <desc>Created with Sketch.</desc>
    <defs>
        <radialGradient cx="50.9333372%" cy="28.2561585%" fx="50.9333372%" fy="28.2561585%" r="90.7054215%" id="radialGradient-1">
            <stop stop-color="#0A6972" offset="0%"></stop>
            <stop stop-color="#16193F" offset="100%"></stop>
        </radialGradient>
    </defs>
    <g id="Page-1" stroke="none" stroke-width="1" fill="none" fill-rule="evenodd">
        <g id="INDEX-PAGE" transform="translate(-1214.000000, -1310.000000)">
            <g id="SERVICES" transform="translate(0.000000, 900.000000)">
                <g id="Group-8" transform="translate(936.000000, 196.000000)">
                    <g id="PERK-1-Copy-2">
                        <g id="Group-4" transform="translate(278.000000, 214.000000)">
                            <g id="Group-21">
                                <circle id="Oval" fill="url(#radialGradient-1)" fill-rule="nonzero" cx="31.4392771" cy="31.3937349" r="30.9079518"></circle>
                                <path d="M46.7945783,44.73 L38.9385542,36.8815663 C43.0390474,31.6302024 42.4520062,24.1171236 37.5856177,19.5663951 C32.7192292,15.0156667 25.1837036,14.933052 20.2187142,19.3759955 C15.2537248,23.818939 14.5021074,31.3173417 18.4864836,36.6573429 C22.4708598,41.997344 29.8728634,43.4120226 35.5456627,39.9177108 L43.5686747,47.9407229 C44.465885,48.7767522 45.8640295,48.7520836 46.7311891,47.884924 C47.5983486,47.0177645 47.6230173,45.61962 46.786988,44.7224096 L46.7945783,44.73 Z M19.8184337,29.0407229 C19.8184355,24.0615668 23.8540992,20.0247729 28.8332551,20.023377 C33.812411,20.0219811 37.8503376,24.0565116 37.8531311,29.0356669 C37.8559247,34.0148222 33.8225278,38.0538811 28.8433735,38.0580723 C23.8649636,38.053887 19.8302094,34.0191328 19.8260241,29.0407229 L19.8184337,29.0407229 Z" id="Shape" fill="#082E3C" fill-rule="nonzero"></path>
                                <circle id="Oval" stroke="#FFFFFF" stroke-width="5" cx="28.076747" cy="27.5226506" r="10.9149398"></circle>
                                <path d="M35.5760241,35.9707229 L44.4263855,44.8286747" id="Shape" stroke="#FFFFFF" stroke-width="6" stroke-linecap="round"></path>
                            </g>
                        </g>
                    </g>
                </g>
            </g>
        </g>
    </g>
</svg>