<svg id="Layer_1" data-name="Layer 1" xmlns="http://www.w3.org/2000/svg" viewBox="0 0 61.58 61.58"><title>features-icon4-disabled</title><g id="Group-20"><circle id="Oval" cx="30.79" cy="30.79" r="30.79"/><path id="Shape" d="M39.83,27.28a7.56,7.56,0,1,0-7.17-5.17l-11,6.14a6.65,6.65,0,1,0-.76,9.66l10.66,7.15a6.09,6.09,0,1,0,1.51-2.62L22.83,35.52a6.56,6.56,0,0,0,.38-4.63l11-6.15a7.56,7.56,0,0,0,5.62,2.54h0Z" style="stroke:#000"/><path id="Shape-2" d="M39.06,26.52a7.56,7.56,0,1,0-7.17-5.17l-11,6.17a6.65,6.65,0,1,0-.76,9.66L30.83,44.3a6.09,6.09,0,1,0,1.51-2.62L22,34.77a6.56,6.56,0,0,0,.38-4.63l11-6.15A7.56,7.56,0,0,0,39.06,26.52Z" style="fill:#b7b7b7"/></g></svg>