<?xml version="1.0" encoding="UTF-8"?>
<svg width="32px" height="52px" viewBox="0 0 32 52" version="1.1" xmlns="http://www.w3.org/2000/svg" xmlns:xlink="http://www.w3.org/1999/xlink">
    <!-- Generator: Sketch 47 (45396) - http://www.bohemiancoding.com/sketch -->
    <title>Group</title>
    <desc>Created with Sketch.</desc>
    <defs></defs>
    <g id="Page-1" stroke="none" stroke-width="1" fill="none" fill-rule="evenodd">
        <g id="INDEX-PAGE" transform="translate(-1229.000000, -1638.000000)" fill-rule="nonzero" fill="#FFFFFF">
            <g id="SERVICES" transform="translate(0.000000, 900.000000)">
                <g id="Group-7" transform="translate(936.000000, 513.000000)">
                    <g id="PERK-1-Copy-3">
                        <g id="Group-4" transform="translate(278.000000, 214.000000)">
                            <g id="Group-24">
                                <g id="Group" transform="translate(15.121951, 10.585366)">
                                    <path d="M10.4114634,34.0243902 L23.4390244,34.0243902 L30.7656098,23.885122 L19.5753659,4.45341463 L17.3070732,0.514146341 L17.3070732,16.5207317 C18.819855,17.2426896 19.6414083,18.9067444 19.2947305,20.5467281 C18.9480526,22.1867118 17.5233437,23.3759269 15.8478049,23.4239024 L15.7495122,23.4239024 C14.0560441,23.4059054 12.6021779,22.2143868 12.2519142,20.5574398 C11.9016505,18.9004928 12.7489344,17.2225317 14.2902439,16.5207317 L14.2902439,0.491463415 L0.831707317,23.87 L8.14317073,34.0243902 L10.4114634,34.0243902 Z" id="Shape"></path>
                                    <path d="M21.8814634,36.2170732 L9.69317073,36.2170732 C4.4650547,36.2170732 0.226829268,40.4552986 0.226829268,45.6834146 L0.226829268,47.732439 C0.982926829,48.1709756 1.73902439,48.5792683 2.49512195,48.9497561 C11.7137661,53.3718304 22.5256248,52.9327845 31.3553659,47.7778049 L31.3553659,45.6758537 C31.3533614,43.1652236 30.3540946,40.7582187 28.5773931,38.9843531 C26.8006916,37.2104875 24.3920935,36.2150671 21.8814634,36.2170732 L21.8814634,36.2170732 Z" id="Shape"></path>
                                </g>
                            </g>
                        </g>
                    </g>
                </g>
            </g>
        </g>
    </g>
</svg>