<?xml version="1.0" encoding="utf-8"?>
<!-- Generator: Adobe Illustrator 21.0.0, SVG Export Plug-In . SVG Version: 6.00 Build 0)  -->
<svg version="1.1" id="Слой_1" xmlns="http://www.w3.org/2000/svg" xmlns:xlink="http://www.w3.org/1999/xlink" x="0px" y="0px"
	 viewBox="0 0 63 63" style="enable-background:new 0 0 63 63;" xml:space="preserve">
<style type="text/css">
	.st0{clip-path:url(#SVGID_2_);fill:#16193F;}
	.st1{clip-path:url(#SVGID_2_);fill:#161A40;}
	.st2{clip-path:url(#SVGID_2_);fill:#161B40;}
	.st3{clip-path:url(#SVGID_2_);fill:#161C41;}
	.st4{clip-path:url(#SVGID_2_);fill:#151D42;}
	.st5{clip-path:url(#SVGID_2_);fill:#151E42;}
	.st6{clip-path:url(#SVGID_2_);fill:#151F43;}
	.st7{clip-path:url(#SVGID_2_);fill:#152044;}
	.st8{clip-path:url(#SVGID_2_);fill:#152144;}
	.st9{clip-path:url(#SVGID_2_);fill:#152245;}
	.st10{clip-path:url(#SVGID_2_);fill:#142345;}
	.st11{clip-path:url(#SVGID_2_);fill:#142446;}
	.st12{clip-path:url(#SVGID_2_);fill:#142547;}
	.st13{clip-path:url(#SVGID_2_);fill:#142647;}
	.st14{clip-path:url(#SVGID_2_);fill:#142748;}
	.st15{clip-path:url(#SVGID_2_);fill:#142849;}
	.st16{clip-path:url(#SVGID_2_);fill:#142949;}
	.st17{clip-path:url(#SVGID_2_);fill:#132A4A;}
	.st18{clip-path:url(#SVGID_2_);fill:#132B4B;}
	.st19{clip-path:url(#SVGID_2_);fill:#132C4B;}
	.st20{clip-path:url(#SVGID_2_);fill:#132D4C;}
	.st21{clip-path:url(#SVGID_2_);fill:#132E4D;}
	.st22{clip-path:url(#SVGID_2_);fill:#132F4D;}
	.st23{clip-path:url(#SVGID_2_);fill:#13304E;}
	.st24{clip-path:url(#SVGID_2_);fill:#12314E;}
	.st25{clip-path:url(#SVGID_2_);fill:#12324F;}
	.st26{clip-path:url(#SVGID_2_);fill:#123350;}
	.st27{clip-path:url(#SVGID_2_);fill:#123450;}
	.st28{clip-path:url(#SVGID_2_);fill:#123551;}
	.st29{clip-path:url(#SVGID_2_);fill:#123652;}
	.st30{clip-path:url(#SVGID_2_);fill:#113752;}
	.st31{clip-path:url(#SVGID_2_);fill:#113853;}
	.st32{clip-path:url(#SVGID_2_);fill:#113954;}
	.st33{clip-path:url(#SVGID_2_);fill:#113A54;}
	.st34{clip-path:url(#SVGID_2_);fill:#113B55;}
	.st35{clip-path:url(#SVGID_2_);fill:#113C56;}
	.st36{clip-path:url(#SVGID_2_);fill:#113D56;}
	.st37{clip-path:url(#SVGID_2_);fill:#103E57;}
	.st38{clip-path:url(#SVGID_2_);fill:#103F58;}
	.st39{clip-path:url(#SVGID_2_);fill:#104058;}
	.st40{clip-path:url(#SVGID_2_);fill:#104259;}
	.st41{clip-path:url(#SVGID_2_);fill:#104359;}
	.st42{clip-path:url(#SVGID_2_);fill:#10445A;}
	.st43{clip-path:url(#SVGID_2_);fill:#0F455B;}
	.st44{clip-path:url(#SVGID_2_);fill:#0F465B;}
	.st45{clip-path:url(#SVGID_2_);fill:#0F475C;}
	.st46{clip-path:url(#SVGID_2_);fill:#0F485D;}
	.st47{clip-path:url(#SVGID_2_);fill:#0F495D;}
	.st48{clip-path:url(#SVGID_2_);fill:#0F4A5E;}
	.st49{clip-path:url(#SVGID_2_);fill:#0F4B5F;}
	.st50{clip-path:url(#SVGID_2_);fill:#0E4C5F;}
	.st51{clip-path:url(#SVGID_2_);fill:#0E4D60;}
	.st52{clip-path:url(#SVGID_2_);fill:#0E4E61;}
	.st53{clip-path:url(#SVGID_2_);fill:#0E4F61;}
	.st54{clip-path:url(#SVGID_2_);fill:#0E5062;}
	.st55{clip-path:url(#SVGID_2_);fill:#0E5163;}
	.st56{clip-path:url(#SVGID_2_);fill:#0D5263;}
	.st57{clip-path:url(#SVGID_2_);fill:#0D5364;}
	.st58{clip-path:url(#SVGID_2_);fill:#0D5464;}
	.st59{clip-path:url(#SVGID_2_);fill:#0D5565;}
	.st60{clip-path:url(#SVGID_2_);fill:#0D5666;}
	.st61{clip-path:url(#SVGID_2_);fill:#0D5766;}
	.st62{clip-path:url(#SVGID_2_);fill:#0D5867;}
	.st63{clip-path:url(#SVGID_2_);fill:#0C5968;}
	.st64{clip-path:url(#SVGID_2_);fill:#0C5A68;}
	.st65{clip-path:url(#SVGID_2_);fill:#0C5B69;}
	.st66{clip-path:url(#SVGID_2_);fill:#0C5C6A;}
	.st67{clip-path:url(#SVGID_2_);fill:#0C5D6A;}
	.st68{clip-path:url(#SVGID_2_);fill:#0C5E6B;}
	.st69{clip-path:url(#SVGID_2_);fill:#0C5F6C;}
	.st70{clip-path:url(#SVGID_2_);fill:#0B606C;}
	.st71{clip-path:url(#SVGID_2_);fill:#0B616D;}
	.st72{clip-path:url(#SVGID_2_);fill:#0B626D;}
	.st73{clip-path:url(#SVGID_2_);fill:#0B636E;}
	.st74{clip-path:url(#SVGID_2_);fill:#0B646F;}
	.st75{clip-path:url(#SVGID_2_);fill:#0B656F;}
	.st76{clip-path:url(#SVGID_2_);fill:#0A6670;}
	.st77{clip-path:url(#SVGID_2_);fill:#0A6771;}
	.st78{clip-path:url(#SVGID_2_);fill:#0A6871;}
	.st79{clip-path:url(#SVGID_2_);fill:#0A6972;}
</style>
<title>Oval</title>
<desc>Created with Sketch.</desc>
<g id="Page-1">
	<g id="INDEX-PAGE" transform="translate(-414.000000, -1310.000000)">
		<g id="SERVICES" transform="translate(0.000000, 900.000000)">
			<g id="Group-16" transform="translate(135.000000, 196.000000)">
				<g id="PERK-1">
					<g id="Group-4" transform="translate(279.000000, 214.000000)">
						<g id="Group-26">
							<g id="Group-19">
								<g id="Oval">
									<g>
										<defs>
											<circle id="SVGID_1_" cx="31.5" cy="31.4" r="30.9"/>
										</defs>
										<clipPath id="SVGID_2_">
											<use xlink:href="#SVGID_1_"  style="overflow:visible;"/>
										</clipPath>
										<rect x="0.5" y="0.5" class="st0" width="61.8" height="61.8"/>
										<path class="st0" d="M63.4,18V-0.5H-0.5v61.7h-3.2c1.4,1.1,2.8,2.2,4.3,3.2v-1.1h62.7V18z"/>
										<path class="st1" d="M63.4,18V-0.5H-0.5v57.6h-6.7c5,5,11,9.1,17.6,11.9v-5.7H63v0.6c1.5-1,2.9-2.1,4.3-3.2h-3.9V18z"/>
										<path class="st2" d="M63.4,18V-0.5H-0.5v57.1h-6.2c4.9,4.9,10.8,8.9,17.4,11.7v-5h42.6v5c3.3-1.4,6.4-3.1,9.3-5
											c1.5-1,2.9-2,4.2-3.1h-3.4V18z"/>
										<path class="st3" d="M63.4,18V-0.5H-0.5v56.6h-5.7C-1.2,61,4.6,64.9,11,67.7v-4.4h42v4.4c6.5-2.7,12.3-6.7,17.2-11.6h-6.8
											V18z"/>
										<path class="st4" d="M63.4,18V-0.5H-0.5v56.1h-5.2c4.8,4.8,10.6,8.7,16.9,11.4v-3.7h41.5V67c6.4-2.7,12.1-6.6,16.9-11.4
											h-6.3V18z"/>
										<path class="st5" d="M63.4,18V-0.5H-0.5v55.6h-4.7c4.8,4.8,10.4,8.6,16.7,11.3v-3.1h40.9v3.1c6.3-2.7,12-6.5,16.7-11.3
											h-5.8V18z"/>
										<path class="st6" d="M63.4,18V-0.5H-0.5v55.1h-4.2C4.7,64,17.7,69.8,32,69.8S59.3,64,68.7,54.6h-5.3V18z"/>
										<path class="st7" d="M63.4,18V-0.5H-0.5v54.6h-3.7c9.3,9.3,22,15,36.2,15s26.9-5.7,36.2-15h-4.8V18z"/>
										<path class="st8" d="M63.4,18V-0.5H-0.5v54.1h-3.2C5.5,62.8,18.1,68.4,32,68.4s26.6-5.6,35.7-14.8h-4.4V18z"/>
										<path class="st9" d="M63.4,18V-0.5H-0.5v53.7h-2.7c9,9,21.4,14.6,35.2,14.6s26.2-5.6,35.2-14.6h-3.9V18z"/>
										<path class="st10" d="M63.4,18V-0.5H-0.5v53.2h-2.2C6.2,61.5,18.5,67,32,67s25.8-5.5,34.7-14.4h-3.4V18z"/>
										<path class="st11" d="M63.4,18V-0.5H-0.5v52.7h-1.7C6.6,60.9,18.7,66.3,32,66.3s25.4-5.4,34.2-14.2h-2.9V18z"/>
										<path class="st12" d="M63.4,18V-0.5H-0.5v52.2h-1.2c8.6,8.6,20.5,14,33.7,14s25.1-5.3,33.7-14h-2.4V18z"/>
										<path class="st13" d="M63.4,18V-0.5H-0.5v51.7h-0.7C7.3,59.7,19.1,64.9,32,64.9s24.7-5.3,33.2-13.8h-1.9V18z"/>
										<path class="st14" d="M63.4,18V-0.5H-0.5v51.2h-0.2C7.7,59,19.3,64.2,32,64.2S56.4,59,64.7,50.7h-1.4V18z"/>
										<path class="st15" d="M63.4,18V-0.5H-0.5v43.9h-5.3c1.6,2.4,3.5,4.7,5.6,6.7C8.1,58.4,19.5,63.5,32,63.5s24-5.1,32.2-13.3
											h-0.9V18z"/>
										<path class="st16" d="M63.4,18V-0.5H-0.5V43h-4.7c1.6,2.4,3.4,4.6,5.5,6.6C8.4,57.8,19.6,62.8,32,62.8s23.6-5,31.7-13.1
											h-0.4V18z"/>
										<path class="st17" d="M63.4,18V0.8v-1.3H-0.5v43.2h-4.1c1.6,2.3,3.4,4.5,5.4,6.5c8,8,19,12.9,31.2,12.9
											s23.2-4.9,31.2-12.9c2-2,3.8-4.2,5.4-6.5h-5.3V18z"/>
										<path class="st18" d="M63.4,18V1v-1.6H-0.5v42.8H-4c1.6,2.3,3.3,4.5,5.3,6.4C9.2,56.5,20,61.4,32,61.4s22.9-4.9,30.7-12.7
											c2-2,3.7-4.1,5.3-6.4h-4.7V18z"/>
										<path class="st19" d="M63.4,18V1.3v-1.8H-0.5v35.1h-6.9c2.2,5.1,5.3,9.7,9.2,13.6C9.5,55.9,20.2,60.7,32,60.7
											s22.5-4.8,30.2-12.5c1.9-1.9,3.7-4.1,5.2-6.3h-4.1V18z"/>
										<path class="st20" d="M63.4,18V1.6v-2.1H-0.5v34.8h-6.3c2.1,5,5.2,9.6,9,13.4C9.9,55.3,20.4,60,32,60s22.1-4.7,29.7-12.3
											c1.9-1.9,3.6-4,5.1-6.2h-3.5V18z"/>
										<path class="st21" d="M63.4,18V1.9v-2.4H-0.5V34h-5.6C-4,39-1,43.5,2.8,47.2c7.5,7.5,17.8,12.1,29.2,12.1
											s21.8-4.6,29.2-12.1C65,43.5,68,39,70.1,34h-6.8V18z"/>
										<path class="st22" d="M63.4,18V2.1v-2.6H-0.5v34.3h-5c2.1,4.9,5,9.2,8.7,12.9c7.4,7.4,17.5,11.9,28.7,11.9
											s21.4-4.6,28.7-11.9c3.7-3.7,6.7-8.1,8.7-12.9h-6.1V18z"/>
										<path class="st23" d="M63.4,18V2.4v-2.9H-0.5v34h-4.3c2,4.8,4.9,9.1,8.6,12.7C11,53.4,21,57.9,32,57.9s21-4.5,28.2-11.7
											c3.6-3.6,6.5-7.9,8.6-12.7h-5.5V18z"/>
										<path class="st24" d="M63.4,18V2.7v-3.2H-0.5V18h-6.8c0,21.7,17.6,39.2,39.2,39.2c10.8,0,20.7-4.4,27.8-11.5
											c3.6-3.6,6.4-7.8,8.4-12.5h-4.8V18z"/>
										<path class="st25" d="M63.4,18v-15v-3.5H0.1v-3.1c-1.4,2.1-2.6,4.2-3.6,6.5h3v15h-6.1c0,21.3,17.3,38.5,38.5,38.5
											c10.6,0,20.3-4.3,27.3-11.3c3.5-3.5,6.3-7.6,8.3-12.3h-4.2V18z"/>
										<path class="st26" d="M63.4,18V3.2v-3.7H0.6v-2.7c-1.4,2-2.5,4.2-3.5,6.4h2.4V18h-5.4c0,20.9,16.9,37.8,37.8,37.8
											S69.9,38.9,69.9,18H63.4z"/>
										<path class="st27" d="M63.4,18V3.5h2.9c-0.9-2.2-2.1-4.3-3.4-6.3v2.3H1.2v-2.3c-1.3,2-2.5,4.1-3.4,6.3h1.7V18h-4.7
											c0,20.5,16.6,37.1,37.1,37.1S69.2,38.5,69.2,18H63.4z"/>
										<path class="st28" d="M63.4,18V3.8h2.3c-0.9-2.2-2.1-4.3-3.4-6.2v1.9H1.8v-1.9c-1.3,1.9-2.4,4-3.4,6.2h1.1V18h-4
											c0,20.1,16.3,36.4,36.4,36.4S68.5,38.1,68.5,18H63.4z"/>
										<path class="st29" d="M67.8,18c0-9.9-4-18.8-10.5-25.3v6.8H6.8v-6.8C0.3-0.9-3.7,8.1-3.7,18c0,19.7,16,35.7,35.7,35.7
											S67.8,37.7,67.8,18z"/>
										<path class="st30" d="M67.1,18c0-9.7-3.9-18.4-10.3-24.8v6.3H7.3v-6.3C0.9-0.5-3,8.3-3,18c0,19.4,15.7,35,35,35
											S67.1,37.3,67.1,18z"/>
										<path class="st31" d="M66.4,18c0-9.5-3.8-18.1-10.1-24.3v5.8H7.7v-5.8C1.5-0.1-2.3,8.5-2.3,18c0,19,15.4,34.3,34.3,34.3
											S66.4,36.9,66.4,18z"/>
										<path class="st32" d="M65.7,18c0-9.3-3.8-17.7-9.9-23.8v5.3H8.2v-5.3C2.2,0.3-1.6,8.7-1.6,18c0,18.6,15.1,33.6,33.6,33.6
											S65.7,36.5,65.7,18z"/>
										<path class="st33" d="M65,18c0-9.1-3.7-17.3-9.6-23.3v4.8H8.7v-4.8c-6,6-9.6,14.2-9.6,23.3c0,18.2,14.7,32.9,32.9,32.9
											S65,36.1,65,18z"/>
										<path class="st34" d="M64.3,18c0-8.9-3.6-17-9.4-22.8v4.3H9.2v-4.3C3.4,1-0.2,9-0.2,18c0,17.8,14.4,32.2,32.2,32.2
											S64.3,35.8,64.3,18z"/>
										<path class="st35" d="M63.6,18c0-8.7-3.5-16.6-9.2-22.3v3.8H9.7v-3.8C4,1.4,0.5,9.2,0.5,18c0,17.4,14.1,31.5,31.5,31.5
											S63.6,35.4,63.6,18z"/>
										<path class="st36" d="M62.9,18c0-8.5-3.5-16.2-9-21.8v3.3H10.2v-3.3c-5.6,5.6-9,13.3-9,21.8C1.2,35,15,48.8,32,48.8
											S62.9,35,62.9,18z"/>
										<path class="st37" d="M62.2,18c0-8.3-3.4-15.9-8.8-21.3v2.8H10.7v-2.8C5.3,2.1,1.9,9.6,1.9,18c0,16.6,13.5,30.1,30.1,30.1
											S62.2,34.6,62.2,18z"/>
										<path class="st38" d="M61.5,18c0-8.1-3.3-15.5-8.6-20.8v2.3H11.2v-2.3C5.9,2.5,2.6,9.8,2.6,18c0,16.3,13.2,29.4,29.4,29.4
											S61.5,34.2,61.5,18z"/>
										<path class="st39" d="M60.8,18c0-7.9-3.2-15.1-8.4-20.3v1.9H11.7v-1.9C6.5,2.8,3.3,10,3.3,18c0,15.9,12.9,28.7,28.7,28.7
											S60.8,33.8,60.8,18z"/>
										<path class="st40" d="M60.1,18c0-7.7-3.1-14.8-8.2-19.8v1.4H12.2v-1.4C7.1,3.2,4,10.2,4,18c0,15.5,12.6,28,28,28
											S60.1,33.4,60.1,18z"/>
										<path class="st41" d="M59.4,18c0-7.5-3.1-14.4-8-19.3v0.9H12.7v-0.9c-4.9,4.9-8,11.8-8,19.3C4.7,33,16.9,45.3,32,45.3
											S59.4,33,59.4,18z"/>
										<path class="st42" d="M58.7,18c0-7.4-3-14-7.8-18.8v0.4H13.2v-0.4C8.4,3.9,5.4,10.6,5.4,18c0,14.7,11.9,26.6,26.6,26.6
											S58.7,32.7,58.7,18z"/>
										<path class="st43" d="M58,18c0-7.2-2.9-13.6-7.6-18.3c-2.3-2.3-5.1-4.2-8.2-5.6v5.4H21.9v-5.4c-3.1,1.3-5.9,3.2-8.2,5.6
											C9,4.3,6.1,10.8,6.1,18c0,14.3,11.6,25.9,25.9,25.9S58,32.3,58,18z"/>
										<circle class="st44" cx="32" cy="18" r="25.2"/>
										<circle class="st45" cx="32" cy="18" r="24.5"/>
										<circle class="st46" cx="32" cy="18" r="23.8"/>
										<circle class="st47" cx="32" cy="18" r="23.1"/>
										<circle class="st48" cx="32" cy="18" r="22.4"/>
										<circle class="st49" cx="32" cy="18" r="21.7"/>
										<circle class="st50" cx="32" cy="18" r="21"/>
										<circle class="st51" cx="32" cy="18" r="20.3"/>
										<circle class="st52" cx="32" cy="18" r="19.6"/>
										<circle class="st53" cx="32" cy="18" r="18.9"/>
										<circle class="st54" cx="32" cy="18" r="18.2"/>
										<circle class="st55" cx="32" cy="18" r="17.5"/>
										<circle class="st56" cx="32" cy="18" r="16.8"/>
										<circle class="st57" cx="32" cy="18" r="16.1"/>
										<circle class="st58" cx="32" cy="18" r="15.4"/>
										<circle class="st59" cx="32" cy="18" r="14.7"/>
										<circle class="st60" cx="32" cy="18" r="14"/>
										<circle class="st61" cx="32" cy="18" r="13.3"/>
										<circle class="st62" cx="32" cy="18" r="12.6"/>
										<circle class="st63" cx="32" cy="18" r="11.9"/>
										<circle class="st64" cx="32" cy="18" r="11.2"/>
										<circle class="st65" cx="32" cy="18" r="10.5"/>
										<circle class="st66" cx="32" cy="18" r="9.8"/>
										<circle class="st67" cx="32" cy="18" r="9.1"/>
										<circle class="st68" cx="32" cy="18" r="8.4"/>
										<circle class="st69" cx="32" cy="18" r="7.7"/>
										<circle class="st70" cx="32" cy="18" r="7"/>
										<circle class="st71" cx="32" cy="18" r="6.3"/>
										<circle class="st72" cx="32" cy="18" r="5.6"/>
										<circle class="st73" cx="32" cy="18" r="4.9"/>
										<circle class="st74" cx="32" cy="18" r="4.2"/>
										<circle class="st75" cx="32" cy="18" r="3.5"/>
										<circle class="st76" cx="32" cy="18" r="2.8"/>
										<circle class="st77" cx="32" cy="18" r="2.1"/>
										<circle class="st78" cx="32" cy="18" r="1.4"/>
										<circle class="st79" cx="32" cy="18" r="0.7"/>
									</g>
								</g>
							</g>
						</g>
					</g>
				</g>
			</g>
		</g>
	</g>
</g>
</svg>
