<svg id="Layer_1" data-name="Layer 1" xmlns="http://www.w3.org/2000/svg" viewBox="0 0 61.58 61.58"><title>features-icon5</title><path id="a" d="M0,30.79a30.79,30.79,0,1,1,61.58,0h0A30.79,30.79,0,1,1,0,30.79Z" style="fill:#0829cc"/><path id="b" d="M16,48.13V17H47.13V48.13H16Z" style="fill:#fff;fill-opacity:0;stroke:#fff;stroke-linejoin:round;stroke-width:4px"/><path id="c" d="M16,38.92L25.88,31l6.76,7.37,6.56-3.82,8.06,6.82v5.37H16V38.92Z" style="fill:#fff"/><path id="c-2" data-name="c" d="M16,38.92L25.88,31l6.76,7.37,6.56-3.82,8.06,6.82v5.37H16V38.92Z" style="fill:#fff;fill-opacity:0;stroke:#fff;stroke-linejoin:round;stroke-width:3px"/><path id="d" d="M34,24.73a2.73,2.73,0,0,1,5.46,0h0A2.73,2.73,0,0,1,34,24.73Z" style="fill:#fff;fill-opacity:0;stroke:#fff;stroke-linejoin:round;stroke-width:3px"/></svg>