<svg id="Layer_1" data-name="Layer 1" xmlns="http://www.w3.org/2000/svg" viewBox="0 0 61.82 61.82"><title>features-icon1</title><path id="a" d="M1,30.91A30.91,30.91,0,1,1,31.91,61.82,30.91,30.91,0,0,1,1,30.91Z" transform="translate(-1)" style="fill:#0829cc"/><path id="b" d="M14,18.69A4.69,4.69,0,0,1,18.69,14H45a4.69,4.69,0,0,1,4.69,4.69V46.4A4.69,4.69,0,0,1,45,51.09H18.69A4.69,4.69,0,0,1,14,46.4V18.69Z" transform="translate(-1)" style="fill:#003799"/><path id="c" d="M14,17.67A3.67,3.67,0,0,1,17.67,14h27a3.67,3.67,0,0,1,3.67,3.67h0V46a3.67,3.67,0,0,1-3.67,3.67h-27A3.67,3.67,0,0,1,14,46h0V17.67Z" transform="translate(-1)" style="fill:#fff"/><path id="d" d="M49.17,20H14" transform="translate(-1)" style="fill:#fff;fill-opacity:0;stroke:#0644d6;stroke-miterlimit:50;stroke-width:2px"/><path id="e" d="M20,27H30.38" transform="translate(-1)" style="fill:#fff;fill-opacity:0;stroke:#0644d6;stroke-miterlimit:50;stroke-width:2px"/><path id="f" d="M20,32H30.38" transform="translate(-1)" style="fill:#fff;fill-opacity:0;stroke:#0644d6;stroke-miterlimit:50;stroke-width:2px"/><path id="g" d="M20,37H44" transform="translate(-1)" style="fill:#fff;fill-opacity:0;stroke:#0644d6;stroke-miterlimit:50;stroke-width:2px"/><path id="h" d="M20,41H44" transform="translate(-1)" style="fill:#fff;fill-opacity:0;stroke:#0644d6;stroke-miterlimit:50;stroke-width:2px"/><path id="i" d="M34,32.93V26h8.87v6.93H34Z" transform="translate(-1)" style="fill:#fff;fill-opacity:0;stroke:#0644d6;stroke-miterlimit:50;stroke-width:2px"/></svg>