<svg id="Layer_1" data-name="Layer 1" xmlns="http://www.w3.org/2000/svg" viewBox="0 0 61.82 61.82"><title>features-icon3</title><path id="a" d="M1,30.91a30.91,30.91,0,0,1,61.82-.08v0.08A30.91,30.91,0,0,1,1,30.91Z" transform="translate(-1 0.04)" style="fill:#0829cc"/><path id="b" d="M46.85,44.62a2.28,2.28,0,0,1-3.21,3.22l-8-8a12.87,12.87,0,1,1,3.4-3Zm-27-15.68h0Z" transform="translate(-1 0.04)" style="fill:#003799"/><path id="b-2" data-name="b" d="M46.85,44.62a2.28,2.28,0,0,1-3.21,3.22l-8-8a12.87,12.87,0,1,1,3.4-3Zm-27-15.68h0Z" transform="translate(-1 0.04)" style="fill:#fff;fill-opacity:0;stroke:#003799;stroke-miterlimit:50"/><path id="c" d="M17,27.91A10.91,10.91,0,1,1,27.92,38.82,10.91,10.91,0,0,1,17,27.91Z" transform="translate(-1 0.04)" style="fill:#fff;fill-opacity:0;stroke:#fff;stroke-miterlimit:50;stroke-width:5px"/><path id="d" d="M36,36l8.85,8.86" transform="translate(-1 0.04)" style="fill:#fff;fill-opacity:0;stroke:#fff;stroke-linecap:round;stroke-miterlimit:50;stroke-width:6px"/></svg>