<?xml version="1.0" encoding="UTF-8"?>
<svg width="62px" height="62px" viewBox="0 0 62 62" version="1.1" xmlns="http://www.w3.org/2000/svg" xmlns:xlink="http://www.w3.org/1999/xlink">
    <!-- Generator: Sketch 47 (45396) - http://www.bohemiancoding.com/sketch -->
    <title>Group 23</title>
    <desc>Created with Sketch.</desc>
    <defs>
        <radialGradient cx="50.9333372%" cy="28.2561585%" fx="50.9333372%" fy="28.2561585%" r="90.7054215%" id="radialGradient-1">
            <stop stop-color="#0A6972" offset="0%"></stop>
            <stop stop-color="#16193F" offset="100%"></stop>
        </radialGradient>
    </defs>
    <g id="Page-1" stroke="none" stroke-width="1" fill="none" fill-rule="evenodd">
        <g id="INDEX-PAGE" transform="translate(-814.000000, -1627.000000)">
            <g id="SERVICES" transform="translate(0.000000, 900.000000)">
                <g id="Group-6" transform="translate(535.000000, 513.000000)">
                    <g id="PERK-1-Copy-4">
                        <g id="Group-4" transform="translate(279.000000, 214.000000)">
                            <g id="Group-23">
                                <circle id="Oval" fill="url(#radialGradient-1)" fill-rule="nonzero" cx="30.9546341" cy="31.0226829" r="30.7882927"></circle>
                                <g id="Group" transform="translate(15.121951, 15.121951)" fill-rule="nonzero" fill="#082E3C">
                                    <path d="M32.7163415,0.680487805 L1.59536585,0.680487805 C0.760203549,0.680487805 0.0831707317,1.35752062 0.0831707317,2.19268293 L0.0831707317,33.3212195 C0.0831707317,34.1563818 0.760203549,34.8334146 1.59536585,34.8334146 L32.7239024,34.8334146 C33.5590647,34.8334146 34.2360976,34.1563818 34.2360976,33.3212195 L34.2360976,2.19268293 C34.2361026,1.79031038 34.075745,1.40452734 33.790516,1.12071739 C33.505287,0.836907442 33.118709,0.678475942 32.7163415,0.680487805 Z M31.2041463,3.70487805 L31.2041463,24.0363415 L25.2612195,19.0007317 C24.8936342,18.6887346 24.3689703,18.6432435 23.9531707,18.8873171 L18.2370732,22.2217073 L12.097561,15.5982927 C11.7214691,15.150634 11.066699,15.0622401 10.5853659,15.3941463 L3.14536585,22.0931707 L3.14536585,3.70487805 L31.2041463,3.70487805 Z M3.1,31.8090244 L3.1,24.8982927 L11.7573171,18.6226829 L17.05,25.1629268 C17.4025182,25.5969161 18.0187277,25.709246 18.5017073,25.427561 L24.3614634,22.01 L31.1663415,27.7714634 L31.1663415,31.8090244 L3.1,31.8090244 Z" id="Shape"></path>
                                    <path d="M21.9268293,14.6531707 C24.060669,14.6531707 25.7904878,12.9233519 25.7904878,10.7895122 C25.7904878,8.65567251 24.060669,6.92585366 21.9268293,6.92585366 C19.7929896,6.92585366 18.0631707,8.65567251 18.0631707,10.7895122 C18.067331,12.9216263 19.7947152,14.6490105 21.9268293,14.6531707 L21.9268293,14.6531707 Z M21.9268293,9.19414634 C22.8079255,9.19414634 23.5221951,9.90841596 23.5221951,10.7895122 C23.5221951,11.6706084 22.8079255,12.384878 21.9268293,12.384878 C21.045733,12.384878 20.3314634,11.6706084 20.3314634,10.7895122 C20.3314634,9.90841596 21.045733,9.19414634 21.9268293,9.19414634 L21.9268293,9.19414634 Z" id="Shape"></path>
                                </g>
                                <rect id="Rectangle-path" stroke="#FFFFFF" stroke-width="4" stroke-linejoin="round" x="15.9612195" y="16.5585366" width="31.1285366" height="31.1285366"></rect>
                                <polygon id="Shape" stroke="#FFFFFF" stroke-width="3" fill="#FFFFFF" fill-rule="nonzero" stroke-linejoin="round" points="15.6965854 39.354878 25.5787805 31.4385366 32.3382927 38.8104878 38.8936585 34.9846341 46.9536585 41.8121951 46.9536585 47.1804878 15.6965854 47.1804878"></polygon>
                                <circle id="Oval" stroke="#FFFFFF" stroke-width="3" stroke-linejoin="round" cx="36.3002439" cy="25.1553659" r="2.7295122"></circle>
                            </g>
                        </g>
                    </g>
                </g>
            </g>
        </g>
    </g>
</svg>