<?xml version="1.0" encoding="UTF-8"?>
<svg width="62px" height="63px" viewBox="0 0 62 63" version="1.1" xmlns="http://www.w3.org/2000/svg" xmlns:xlink="http://www.w3.org/1999/xlink">
    <!-- Generator: Sketch 47 (45396) - http://www.bohemiancoding.com/sketch -->
    <title>Group 20</title>
    <desc>Created with Sketch.</desc>
    <defs>
        <radialGradient cx="50.9333372%" cy="28.2561585%" fx="50.9333372%" fy="28.2561585%" r="90.7054215%" id="radialGradient-1">
            <stop stop-color="#0A6972" offset="0%"></stop>
            <stop stop-color="#16193F" offset="100%"></stop>
        </radialGradient>
    </defs>
    <g id="Page-1" stroke="none" stroke-width="1" fill="none" fill-rule="evenodd">
        <g id="INDEX-PAGE" transform="translate(-814.000000, -1310.000000)" fill-rule="nonzero">
            <g id="SERVICES" transform="translate(0.000000, 900.000000)">
                <g id="Group-15" transform="translate(535.000000, 196.000000)">
                    <g id="PERK-1-Copy">
                        <g id="Group-4" transform="translate(279.000000, 214.000000)">
                            <g id="Group-20">
                                <circle id="Oval" fill="url(#radialGradient-1)" cx="30.9546341" cy="31.2721951" r="30.7882927"></circle>
                                <path d="M39.99,27.7639024 C43.2712628,27.7663939 46.1796059,25.6522278 47.1896135,22.5302771 C48.1996211,19.4083264 47.0807267,15.991276 44.4197865,14.0713572 C41.7588462,12.1514383 38.1633048,12.1669336 35.5190113,14.109716 C32.8747179,16.0524984 31.7853167,19.4790657 32.8221951,22.5921951 L21.8436585,28.7317073 C19.409578,26.0560313 15.2826228,25.8182747 12.5573712,28.1967183 C9.83211949,30.5751619 9.50939581,34.6963434 11.831193,37.470014 C14.1529901,40.2436846 18.2666487,40.6512384 21.087561,38.3870732 L31.7485366,45.5397561 C30.9242383,48.4977108 32.4294206,51.6069235 35.2608824,52.79511 C38.0923443,53.9832965 41.365556,52.8792753 42.8989282,50.2188744 C44.4323005,47.5584735 43.7468182,44.1727843 41.2993538,42.3183621 C38.8518895,40.4639399 35.4070147,40.7200937 33.2607317,42.9160976 L22.9702439,36.0053659 C23.6577358,34.5583322 23.7921996,32.9098052 23.3482927,31.3704878 L34.3646341,25.2158537 C35.791615,26.8271604 37.8376793,27.7539395 39.99,27.7639024 L39.99,27.7639024 Z" id="Shape" fill="#082E3C"></path>
                                <path d="M39.2339024,27.0078049 C42.5151652,27.0102963 45.4235084,24.8961302 46.433516,21.7741796 C47.4435236,18.6522289 46.3246291,15.2351785 43.6636889,13.3152596 C41.0027487,11.3953407 37.4072073,11.4108361 34.7629138,13.3536185 C32.1186203,15.2964009 31.0292192,18.7229682 32.0660976,21.8360976 L21.087561,27.9756098 C18.6534804,25.2999337 14.5265253,25.0621772 11.8012736,27.4406208 C9.07602193,29.8190644 8.75329825,33.9402458 11.0750954,36.7139164 C13.3968925,39.487587 17.5105511,39.8951409 20.3314634,37.6309756 L30.992439,44.7836585 C30.1681407,47.7416132 31.673323,50.8508259 34.5047849,52.0390124 C37.3362467,53.2271989 40.6094584,52.1231778 42.1428307,49.4627769 C43.676203,46.802376 42.9907206,43.4166868 40.5432563,41.5622646 C38.0957919,39.7078423 34.6509171,39.9639961 32.5046341,42.16 L22.2141463,35.2492683 C22.9016382,33.8022347 23.0361021,32.1537076 22.5921951,30.6143902 L33.6085366,24.4597561 C35.0355174,26.0710628 37.0815817,26.9978419 39.2339024,27.0078049 Z" id="Shape" fill="#FFFFFF"></path>
                            </g>
                        </g>
                    </g>
                </g>
            </g>
        </g>
    </g>
</svg>