<svg id="Layer_1" data-name="Layer 1" xmlns="http://www.w3.org/2000/svg" viewBox="0 0 61.58 61.58"><title>features-icon2</title><path id="a" d="M0,30.79A30.79,30.79,0,1,1,30.79,61.58,30.79,30.79,0,0,1,0,30.79Z" style="fill:#0829cc"/><path id="b" d="M39.71,28.12a7.57,7.57,0,1,0-7.17-5.17l-11,6.14a6.64,6.64,0,1,0-.75,9.66L31.47,45.9A6.07,6.07,0,1,0,33,43.27L22.69,36.36a6.55,6.55,0,0,0,.38-4.63l11-6.16a7.55,7.55,0,0,0,5.63,2.55h0Z" style="fill:#003799"/><path id="b-2" data-name="b" d="M39.71,28.12a7.57,7.57,0,1,0-7.17-5.17l-11,6.14a6.64,6.64,0,1,0-.75,9.66L31.47,45.9A6.07,6.07,0,1,0,33,43.27L22.69,36.36a6.55,6.55,0,0,0,.38-4.63l11-6.16a7.55,7.55,0,0,0,5.63,2.55h0Z" style="fill:#fff;fill-opacity:0;stroke:#003799;stroke-miterlimit:50"/><path id="c" d="M39.71,27.12a7.57,7.57,0,1,0-7.17-5.17l-11,6.14a6.64,6.64,0,1,0-.75,9.66L31.47,44.9A6.07,6.07,0,1,0,33,42.27L22.69,35.36a6.55,6.55,0,0,0,.38-4.63l11-6.16a7.55,7.55,0,0,0,5.63,2.55h0Z" style="fill:#fff"/></svg>