<svg id="Layer_1" data-name="Layer 1" xmlns="http://www.w3.org/2000/svg" viewBox="0 0 61.58 65"><title>features-icon6-disabled</title><g id="SERVICES"><g id="Group-7"><g id="PERK-1-Copy-3"><g id="Group-4"><g id="Group-24"><circle id="Oval" cx="30.79" cy="30.82" r="30.79" style="fill:#828282"/><path id="Shape" d="M61.58,30.79A30.79,30.79,0,1,0,15.19,57.33V56a9.47,9.47,0,0,1,9.47-9.47H39.11a9.47,9.47,0,0,1,9.47,9.35,30.74,30.74,0,0,0,13-25.13h0ZM40.67,44.4H23.11L15.78,34.26,29.24,10.88v3.91l2.27-3.94v16a2.59,2.59,0,1,0,.76,0v-16l2.26,3.94V10.87L48,34.25Z" transform="translate(0 0.01)"/><g id="Group"><path id="Shape-2" d="M29.4,30.15a3.61,3.61,0,0,1,2.11-3.28v-16l-2.27,3.92v12.1a3.61,3.61,0,0,0,1.46,6.9h0.14a3.59,3.59,0,0,0,1.08-.2A3.61,3.61,0,0,1,29.4,30.15Z" transform="translate(0 0.01)" style="stroke:#000"/><polygon id="Shape-3" points="38.39 44.4 40.66 44.4 47.99 34.25 34.53 10.88 34.53 14.82 45.72 34.25 38.39 44.4" style="stroke:#000"/><path id="Shape-4" d="M48.58,55.95a9.47,9.47,0,0,0-9.47-9.35H36.84a9.47,9.47,0,0,1,9.47,9.47h0v1.35Q47.47,56.72,48.58,55.95Z" transform="translate(0 0.01)" style="stroke:#000"/></g><path id="Shape-5" d="M15.19,57.35V65h2.27V58.58Q16.29,58,15.19,57.35Z" transform="translate(0 0.01)" style="fill:#fff"/><g id="Group-2"><path id="Shape-6" d="M25.37,44.4h13L45.7,34.26,34.54,14.79l-2.27-3.9v16a3.63,3.63,0,0,1-1.43,6.9h-0.1a3.61,3.61,0,0,1-1.46-6.9v-16L15.84,34.25,23.15,44.4h2.22Z" transform="translate(0 0.01)" style="fill:#828282"/><path id="Shape-7" d="M36.84,46.59H24.66a9.47,9.47,0,0,0-9.47,9.47h0v2c0.76,0.44,1.51.85,2.27,1.22a30.81,30.81,0,0,0,28.86-1.17V56a9.47,9.47,0,0,0-9.48-9.42h0Z" transform="translate(0 0.01)" style="fill:#828282"/></g></g></g></g></g></g></svg>