<svg id="Layer_1" data-name="Layer 1" xmlns="http://www.w3.org/2000/svg" xmlns:xlink="http://www.w3.org/1999/xlink" viewBox="0 0 61.58 61.58"><defs><radialGradient id="radial-gradient" cx="-269.04" cy="421.81" r="0.91" gradientTransform="matrix(61.58, 0, 0, -61.58, 16597.98, 25990.78)" gradientUnits="userSpaceOnUse"><stop offset="0" stop-color="#0a6972"/><stop offset="1" stop-color="#16193f"/></radialGradient></defs><title>features-icon4</title><g id="Page-1"><g id="INDEX-PAGE"><g id="SERVICES"><g id="Group-5"><g id="PERK-1-Copy-5"><g id="Group-4"><g id="Group-22"><circle id="Oval" cx="30.79" cy="30.79" r="30.79" style="fill:url(#radial-gradient)"/><g id="Group"><path id="Shape" d="M18.15,39.11H44.52V22.89H18.15V39.11ZM32.8,26.67h8.79V37H32.77Zm-11.15,1h8.13v1.51H21.62Zm0,3.4h8.13v1.51H21.62Zm0,3.4h8.13V36H21.62Z" transform="translate(-0.29 -0.61)" style="fill:#003799;stroke:#003799"/><rect id="Rectangle-path" x="33.99" y="27.57" width="5.75" height="7.3" style="fill:#003799;stroke:#003799"/><path id="Shape-2" data-name="Shape" d="M50.87,16.56H12.1a1.51,1.51,0,0,0-1.51,1.51V43.74a1.51,1.51,0,0,0,1.51,1.51H50.86a1.51,1.51,0,0,0,1.51-1.51V18.07A1.51,1.51,0,0,0,50.87,16.56Zm1.47,24.06H10.62V39.11h6V21.37H46V39.11h6.33Z" transform="translate(-0.29 -0.61)" style="fill:#082e3c"/><path id="Shape-3" data-name="Shape" d="M40.12,50.2H37.67l-0.53-3.43h-3l0.53,3.43H28.4l0.53-3.43h-3L25.37,50.2H22.92a1.51,1.51,0,0,0,0,3H40.19a1.51,1.51,0,0,0,0-3H40.12Z" transform="translate(-0.29 -0.61)" style="fill:#003799;stroke:#003799"/></g><polygon id="Shape-4" data-name="Shape" points="28.07 43.88 32.8 43.88 32.8 43.88 28.07 43.88" style="fill:none"/><polygon id="Shape-5" data-name="Shape" points="27.31 48.84 33.56 48.84 33.03 45.4 27.84 45.4 27.31 48.84" style="fill:none"/><g id="Group-2" data-name="Group"><path id="Shape-6" data-name="Shape" d="M17.39,38.36H43.76V22.13H17.39V38.36ZM32,25.91h8.79V36.24H32ZM20.89,27H29v1.51H20.86Zm0,3.4H29v1.51H20.86Zm0,3.4H29v1.51H20.86Z" transform="translate(-0.29 -0.61)" style="fill:#fff"/><rect id="Rectangle-path-2" data-name="Rectangle-path" x="33.23" y="26.81" width="5.75" height="7.3" style="fill:#fff"/><path id="Shape-7" data-name="Shape" d="M50.11,15.8H11.34a1.51,1.51,0,0,0-1.51,1.51V43a1.51,1.51,0,0,0,1.51,1.51H50.1A1.51,1.51,0,0,0,51.61,43V17.31A1.51,1.51,0,0,0,50.11,15.8Zm1.47,24.06H9.87V38.35h6V20.62h29.4V38.36H51.6Z" transform="translate(-0.29 -0.61)" style="fill:#fff"/><path id="Shape-8" data-name="Shape" d="M39.36,49.45H36.91L36.38,46h-3l0.53,3.43H27.64L28.17,46h-3l-0.53,3.43H22.17a1.51,1.51,0,0,0,0,3H39.43a1.51,1.51,0,1,0,0-3H39.36Z" transform="translate(-0.29 -0.61)" style="fill:#fff"/></g><polygon id="Shape-9" data-name="Shape" points="15.56 20.01 15.56 37.74 17.07 37.74 17.07 21.52 43.45 21.52 43.45 37.74 44.96 37.74 44.96 20.01 15.56 20.01" style="fill:#0e4e61"/><rect id="Rectangle-path-3" data-name="Rectangle-path" x="20.57" y="26.34" width="8.13" height="1.51" style="fill:#0e4e61"/><rect id="Rectangle-path-4" data-name="Rectangle-path" x="20.57" y="29.74" width="8.13" height="1.51" style="fill:#0e4e61"/><rect id="Rectangle-path-5" data-name="Rectangle-path" x="20.57" y="33.15" width="8.13" height="1.51" style="fill:#0e4e61"/><path id="Shape-10" data-name="Shape" d="M32,25.91V36.24h8.82V25.91H32Zm7.3,8.82H33.56v-7.3h5.75v7.3Z" transform="translate(-0.29 -0.61)" style="fill:#0e4e61"/><polygon id="Shape-11" data-name="Shape" points="44.96 37.74 44.96 38.25 43.45 38.25 43.45 37.74 17.07 37.74 17.07 38.25 15.56 38.25 15.56 37.74 12.57 37.74 12.57 39.26 48.31 39.26 48.31 37.74 44.96 37.74" style="fill:#0e4e61"/><rect id="Rectangle-path-6" data-name="Rectangle-path" x="49.82" y="37.74" width="1.47" height="1.51" style="fill:#0e4e61"/><rect id="Rectangle-path-7" data-name="Rectangle-path" x="9.57" y="37.74" width="1.48" height="1.51" style="fill:#0e4e61"/><rect id="Rectangle-path-8" data-name="Rectangle-path" x="48.31" y="37.74" width="1.51" height="1.51" style="fill:#0e4e61"/><rect id="Rectangle-path-9" data-name="Rectangle-path" x="11.05" y="37.74" width="1.51" height="1.51" style="fill:#0e4e61"/><rect id="Rectangle-path-10" data-name="Rectangle-path" x="43.45" y="37.74" width="1.51" height="1" style="fill:#0e4e61"/><rect id="Rectangle-path-11" data-name="Rectangle-path" x="15.56" y="37.74" width="1.51" height="1" style="fill:#0e4e61"/></g></g></g></g></g></g></g></svg>