<svg id="Layer_1" data-name="Layer 1" xmlns="http://www.w3.org/2000/svg" viewBox="0 0 61.58 64.99"><title>features-icon6</title><g id="Page-1"><g id="INDEX-PAGE"><g id="SERVICES"><g id="Group-7"><g id="PERK-1-Copy-3"><g id="Group-4"><g id="Group-24"><circle id="Oval" cx="30.79" cy="30.81" r="30.79" style="fill:#0644d6"/><path id="Shape" d="M61.74,31A30.79,30.79,0,1,0,15.35,57.54V56.25a9.47,9.47,0,0,1,9.47-9.47H39.27a9.47,9.47,0,0,1,9.47,9.35A30.74,30.74,0,0,0,61.74,31h0ZM40.83,44.61H23.27L15.94,34.47,29.4,11.09V15l2.27-3.94v16a2.59,2.59,0,1,0,.76,0v-16L34.69,15V11.08L48.15,34.46Z" transform="translate(-0.16 -0.21)" style="fill:#0829cc"/><g id="Group"><path id="Shape-2" data-name="Shape" d="M29.56,30.36a3.61,3.61,0,0,1,2.11-3.28v-16L29.4,15v12.1A3.61,3.61,0,0,0,30.86,34H31a3.59,3.59,0,0,0,1.08-.2A3.61,3.61,0,0,1,29.56,30.36Z" transform="translate(-0.16 -0.21)" style="fill:#003799"/><polygon id="Shape-3" data-name="Shape" points="38.39 44.39 40.66 44.39 47.99 34.24 34.53 10.87 34.53 14.81 45.72 34.24 38.39 44.39" style="fill:#003799"/><path id="Shape-4" data-name="Shape" d="M48.74,56.16a9.47,9.47,0,0,0-9.47-9.35H37a9.47,9.47,0,0,1,9.47,9.47v1.35Q47.63,56.93,48.74,56.16Z" transform="translate(-0.16 -0.21)" style="fill:#003799"/></g><path id="Shape-5" data-name="Shape" d="M15.35,57.56V65.2h2.27V58.79Q16.45,58.22,15.35,57.56Z" transform="translate(-0.16 -0.21)" style="fill:#fff"/><g id="Group-2" data-name="Group"><path id="Shape-6" data-name="Shape" d="M25.53,44.61h13l7.33-10.14L34.7,15,32.43,11.1v16A3.63,3.63,0,0,1,31,34h-0.1a3.61,3.61,0,0,1-1.46-6.9v-16L16,34.46l7.31,10.15h2.27Z" transform="translate(-0.16 -0.21)" style="fill:#fff"/><path id="Shape-7" data-name="Shape" d="M37,46.8H24.82a9.47,9.47,0,0,0-9.47,9.47v2c0.76,0.44,1.51.85,2.27,1.22a30.81,30.81,0,0,0,28.86-1.17v-2.1A9.47,9.47,0,0,0,37,46.8h0Z" transform="translate(-0.16 -0.21)" style="fill:#fff"/></g></g></g></g></g></g></g></g></svg>