<svg id="Layer_1" data-name="Layer 1" xmlns="http://www.w3.org/2000/svg" viewBox="0 0 61.58 61.58"><title>features-icon2-disabled</title><g id="SERVICES"><g id="Group-5"><g id="PERK-1-Copy-5"><g id="Group-4"><g id="Group-22"><circle id="Oval" cx="30.79" cy="30.79" r="30.79"/><g id="Group"><path id="Shape" d="M17.86,38.5H44.23V22.28H17.86V38.5ZM32.51,26.06H41.3V36.39H32.48Zm-11.15,1h8.13v1.51H21.33Zm0,3.4h8.13V32H21.33Zm0,3.4h8.13v1.53H21.33Z" style="fill:#003799;stroke:#003799"/><rect id="Rectangle-path" x="33.99" y="27.57" width="5.75" height="7.3" style="fill:#003799;stroke:#003799"/><path id="Shape-2" d="M50.58,15.95H11.81a1.51,1.51,0,0,0-1.51,1.51h0V43.13a1.51,1.51,0,0,0,1.51,1.51H50.57a1.51,1.51,0,0,0,1.51-1.51V17.46A1.51,1.51,0,0,0,50.58,15.95ZM52.05,40H10.33V38.5h6V20.76H45.71V38.5H52V40Z" style="stroke:#000"/><path id="Shape-3" d="M39.83,49.59H37.38l-0.53-3.43h-3l0.53,3.43H28.11l0.53-3.43h-3l-0.56,3.43H22.63a1.51,1.51,0,0,0,0,3H39.9a1.51,1.51,0,0,0,0-3H39.83Z" style="stroke:#000"/></g><polygon id="Shape-4" points="28.07 43.88 32.8 43.88 32.8 43.88 28.07 43.88" style="fill:none"/><polygon id="Shape-5" points="27.31 48.84 33.56 48.84 33.03 45.4 27.84 45.4 27.31 48.84" style="fill:none"/><g id="Group-2"><path id="Shape-6" d="M17.1,37.75H43.47V21.52H17.1V37.75ZM31.71,25.3H40.5V35.63H31.71V25.3ZM20.6,26.39h8.11V27.9H20.57Zm0,3.4h8.11V31.3H20.57Zm0,3.4h8.11V34.7H20.57Z" style="fill:#828282"/><rect id="Rectangle-path-2" x="33.23" y="26.81" width="5.75" height="7.3" style="fill:#828282"/><path id="Shape-7" d="M49.82,15.19H11.05A1.51,1.51,0,0,0,9.54,16.7V42.39a1.51,1.51,0,0,0,1.51,1.51H49.81a1.51,1.51,0,0,0,1.51-1.51h0V16.7A1.51,1.51,0,0,0,49.82,15.19Zm1.47,24.06H9.58V37.74h6V20H45V37.75h6.33Z" style="fill:#828282"/><path id="Shape-8" d="M39.07,48.84H36.62l-0.53-3.45h-3l0.53,3.43H27.35l0.53-3.43h-3l-0.53,3.43H21.88a1.51,1.51,0,0,0,0,3H39.14a1.51,1.51,0,1,0,0-3H39.07v0Z" style="fill:#828282"/></g><polygon id="Shape-9" points="15.56 20.01 15.56 37.74 17.07 37.74 17.07 21.52 43.45 21.52 43.45 37.74 44.96 37.74 44.96 20.01 15.56 20.01"/><rect id="Rectangle-path-3" x="20.57" y="26.34" width="8.13" height="1.51"/><rect id="Rectangle-path-4" x="20.57" y="29.74" width="8.13" height="1.51"/><rect id="Rectangle-path-5" x="20.57" y="33.15" width="8.13" height="1.51"/><path id="Shape-10" d="M31.71,25.3V35.63h8.82V25.3H31.71ZM39,34.12H33.27v-7.3H39v7.3h0Z"/><polygon id="Shape-11" points="44.96 37.74 44.96 38.25 43.45 38.25 43.45 37.74 17.07 37.74 17.07 38.25 15.56 38.25 15.56 37.74 12.57 37.74 12.57 39.26 48.31 39.26 48.31 37.74 44.96 37.74"/><rect id="Rectangle-path-6" x="49.82" y="37.74" width="1.47" height="1.51" style="fill:#828282"/><rect id="Rectangle-path-7" x="9.57" y="37.74" width="1.48" height="1.51" style="fill:#828282"/><rect id="Rectangle-path-8" x="48.31" y="37.74" width="1.51" height="1.51" style="fill:#828282"/><rect id="Rectangle-path-9" x="11.05" y="37.74" width="1.51" height="1.51" style="fill:#828282"/><rect id="Rectangle-path-10" x="43.45" y="37.74" width="1.51" height="1" style="fill:#828282"/><rect id="Rectangle-path-11" x="15.56" y="37.74" width="1.51" height="1" style="fill:#828282"/></g></g></g></g></g></svg>