<svg id="Layer_1" data-name="Layer 1" xmlns="http://www.w3.org/2000/svg" viewBox="0 0 61.58 61.58"><title>features-icon2</title><g id="Page-1"><g id="INDEX-PAGE"><g id="SERVICES"><g id="Group-15"><g id="PERK-1-Copy"><g id="Group-4"><g id="Group-20"><circle id="Oval" cx="30.79" cy="30.79" r="30.79" style="fill:#0829cc"/><path id="Shape" d="M40,27.76a7.56,7.56,0,1,0-7.17-5.17l-11,6.14a6.65,6.65,0,1,0-.76,9.66l10.66,7.15a6.09,6.09,0,1,0,1.51-2.62L23,36a6.56,6.56,0,0,0,.38-4.63l11-6.15A7.56,7.56,0,0,0,40,27.76h0Z" transform="translate(-0.17 -0.48)" style="fill:#003799;stroke:#003799"/><path id="Shape-2" data-name="Shape" d="M39.23,27a7.56,7.56,0,1,0-7.17-5.17L21.09,28a6.65,6.65,0,1,0-.76,9.66L31,44.78a6.09,6.09,0,1,0,1.51-2.62L22.21,35.25a6.56,6.56,0,0,0,.38-4.63l11-6.15A7.56,7.56,0,0,0,39.23,27Z" transform="translate(-0.17 -0.48)" style="fill:#fff"/></g></g></g></g></g></g></g></svg>