<svg id="Layer_1" data-name="Layer 1" xmlns="http://www.w3.org/2000/svg" viewBox="0 0 41 41.02"><title>in-scroll</title><path id="a" d="M30.12,29.51V22.12c0-3.83-2.08-5.61-4.77-5.61a4.2,4.2,0,0,0-3.75,2.08V16.85H17.51V29.51H21.6V22.3a2.76,2.76,0,0,1,.16-1,2.3,2.3,0,0,1,2.15-1.52c1.48,0,2.12,1.14,2.12,2.82v6.91h4.09Z" transform="translate(0.03 -1.26)" style="fill:#fff;stroke:#0829cc;stroke-miterlimit:10"/><path id="b" d="M13.73,10.51a2.1,2.1,0,0,0-2.22,2.19,2.1,2.1,0,0,0,2,2.19h0.2a2.1,2.1,0,0,0,2.21-2V12.68a2.11,2.11,0,0,0-2-2.17H13.73Z" transform="translate(0.03 -1.26)" style="fill:#fff;stroke:#0829cc;stroke-miterlimit:10"/><path id="c" d="M11.51,30.2V17.51H15.6V30.2H11.51Z" transform="translate(0.03 -1.26)" style="fill:#fff;stroke:#0829cc;stroke-miterlimit:10"/><path id="d" d="M40.43,20.51a20,20,0,1,1-39.92,0h0A20,20,0,0,1,40.43,20.51Zm-1.26,0a18.71,18.71,0,1,0-5.49,13.21A18.7,18.7,0,0,0,39.17,20.51Z" transform="translate(0.03 -1.26)" style="fill:#fff;stroke:#0829cc;stroke-miterlimit:10"/></svg>