<svg id="Layer_1" data-name="Layer 1" xmlns="http://www.w3.org/2000/svg" viewBox="0 0 39.93 39.93"><title>in</title><path id="a" d="M29.61,29V21.61c0-3.83-2.08-5.61-4.77-5.61a4.2,4.2,0,0,0-3.75,2.08V16.34H17V29h4.09V21.79a2.76,2.76,0,0,1,.16-1,2.3,2.3,0,0,1,2.15-1.52c1.48,0,2.12,1.14,2.12,2.82V29h4.09Z" transform="translate(0.01 0.01)" style="fill:#fff"/><path id="b" d="M13.22,10A2.1,2.1,0,0,0,11,12.19a2.1,2.1,0,0,0,2,2.19H13.2a2.1,2.1,0,0,0,2.21-2q0-.1,0-0.21A2.11,2.11,0,0,0,13.22,10h0Z" transform="translate(0.01 0.01)" style="fill:#fff"/><path id="c" d="M11,29.69V17h4.09V29.69H11Z" transform="translate(0.01 0.01)" style="fill:#fff"/><path id="d" d="M39.92,20A20,20,0,1,1,0,20H0A20,20,0,0,1,39.92,20Zm-1.26,0A18.7,18.7,0,0,0,6.73,6.73,18.71,18.71,0,1,0,38.66,20Z" transform="translate(0.01 0.01)" style="fill:#fff"/></svg>