<svg id="Layer_1" data-name="Layer 1" xmlns="http://www.w3.org/2000/svg" viewBox="0 0 39.92 39.92"><title>in</title><g id="Page-1"><g id="INDEX-PAGE"><g id="HEADER"><g id="if_linkedin_313475" data-name="if linkedin 313475"><path id="Shape" d="M30,29.52V22.1c0-3.83-2.08-5.61-4.77-5.61a4.21,4.21,0,0,0-3.74,2.08V16.83H17.41V29.52H21.5V22.28a2.74,2.74,0,0,1,.16-1,2.3,2.3,0,0,1,2.14-1.52c1.49,0,2.12,1.14,2.12,2.82v6.94H30Z" transform="translate(-0.04 -0.04)" style="fill:#fff"/><path id="Shape-2" data-name="Shape" d="M13.08,10.44a2.11,2.11,0,0,0-2.22,2.19A2.1,2.1,0,0,0,13,14.82h0a2.11,2.11,0,0,0,2.22-2.19A2.11,2.11,0,0,0,13.08,10.44Z" transform="translate(-0.04 -0.04)" style="fill:#fff"/><rect id="Rectangle-path" x="10.86" y="16.78" width="4.09" height="12.69" style="fill:#fff"/><path id="Shape-3" data-name="Shape" d="M20,0A20,20,0,1,0,40,20,20,20,0,0,0,20,0ZM33.23,33.23A18.71,18.71,0,0,1,6.77,6.77,18.71,18.71,0,0,1,33.23,33.23Z" transform="translate(-0.04 -0.04)" style="fill:#fff"/></g></g></g></g></svg>