<svg id="Layer_1" data-name="Layer 1" xmlns="http://www.w3.org/2000/svg" viewBox="0 0 29.94 29.94"><title>inst-scroll-mobile</title><g id="Page-1"><g id="MENU-BAR"><g id="Group-2"><g id="Group-10"><g id="Group-9"><g id="black-insta"><path id="Shape" d="M15,0A15,15,0,1,0,30,15,15,15,0,0,0,15,0Zm9.92,24.89A14,14,0,0,1,5.08,5.08,14,14,0,0,1,24.92,24.92Z" transform="translate(-0.03 -0.03)"/><path id="Shape-2" data-name="Shape" d="M9.82,7.92H20.35a1.78,1.78,0,0,1,1.79,1.79V20.23a1.82,1.82,0,0,1-1.79,1.84H9.82A1.86,1.86,0,0,1,8,20.23V9.71A1.82,1.82,0,0,1,9.82,7.92h0Zm8.5,1.57a0.61,0.61,0,0,0-.63.62v1.53a0.61,0.61,0,0,0,.63.61h1.6a0.63,0.63,0,0,0,.65-0.61V10.11a0.64,0.64,0,0,0-.65-0.62h-1.6Zm2.25,4.38H19.32a4.13,4.13,0,0,1,.18,1.22,4.4,4.4,0,0,1-8.8,0,4.12,4.12,0,0,1,.18-1.22H9.55v6a0.61,0.61,0,0,0,.59.59H20a0.59,0.59,0,0,0,.57-0.59v-6h0ZM15.1,12.19a2.76,2.76,0,1,0,2.84,2.75A2.8,2.8,0,0,0,15.1,12.19Z" transform="translate(-0.03 -0.03)"/></g></g></g></g></g></g></svg>