<svg id="Layer_1" data-name="Layer 1" xmlns="http://www.w3.org/2000/svg" viewBox="0 0 41.08 41"><title>inst-scroll</title><path id="a" d="M40.43,20.51a20,20,0,1,1-20-20h0.08a20,20,0,0,1,20,20H40.43Zm-1.26,0a18.71,18.71,0,1,0-5.49,13.21A18.7,18.7,0,0,0,39.17,20.51Z" transform="translate(0.07 -0.01)" style="fill:#fff;stroke:#0829cc;stroke-miterlimit:10"/><path id="b" d="M28,11.51a2.37,2.37,0,0,1,2.39,2.35h0v14A2.43,2.43,0,0,1,28,30.31H14a2.48,2.48,0,0,1-2.48-2.38v-14a2.42,2.42,0,0,1,2.42-2.42H28Zm-3.54,2.91v2a0.82,0.82,0,0,0,.82.82h2.15a0.84,0.84,0,0,0,.87-0.81h0v-2a0.84,0.84,0,0,0-.86-0.82H25.29a0.82,0.82,0,0,0-.84.8h0v0Zm2.17,5A5.45,5.45,0,0,1,26.86,21a5.87,5.87,0,0,1-11.73,0h0a5.4,5.4,0,0,1,.24-1.63H13.6v8a0.81,0.81,0,0,0,.79.78H27.51a0.8,0.8,0,0,0,.76-0.78v-8H26.62ZM21,17.18a3.67,3.67,0,1,0,3.79,3.67h0A3.73,3.73,0,0,0,21,17.2v0Z" transform="translate(0.07 -0.01)" style="fill:#fff;stroke:#0829cc;stroke-miterlimit:10"/></svg>