<svg id="Layer_1" data-name="Layer 1" xmlns="http://www.w3.org/2000/svg" viewBox="0 0 39.93 39.93"><title>inst</title><path id="a" d="M39.92,20A20,20,0,1,1,20,0a20,20,0,0,1,20,20h0Zm-1.26,0A18.7,18.7,0,0,0,6.73,6.73,18.71,18.71,0,1,0,38.66,20Z" transform="translate(0.01 0.01)" style="fill:#fff"/><path id="b" d="M27.48,11a2.37,2.37,0,0,1,2.39,2.35s0,0,0,0v14a2.43,2.43,0,0,1-2.39,2.45h-14A2.48,2.48,0,0,1,11,27.42v-14A2.42,2.42,0,0,1,13.45,11h14Zm-3.54,2.91v2a0.82,0.82,0,0,0,.84.82h2.13a0.84,0.84,0,0,0,.87-0.82v-2a0.84,0.84,0,0,0-.87-0.82H24.78a0.82,0.82,0,0,0-.84.8v0Zm2.17,5a5.45,5.45,0,0,1,.24,1.63,5.87,5.87,0,0,1-11.73,0h0a5.4,5.4,0,0,1,.24-1.63H13.09v8a0.81,0.81,0,0,0,.79.78H27a0.8,0.8,0,0,0,.76-0.78v-8H26.11Zm-5.62-2.24a3.67,3.67,0,1,0,3.79,3.67h0A3.73,3.73,0,0,0,20.49,16.69Z" transform="translate(0.01 0.01)" style="fill:#fff"/></svg>