<svg id="Layer_1" data-name="Layer 1" xmlns="http://www.w3.org/2000/svg" xmlns:xlink="http://www.w3.org/1999/xlink" viewBox="0 0 37.41 37.41"><defs><radialGradient id="radial-gradient" cx="-277.85" cy="405.67" r="0.91" gradientTransform="matrix(37.41, 0, 0, -37.41, 10413.92, 15187.38)" gradientUnits="userSpaceOnUse"><stop offset="0" stop-color="#0a6972"/><stop offset="1" stop-color="#16193f"/></radialGradient></defs><title>inst-scroll-hover</title><g id="Page-1"><g id="Group-9"><g id="if_instagram_313477" data-name="if instagram 313477"><path id="Shape" d="M32.23,32.23A18.71,18.71,0,0,1,5.77,5.77,18.71,18.71,0,0,1,32.23,32.23Z" transform="translate(-0.29 -0.29)" style="fill:url(#radial-gradient)"/><path id="Shape-2" data-name="Shape" d="M12.1,9.56h14a2.37,2.37,0,0,1,2.39,2.39V26a2.43,2.43,0,0,1-2.39,2.46h-14A2.48,2.48,0,0,1,9.65,26v-14A2.42,2.42,0,0,1,12.1,9.56h0Zm11.33,2.09a0.82,0.82,0,0,0-.84.82v2a0.81,0.81,0,0,0,.84.82h2.13a0.84,0.84,0,0,0,.87-0.82v-2a0.85,0.85,0,0,0-.87-0.82H23.43Zm3,5.85H24.76A5.51,5.51,0,0,1,25,19.12a5.87,5.87,0,0,1-11.73,0,5.49,5.49,0,0,1,.24-1.62H11.73v8a0.82,0.82,0,0,0,.79.78H25.67a0.79,0.79,0,0,0,.76-0.78v-8h0Zm-7.3-2.25a3.68,3.68,0,1,0,3.79,3.67A3.73,3.73,0,0,0,19.13,15.25Z" transform="translate(-0.29 -0.29)" style="fill:#fff"/></g></g></g></svg>