<?xml version="1.0" encoding="UTF-8"?>
<svg width="86px" height="18px" viewBox="0 0 86 18" version="1.1" xmlns="http://www.w3.org/2000/svg" xmlns:xlink="http://www.w3.org/1999/xlink">
    <!-- Generator: Sketch 47 (45396) - http://www.bohemiancoding.com/sketch -->
    <title>Shape</title>
    <desc>Created with Sketch.</desc>
    <defs></defs>
    <g id="Page-1" stroke="none" stroke-width="1" fill="none" fill-rule="evenodd">
        <g id="SMM-mob" transform="translate(-20.000000, -16.000000)" fill="#000000">
            <g id="Top-menu">
                <path d="M50.4524986,34 C55.5067635,34 59.6040185,30.0785857 59.6040185,25 C59.6040185,19.9214769 55.5067635,16 50.4524986,16 C45.3981715,16 41.3009221,19.9214769 41.3009221,25 C41.3009221,30.0785857 45.3981772,34 50.4524986,34 Z M81.9541032,16.5441683 L81.9541032,25.2316869 C81.9541032,30.0738518 78.0472184,34 73.2277298,34 C68.4082468,34 64.5012997,30.0743013 64.5012997,25.2316869 L64.5012997,16.5441683 L69.7907937,16.5441683 L69.7907937,25.4193351 C69.7907937,27.3257961 71.3295484,28.7977077 73.2277298,28.7977077 C75.1259111,28.7977077 76.6647281,27.3265642 76.6647281,25.4193351 L76.6646645,16.5441683 L81.9540962,16.5441683 L81.9541032,16.5441683 Z M96.1620793,20.6979751 L99.3757456,16.5237705 L106,16.5237705 L99.4742179,24.9999716 L106,33.4761726 L99.375689,33.4761726 L96.162085,29.301968 L92.9484187,33.4761726 L86.3241643,33.4761726 L92.8499465,24.9999716 L86.3241077,16.5237705 L92.9484187,16.5237705 L96.162085,20.6979751 L96.1620793,20.6979751 Z M36.1897088,16.5269682 L36.1897088,21.7732537 L36.1897088,22.1010986 L27.270298,28.8825488 L36.1897088,28.8825488 L36.1897088,33.4730785 L20,33.4730785 L20,28.2267929 L20,27.8988843 L29.1224708,21.117548 L20,21.117548 L20,16.5270183 L36.1897088,16.5270183 L36.1897088,16.5269682 Z M50.4523854,28.7961885 C52.5689327,28.7961885 54.3594571,27.1267229 54.3594571,24.9999545 C54.3594571,22.8732487 52.5689327,21.2037205 50.4523854,21.2037205 C48.3357758,21.2037205 46.5452457,22.8732487 46.5452457,24.9999545 C46.5452457,27.1267229 48.3357701,28.7961885 50.4523854,28.7961885 Z" id="Shape"></path>
            </g>
        </g>
    </g>
</svg>