<svg id="Layer_1" data-name="Layer 1" xmlns="http://www.w3.org/2000/svg" viewBox="0 0 79.85 30.15"><title>logo-black-mobile</title><g id="Page-1"><g id="CASE"><g id="Group-2"><g id="onyx"><path id="Fill-1" d="M38.75,0.51h7.52l4.46,7.72,4.46-7.72h9.17l3.69,4.78,3.69-4.78H80l-7.81,10.1L80,20.71H71.75l-3.69-4.78-3.69,4.78H56.13l7.81-10.1-4-5.23L57.43,9.65l-5.28,9.14L51,20.71H43.53l3.44-6-6.34-11V20.71H34.12s-6.55-8.07-8-9.87v9.87H19.59V16a10.48,10.48,0,1,1,0-10.79V0.51H26.1c2.69,3.28,5.35,6.58,8,9.87V0.51h4.63Zm-24,10.1c0-5.22-8.31-5.22-8.31,0s8.31,5.22,8.31,0h0Z" transform="translate(-0.13 -0.13)"/><path id="Fill-2" d="M7.1,27.54a2.15,2.15,0,0,1-.38.39,2.21,2.21,0,0,1-.73.38,2.86,2.86,0,0,1-.86.12,2,2,0,0,1-.88-0.2,1.47,1.47,0,0,1-.59-0.53,1.44,1.44,0,0,1-.22-0.78,1.17,1.17,0,0,1,.24-0.74,1.47,1.47,0,0,1,.67-0.46,2.93,2.93,0,0,1,1-.16H7.09V25.07a1.53,1.53,0,0,0-.17-0.73,1.06,1.06,0,0,0-.48-0.45,1.85,1.85,0,0,0-.82-0.16,2.16,2.16,0,0,0-.87.18,3.46,3.46,0,0,0-.79.49l-0.08.06-0.23-.3,0.07-.06a4.13,4.13,0,0,1,.58-0.39,2.93,2.93,0,0,1,.62-0.26,2.5,2.5,0,0,1,.69-0.09,2.19,2.19,0,0,1,1,.21,1.45,1.45,0,0,1,.63.6,1.9,1.9,0,0,1,.22.91l0,3.37H7.11v-0.9Zm14.53-.38a2.29,2.29,0,0,1-.32.41,2.25,2.25,0,0,1-.76.51,2.48,2.48,0,0,1-.95.18,2.45,2.45,0,0,1-1-.18,2.26,2.26,0,0,1-.76-0.51,2.35,2.35,0,0,1-.5-0.78,2.63,2.63,0,0,1-.18-1,2.68,2.68,0,0,1,.18-1A2.35,2.35,0,0,1,17.9,24a2.27,2.27,0,0,1,.76-0.51,2.43,2.43,0,0,1,1-.18,2.47,2.47,0,0,1,.95.18,2.25,2.25,0,0,1,.76.51,2.28,2.28,0,0,1,.32.41v-1.1H22v4.44a2.94,2.94,0,0,1-.17,1,2.22,2.22,0,0,1-.49.79,2.14,2.14,0,0,1-.77.5,2.63,2.63,0,0,1-1,.17A2.9,2.9,0,0,1,18.47,30a3.07,3.07,0,0,1-.93-0.65l-0.07-.07,0.27-.27,0.07,0.07a2.62,2.62,0,0,0,.81.56,2.55,2.55,0,0,0,1,.21,2.13,2.13,0,0,0,1.09-.26,1.76,1.76,0,0,0,.71-0.73,2.38,2.38,0,0,0,.26-1.13V27.16ZM32.13,26a2.43,2.43,0,0,0,.15.79,2,2,0,0,0,.43.69,1.92,1.92,0,0,0,.66.45,2.18,2.18,0,0,0,.84.16,2.48,2.48,0,0,0,.95-0.18,2,2,0,0,0,.72-0.5l0.07-.07,0.27,0.27-0.06.07a2.41,2.41,0,0,1-.85.59,2.8,2.8,0,0,1-1.09.21,2.53,2.53,0,0,1-1-.19,2.32,2.32,0,0,1-.78-0.53,2.42,2.42,0,0,1-.51-0.81,2.9,2.9,0,0,1,0-2,2.42,2.42,0,0,1,.51-0.81,2.33,2.33,0,0,1,.78-0.53,2.51,2.51,0,0,1,1-.19,2.43,2.43,0,0,1,1,.19,2.17,2.17,0,0,1,.75.53,2.39,2.39,0,0,1,.48.81,3,3,0,0,1,.17,1V26H32.13ZM46.82,24.4a2,2,0,0,1,.62-0.67,2.42,2.42,0,0,1,1.35-.39,2.24,2.24,0,0,1,1.08.24,1.65,1.65,0,0,1,.7.7,2.32,2.32,0,0,1,.24,1.09v3.07H50.44V25.37a1.91,1.91,0,0,0-.2-0.9,1.31,1.31,0,0,0-.56-0.56,1.84,1.84,0,0,0-.89-0.2,2.12,2.12,0,0,0-1,.25,1.71,1.71,0,0,0-.67.66,2.08,2.08,0,0,0-.29,1v2.76H46.44v-5.1h0.38V24.4ZM63,23.34a2.56,2.56,0,0,1,1,.18,2.42,2.42,0,0,1,.78.5l0.07,0.06-0.25.27-0.07-.06a2.21,2.21,0,0,0-.67-0.42A2.17,2.17,0,0,0,63,23.72a2.22,2.22,0,0,0-.85.16,2,2,0,0,0-.67.44,2,2,0,0,0-.44.68,2.39,2.39,0,0,0-.16.88,2.42,2.42,0,0,0,.16.89,2,2,0,0,0,.44.69,2,2,0,0,0,.67.45,2.33,2.33,0,0,0,1.74,0,1.92,1.92,0,0,0,.69-0.5l0.07-.08,0.25,0.27-0.06.06a2.32,2.32,0,0,1-.81.59,2.66,2.66,0,0,1-2,0,2.33,2.33,0,0,1-.79-0.53,2.44,2.44,0,0,1-.52-0.81,2.88,2.88,0,0,1,0-2,2.43,2.43,0,0,1,.52-0.81A2.34,2.34,0,0,1,62,23.53,2.55,2.55,0,0,1,63,23.34Zm13,5-2.07-5h0.42l1.85,4.54L78,23.34h0.43l-2.35,5.75a2.32,2.32,0,0,1-.58.87,1.17,1.17,0,0,1-.78.31,1.83,1.83,0,0,1-.51-0.07,1.4,1.4,0,0,1-.42-0.2l-0.07,0,0.17-.33L74,29.7a1.15,1.15,0,0,0,.33.15,1.4,1.4,0,0,0,.39.05,0.89,0.89,0,0,0,.6-0.24A1.83,1.83,0,0,0,75.78,29ZM7.1,26.79V25.95H5.36a2.69,2.69,0,0,0-.86.12,1.08,1.08,0,0,0-.51.33,0.82,0.82,0,0,0-.17.52,1.1,1.1,0,0,0,.16.59,1.08,1.08,0,0,0,.45.4,1.64,1.64,0,0,0,.71.15A2.5,2.5,0,0,0,6,27.93a1.72,1.72,0,0,0,.66-0.41A2.21,2.21,0,0,0,7.1,26.79Zm12.5,1.1a2.09,2.09,0,0,0,.81-0.16,1.91,1.91,0,0,0,.64-0.43,2,2,0,0,0,.42-0.66,2.26,2.26,0,0,0,.15-0.83A2.29,2.29,0,0,0,21.48,25a2,2,0,0,0-.42-0.66,1.9,1.9,0,0,0-.64-0.44,2.17,2.17,0,0,0-1.62,0,1.88,1.88,0,0,0-.64.44,2,2,0,0,0-.42.66,2.31,2.31,0,0,0-.15.84,2.28,2.28,0,0,0,.15.83,2,2,0,0,0,.42.66,1.9,1.9,0,0,0,.64.43A2.08,2.08,0,0,0,19.61,27.89ZM32.15,25.6H36.2A2.51,2.51,0,0,0,36,24.89a2,2,0,0,0-.41-0.62,1.78,1.78,0,0,0-.61-0.4,2.11,2.11,0,0,0-.79-0.14,2.16,2.16,0,0,0-.8.14,1.94,1.94,0,0,0-.64.41,2,2,0,0,0-.44.62,2.32,2.32,0,0,0-.19.71h0Z" transform="translate(-0.13 -0.13)"/></g></g></g></g></svg>