<?xml version="1.0" encoding="UTF-8"?>
<svg width="32px" height="32px" viewBox="0 0 32 32" version="1.1" xmlns="http://www.w3.org/2000/svg" xmlns:xlink="http://www.w3.org/1999/xlink">
    <!-- Generator: Sketch 45.2 (43514) - http://www.bohemiancoding.com/sketch -->
    <title>if_Rounded-15_2024660</title>
    <desc>Created with Sketch.</desc>
    <defs></defs>
    <g id="Page-1" stroke="none" stroke-width="1" fill="none" fill-rule="evenodd">
        <g id="Itrip" transform="translate(-19.000000, -6083.000000)">
            <g id="FOOTER" transform="translate(0.000000, 5576.000000)">
                <g id="Group-25" transform="translate(20.000000, 458.000000)">
                    <g id="Group-13" transform="translate(0.000000, 50.000000)">
                        <g id="if_Rounded-15_2024660">
                            <path d="M0,15 C1.04083409e-15,23.2842712 6.71572875,30 15,30 C23.2842712,30 30,23.2842712 30,15 C30,6.71572875 23.2842712,4.16333634e-16 15,0 C6.71572875,-5.20417043e-16 1.04083409e-15,6.71572875 0,15 Z" id="Shape" stroke="#FFFFFF" stroke-width="1.3" fill-rule="nonzero"></path>
                            <g id="Phone" transform="translate(7.968750, 6.562500)" fill="#FFFFFF">
                                <path d="M7.9359375,11.64375 C8.4046875,11.6015625 9.31875,10.74375 9.8109375,10.70625 C10.2768844,10.6643013 10.7416818,10.7980559 11.1140625,11.08125 L12.3703125,12.01875 L13.125,12.61875 C13.3831328,12.8125474 13.5507161,13.1035363 13.5887903,13.4240676 C13.6268644,13.744599 13.5321125,14.0667492 13.3265625,14.315625 L11.86875,16.190625 C11.7578522,16.3343303 11.5805885,16.4105537 11.4,16.3921875 C5.071875,15.825 0.0375,10.6453125 0.0375,4.3546875 C0.0375,3.24425294 0.195328323,2.13945468 0.50625,1.0734375 C0.539992698,0.965600433 0.629841667,0.884736361 0.740625,0.8625 L3.5109375,0.4734375 C4.17321199,0.331056205 4.82630124,0.749703162 4.9734375,1.4109375 L5.15625,2.34375 L5.4609375,3.871875 C5.55150287,4.32202595 5.46233337,4.78974521 5.2125,5.175 C4.959375,5.56875 3.7640625,5.9625 3.50625,6.3609375 L3.50625,6.3609375 C4.21449419,8.6633053 5.80773279,10.5903653 7.9359375,11.71875 L7.9359375,11.64375 Z" id="Shape"></path>
                            </g>
                        </g>
                    </g>
                </g>
            </g>
        </g>
    </g>
</svg>