<?xml version="1.0" encoding="UTF-8"?>
<svg width="14px" height="13px" viewBox="0 0 14 13" version="1.1" xmlns="http://www.w3.org/2000/svg" xmlns:xlink="http://www.w3.org/1999/xlink">
    <!-- Generator: Sketch 47 (45396) - http://www.bohemiancoding.com/sketch -->
    <title>Shape</title>
    <desc>Created with Sketch.</desc>
    <defs>
        <radialGradient cx="50%" cy="100%" fx="50%" fy="100%" r="142.049848%" gradientTransform="translate(0.500000,1.000000),scale(0.928571,1.000000),rotate(63.626338),translate(-0.500000,-1.000000)" id="radialGradient-1">
            <stop stop-color="#0A6972" offset="0%"></stop>
            <stop stop-color="#16193F" offset="100%"></stop>
        </radialGradient>
    </defs>
    <g id="Page-1" stroke="none" stroke-width="1" fill="none" fill-rule="evenodd">
        <g id="SEO-page-V2" transform="translate(-562.000000, -3758.000000)" fill-rule="nonzero" fill="url(#radialGradient-1)">
            <g id="lace" transform="translate(562.000000, 3758.000000)">
                <path d="M13.9830966,4.93976098 C13.9366808,4.80059835 13.7853294,4.67188829 13.5350943,4.65718296 L9.07591085,4.36697047 L7.41446585,0.327513818 C7.32279193,0.100375402 7.15023236,0 6.99998608,0 C6.84973979,0 6.67718022,0.100375402 6.58550631,0.327513818 L4.92406131,4.36697047 L0.464877861,4.65718296 C0.214642804,4.67188829 0.0632913799,4.80059835 0.0168755397,4.93976098 C-0.0295403004,5.07887237 0.0151915183,5.26968299 0.208696104,5.42472943 L3.6410475,8.21141498 L2.54659145,12.4301537 C2.48359853,12.6663612 2.56264228,12.8464118 2.68410233,12.9323381 C2.805615,13.0182644 3.00585567,13.0357366 3.21714773,12.9044646 L7.00009133,10.5874785 L10.7828244,12.9045671 C10.9941165,13.035839 11.1943045,13.0183668 11.3158698,12.9324406 C11.4374351,12.8464631 11.5163736,12.6664125 11.4533807,12.4302561 L10.3589247,8.21151745 L13.7912234,5.4248319 C13.9848333,5.26968299 14.0295651,5.07882114 13.9830966,4.93976098 Z" id="Shape"></path>
            </g>
        </g>
    </g>
</svg>