<?xml version="1.0" encoding="UTF-8"?>
<svg width="283px" height="102px" viewBox="0 0 283 102" version="1.1" xmlns="http://www.w3.org/2000/svg" xmlns:xlink="http://www.w3.org/1999/xlink">
    <!-- Generator: Sketch 47 (45396) - http://www.bohemiancoding.com/sketch -->
    <title>Group 8</title>
    <desc>Created with Sketch.</desc>
    <defs></defs>
    <g id="Page-1" stroke="none" stroke-width="1" fill="none" fill-rule="evenodd">
        <g id="SMM" transform="translate(-837.000000, -1216.000000)">
            <g id="About" transform="translate(-1.000000, 577.000000)">
                <g id="phone" transform="translate(316.000000, 200.000000)">
                    <g id="Group-8" transform="translate(522.000000, 439.000000)">
                        <g id="like" transform="translate(0.000000, 10.000000)">
                            <ellipse id="Combined-Shape" fill="#629AEE" cx="44" cy="44.5" rx="44" ry="44.5"></ellipse>
                            <path d="M35.8479598,36.8351205 L37.9374992,33.8261674 L37.9374992,33.8261674 C38.228991,33.406417 38.5557043,33.0122562 38.9140968,32.6479588 L41.6190004,29.8984888 L41.6190004,29.8984888 C42.7882431,28.7099816 43.4948874,27.1431692 43.6117572,25.4800338 L43.8519361,22.0621283 C44.4136186,20.9202545 45.3965631,20.3493176 46.8007695,20.3493176 C47.6345395,20.2841248 48.4770633,20.7123274 49.3283409,21.6339257 C49.9996433,22.6993757 50.4209052,23.8412495 50.5921266,25.059547 C50.9671873,27.7282288 51.0133885,28.0569657 50.5921266,30.6261818 C50.163068,32.370693 49.3205442,34.0835037 48.0645552,35.7646138 C48.0645552,35.7646138 52.4175949,35.7646138 61.1236744,35.7646138 C62.808722,35.7646138 63.6512458,37.4774245 63.6512458,39.1902352 C63.6512458,40.332109 63.0895633,41.3312485 61.9661982,42.1876539 C63.4434473,43.2834622 64.1455505,44.425336 64.0725077,45.6132753 C63.999465,46.8012145 63.1569412,47.9430883 61.5449363,49.0388966 C62.3874601,49.6098335 62.808722,50.4662389 62.808722,51.6081127 C62.808722,52.7499864 62.1066188,53.8918602 60.7024125,55.033734 C61.6151931,55.9607971 62.036455,56.9599366 61.9661982,58.0311527 C61.8959413,59.1023688 61.1938382,60.1015084 59.8598886,61.0285714 L37.3203883,61.0285714 L37.3203883,61.0285714 C35.1112494,61.0285714 33.3203883,59.2377104 33.3203883,57.0285714 L33.3203883,44.9061183 L33.3203883,44.9061183 C33.3203883,42.0210188 34.2023172,39.2048588 35.8479598,36.8351205 Z" id="Rectangle-27" fill="#FFFFFF"></path>
                            <rect id="Rectangle-26" fill="#FFFFFF" x="21.3592233" y="39.8380952" width="10.2524272" height="24.5809524" rx="4"></rect>
                        </g>
                        <g id="like" transform="translate(105.000000, 30.000000)">
                            <ellipse id="Combined-Shape" fill="#629AEE" cx="35.5" cy="36" rx="35.5" ry="36"></ellipse>
                            <path d="M29.131418,29.4852251 L30.771479,27.1592303 L30.771479,27.1592303 C31.0667649,26.7404451 31.3972769,26.3476432 31.7594122,25.9851066 L33.5387556,24.2037912 L33.5387556,24.2037912 C34.7281545,23.0130741 35.4487413,21.4336946 35.5685177,19.7549658 L35.7301146,17.4901022 C36.193181,16.562943 37.0035473,16.0993633 38.1612134,16.0993633 C38.8485962,16.0464291 39.5431958,16.3941139 40.2450123,17.1424175 C40.7984523,18.0075235 41.1457521,18.9346828 41.2869118,19.9238953 C41.5961221,22.0907661 41.6342116,22.3576883 41.2869118,24.4437966 C40.9331841,25.8602752 40.2385845,27.2510141 39.2031128,28.6160133 C39.2031128,28.6160133 42.7918777,28.6160133 49.9694073,28.6160133 C51.3586066,28.6160133 52.0532063,30.0067521 52.0532063,31.397491 C52.0532063,32.3246503 51.5901398,33.1359146 50.664007,33.8312841 C51.8818915,34.7210399 52.4607245,35.6481991 52.4005061,36.6127618 C52.3402876,37.5773245 51.645688,38.5044838 50.3167071,39.3942396 C51.0113068,39.8578192 51.3586066,40.5531887 51.3586066,41.4803479 C51.3586066,42.4075072 50.7797736,43.3346664 49.6221075,44.2618257 C50.3746288,45.0145666 50.7219286,45.8258309 50.664007,46.6956187 C50.6060853,47.5654065 50.0272523,48.3766709 48.9275079,49.1294118 L31.047619,49.1294118 L31.047619,49.1294118 C28.83848,49.1294118 27.047619,47.3385508 27.047619,45.1294118 L27.047619,36.0566391 L27.047619,36.0566391 C27.047619,33.7036433 27.775488,31.4082547 29.131418,29.4852251 Z" id="Rectangle-27" fill="#FFFFFF"></path>
                            <rect id="Rectangle-26" fill="#FFFFFF" x="16.9047619" y="32.1882353" width="8.45238095" height="19.4823529" rx="4"></rect>
                        </g>
                        <g id="like" transform="translate(168.000000, 0.000000)">
                            <ellipse id="Combined-Shape" fill="#629AEE" cx="19.5" cy="20" rx="19.5" ry="20"></ellipse>
                            <path d="M16.3756318,16.9513763 L17.0686181,15.9101298 L17.0686181,15.9101298 C17.3493009,15.4883898 17.6650917,15.0911019 18.0126255,14.7224994 L18.6051563,14.0940473 L18.6051563,14.0940473 C19.3258546,13.3296577 19.7585167,12.3385711 19.8291083,11.2903754 L19.9057123,10.1529039 C20.1534372,9.62741812 20.5869559,9.36467523 21.2062682,9.36467523 C21.5739949,9.33467372 21.9455823,9.53173089 22.3210305,9.95584674 C22.6171022,10.4461626 22.8028959,10.9716484 22.8784116,11.5323041 C23.0438287,12.7604209 23.0642053,12.9117043 22.8784116,14.0940473 C22.6891792,14.8968645 22.3175918,15.6850931 21.7636493,16.4587333 C21.7636493,16.4587333 23.6835176,16.4587333 27.5232543,16.4587333 C28.2664291,16.4587333 28.6380165,17.246962 28.6380165,18.0351907 C28.6380165,18.5606765 28.3902916,19.0204766 27.8948417,19.4145909 C28.5463689,19.9188775 28.8560251,20.4443633 28.8238102,20.9910483 C28.7915954,21.5377332 28.420008,22.063219 27.709048,22.5675056 C28.0806354,22.8302485 28.2664291,23.2243629 28.2664291,23.7498486 C28.2664291,24.2753344 27.9567729,24.8008202 27.3374606,25.326306 C27.7400341,25.7529367 27.9258278,26.2127368 27.8948417,26.7057062 C27.8638556,27.1986756 27.5541994,27.6584757 26.9658732,28.0851064 L19.2608696,28.0851064 L19.2608696,28.0851064 C17.0517306,28.0851064 15.2608696,26.2942454 15.2608696,24.0851064 L15.2608696,20.6383942 L15.2608696,20.6383942 C15.2608696,19.3263684 15.6487066,18.0436177 16.3756318,16.9513763 Z" id="Rectangle-27" fill="#FFFFFF"></path>
                            <rect id="Rectangle-26" fill="#FFFFFF" x="9.32608696" y="17.8723404" width="4.23913043" height="11.0638298" rx="2.11956522"></rect>
                        </g>
                        <g id="like" transform="translate(213.000000, 52.000000)">
                            <ellipse id="Combined-Shape" fill="#629AEE" cx="14" cy="14.5" rx="14" ry="14.5"></ellipse>
                            <path d="M11.7972976,12.3554684 L12.165173,11.7699049 L12.165173,11.7699049 C12.4307917,11.347108 12.7311341,10.9471486 13.0630911,10.5741672 L13.3312866,10.272827 L13.3312866,10.272827 C13.8282728,9.71442138 14.1240477,9.00573186 14.1714745,8.2597005 L14.2261136,7.40021819 C14.3965568,7.01720369 14.6948325,6.82569643 15.1209406,6.82569643 C15.3739491,6.80382903 15.6296139,6.94745947 15.8879351,7.25658775 C16.0916426,7.61396773 16.219475,7.99698224 16.2714324,8.40563127 C16.385245,9.30077734 16.3992648,9.41104435 16.2714324,10.272827 C16.141234,10.857982 15.8855692,11.4325037 15.5044378,11.9963923 C15.5044378,11.9963923 16.8253729,11.9963923 19.4672429,11.9963923 C19.9785726,11.9963923 20.2342375,12.570914 20.2342375,13.1454358 C20.2342375,13.5284503 20.0637942,13.863588 19.7229078,14.1508489 C20.1711808,14.5184118 20.3842348,14.9014263 20.3620699,15.2998924 C20.339905,15.6983585 20.0842401,16.081373 19.5950754,16.4489359 C19.8507402,16.6404432 19.9785726,16.927704 19.9785726,17.3107186 C19.9785726,17.6937331 19.7655186,18.0767476 19.3394105,18.4597621 C19.6163949,18.7707234 19.7442273,19.1058611 19.7229078,19.4651752 C19.7015883,19.8244892 19.4885342,20.1596269 19.0837457,20.4705882 L14.4774336,20.4705882 L14.4774336,20.4705882 C12.573636,20.4705882 11.030303,18.9272553 11.030303,17.0234577 L11.030303,15.0181235 L11.030303,15.0181235 C11.030303,14.0760784 11.2961565,13.1531566 11.7972976,12.3554684 Z" id="Rectangle-27" fill="#FFFFFF"></path>
                            <rect id="Rectangle-26" fill="#FFFFFF" x="6.78787879" y="12.7941176" width="3.39393939" height="7.67647059" rx="1.6969697"></rect>
                        </g>
                        <g id="like" transform="translate(266.000000, 25.000000)">
                            <ellipse id="Combined-Shape" fill="#629AEE" cx="8.5" cy="8.83116883" rx="8.5" ry="8.83116883"></ellipse>
                            <path d="M7.16264495,7.52505015 L7.25589064,7.37616164 L7.25589064,7.37616164 C7.5037479,6.98039964 7.78408184,6.60593099 8.09399546,6.25662549 L8.09399546,6.25662549 L8.09399546,6.25662549 C8.39577328,5.9164899 8.57528986,5.48529813 8.60404876,5.03149752 L8.63728326,4.50707422 C8.74076665,4.27380072 8.92186258,4.15716397 9.18057106,4.15716397 C9.33418337,4.14384571 9.48940845,4.23132328 9.64624631,4.41959666 C9.76992586,4.63725755 9.84753841,4.87053106 9.87908394,5.11941717 C9.94818445,5.66460241 9.95669648,5.73176011 9.87908394,6.25662549 C9.80003495,6.61301185 9.64480986,6.9629221 9.41340868,7.30635624 C9.41340868,7.30635624 10.215405,7.30635624 11.8193975,7.30635624 C12.1298477,7.30635624 12.2850728,7.6562665 12.2850728,8.00617675 C12.2850728,8.23945025 12.1815894,8.44356456 11.9746226,8.61851969 C12.2467883,8.84238248 12.3761426,9.07565598 12.3626853,9.3183402 C12.349228,9.56102441 12.1940029,9.79429791 11.89701,10.0181607 C12.0522351,10.1347975 12.1298477,10.3097526 12.1298477,10.5430261 C12.1298477,10.7762996 12.0004934,11.0095731 11.741785,11.2428466 C11.909954,11.4322364 11.9875666,11.6363507 11.9746226,11.8551895 C11.9616786,12.0740284 11.8323243,12.2781427 11.5865599,12.4675325 L8.79643121,12.4675325 L8.79643121,12.4675325 C7.63693063,12.4675325 6.6969697,11.5275715 6.6969697,10.368071 L6.6969697,9.14595421 L6.6969697,9.14595421 C6.6969697,8.5726529 6.85834926,8.01092928 7.16264495,7.52505015 Z" id="Rectangle-27" fill="#FFFFFF"></path>
                            <rect id="Rectangle-26" fill="#FFFFFF" x="4.12121212" y="7.79220779" width="2.06060606" height="4.67532468" rx="1.03030303"></rect>
                        </g>
                    </g>
                </g>
            </g>
        </g>
    </g>
</svg>