<svg id="Layer_1" data-name="Layer 1" xmlns="http://www.w3.org/2000/svg" viewBox="0 0 33 33"><title>socialLink3</title><path id="a" d="M33,17A16,16,0,1,1,17,1,16,16,0,0,1,33,17Zm-8.08-5.17c-1,.37-1.19.32-0.67-0.24a3.55,3.55,0,0,0,.83-1.33,0.77,0.77,0,0,0-.39.14,7,7,0,0,1-1.08.42L22.94,11l-0.6-.41a5,5,0,0,0-1-.54,4.22,4.22,0,0,0-2.15,0,3.56,3.56,0,0,0-2.4,3.58l0,0.6-0.61-.07a9.93,9.93,0,0,1-5.85-2.88l-0.81-.81-0.21.6a3.58,3.58,0,0,0,.76,3.67c0.49,0.53.38,0.6-.47,0.29A1.61,1.61,0,0,0,9,15a4.45,4.45,0,0,0,.44,1.67,4,4,0,0,0,1.68,1.59l0.6,0.28-0.71,0c-0.69,0-.71,0-0.64.27a3.75,3.75,0,0,0,2.3,2l0.76,0.26-0.66.39a6.76,6.76,0,0,1-3.29.92,4.4,4.4,0,0,0-1,.1,9.34,9.34,0,0,0,2.37,1.1,10.39,10.39,0,0,0,8.06-.92A10.75,10.75,0,0,0,23,17.87a12.83,12.83,0,0,0,.84-3.73c0-.57,0-0.64.72-1.33a7.25,7.25,0,0,0,.86-1c0.12-.24.11-0.24-0.52,0h0Z" transform="translate(-0.5 -0.5)" style="fill:#fff;fill-opacity:0;stroke:#fff;stroke-miterlimit:50"/></svg>