<svg id="Layer_1" data-name="Layer 1" xmlns="http://www.w3.org/2000/svg" viewBox="0 0 33 33"><title>socialLink1</title><path id="a" d="M21.67,17.6a4.83,4.83,0,0,1-9.66,0,4.57,4.57,0,0,1,.2-1.34L11,16v6.8a0.42,0.42,0,0,0,.49.49H22.17a0.42,0.42,0,0,0,.49-0.49V16l-1.19.26a4.57,4.57,0,0,1,.2,1.34h0Z" transform="translate(-0.5 -0.5)" style="fill:#fff"/><path id="b" d="M14,17a3.12,3.12,0,0,1,6.24,0h0A3.12,3.12,0,0,1,14,17h0Z" transform="translate(-0.5 -0.5)" style="fill:#fff;fill-opacity:0;stroke:#fff;stroke-miterlimit:50"/><path id="c" d="M33,17A16,16,0,1,1,17,1,16,16,0,0,1,33,17Zm-8.23-5.83a1.9,1.9,0,0,0-1.86-1.94H11.17a1.9,1.9,0,0,0-1.94,1.86s0,0.05,0,.08V22.83a1.9,1.9,0,0,0,1.94,1.94H22.83a1.9,1.9,0,0,0,1.94-1.86s0-.05,0-0.08V11.17Z" transform="translate(-0.5 -0.5)" style="fill:#fff;fill-opacity:0;stroke:#fff;stroke-miterlimit:50"/><path id="d" d="M22.43,11H20.49a0.5,0.5,0,0,0-.49.49v1.94a0.49,0.49,0,0,0,.49.49h1.94a0.5,0.5,0,0,0,.49-0.49V11.49A0.5,0.5,0,0,0,22.43,11Z" transform="translate(-0.5 -0.5)" style="fill:#fff;fill-opacity:0;stroke:#fff;stroke-miterlimit:50"/></svg>